<?xml version="1.0" encoding="UTF-8"?><svg xmlns="http://www.w3.org/2000/svg" width="3840" height="1920" viewBox="0 0 3840 1920"><defs><style>.cls-1{fill:#000;stroke-width:0px;}</style></defs><g id="Image_2"><path class="cls-1" d="M773.79,1253.18c-15.92-2.3-16.84-16.65-11.54-29.05,5.07-16.8,12.46-32.78,19.39-48.87,6.59-15.2,13.21-30.44,19.15-45.92,1.13-2.11,2.19-4.25,3.26-6.39,6.59-12.64,14-24.85,21.23-37.12,3.39-5.76,7.02-11.38,10.53-17.06,1.89-3.04,3.76-6.11,5.68-9.14,2.43-3.84,4.96-7.64,7.16-11.63.63-1.16,1.23-2.32,1.8-3.49,10.45,24.17-28.26,114.44-37.94,137.11,8.61-8.73,21.86-22.82,31.95-33.69,55.34-56.53,105.82-117.27,155.28-178.91,46.43-52.43,94.75-104.7,124.93-168.68,9.3-21.87,19.95-56.87-8.74-68.48-27.23-10.03-56.56-15.22-85.4-17.89-75.82-5.32-135.48-7.86-206.39,24.87-17.23,6.83-88.57,27.05-77.03-10.88,12.65-11.91,27.29-21.87,38.4-35.49,12.92-14.62,22.91-31.5,35.11-46.7,18.64-23.95,40.14-45.46,59.63-68.69,43.07-49.54,53.45-119.21,38.91-181.89-24.62-120.82-175.8-125.16-274.9-116.84-57.57,5.75-114.06,21.23-167.76,42.51-30.24,13.18-57,32.79-84.35,50.96-74.14,47.63-109.86,90.46-153,166.68-30.39,54.16-46.5,117.91-44.17,180.02,1.89,41.16,23.18,80.22,50.14,110.5,17.74,16.22,44.02,18.13,62.84,32.71,9.97,8.35.91,23.29-11.02,20.57-16.46-6.29-32.37-14.54-48.91-20.99-41.85-20.57-73.43-82.55-81.39-126.95-7.72-54.94,5.02-110.37,22.3-162.35,15.38-40.15,39.52-76.2,63.51-111.62,31.7-48.99,79.52-83.38,127.27-115.42,72.96-54.6,162.57-81.24,252.19-91.96,113.75-11.52,280.54-.8,314.59,132.36,15.15,57.42,12.41,121.83-17.27,174.25-18.27,33.54-47.03,59.34-71.26,88.38-19.09,21.7-33.23,47.31-53.26,68.18,72.72-31.75,129.24-35.44,207.42-28.91,28.47.34,56.48,5.68,84.13,12.1,56.46,10.7,83.05,47.33,60.73,102.98-34.51,85.37-104.98,147.77-160.73,218.89-42.67,54.91-90.36,105.59-138.07,156.09-14.84,15.96-29.82,31.79-45.35,47.08-12.22,9.14-21.59,28.79-38,28.8-.35,0-.71,0-1.07-.03Z"/><path class="cls-1" d="M835.26,1790.05c-7.26-3.27-13.82-7.73-20.01-12.72,9.75,2.28,19.99,2.89,29.88,2.89.7,0,1.4,0,2.1,0,17.1-.15,33.91-5.51,48.33-14.66,12.34-7.83,23.53-17.27,34.78-26.56,10.96-9.05,21.5-18.54,31.57-28.56-1.56,5.89-4.13,12.03-7.93,18.51-11.91,20.3-31.23,34.79-50.44,47.73-13.52,10.51-30.02,17.55-46.79,17.55-7.18,0-14.42-1.29-21.49-4.16Z"/><path class="cls-1" d="M722.51,1735.74c-33.98-4.02-64.84-21.01-97.94-29.24-82.01-32.49-167.97-54.52-248.63-90.29-26.46-11.64-54.77-19.61-79.18-35.52-10.82-6.91-20.77-15.11-31.57-22.03-16.56-11.28-36.68-14.38-54.69-22.51-19.14-8.89-35.95-22.46-50.07-38.04-16.17-19.98-31.52-42.9-35.96-68.62-1.57-21.85-.79-44.12,2.64-65.79,3.95-19.94,11.81-38.78,17.02-58.38,7.25-30.16,12.38-60.9,23.27-90.08,2.3-6.59,4.86-13.09,7.47-19.57-.29,2.3-.55,4.6-.77,6.9-.52,5.32-.89,10.65-.91,15.99-.02,5.57.5,11.04.99,16.58.06.66.15,1.32.27,1.96-.73,2.59-1.44,5.19-2.07,7.8-1.49,6.28-2.83,12.58-4.21,18.88.15-.66.29-1.33.45-1.99-.43,1.91-.86,3.83-1.29,5.74-1.53,6.84-2.78,13.7-4.09,20.59-1.19,6.32-2.43,12.67-3.04,19.07-.7,7.34-1.18,14.68-1.43,22.04-.22,6.4-.36,12.79-.83,19.17-.78,8.07-1.82,16.09-2.92,24.13-1.29,9.37-2.27,18.77-2.93,28.21-.48,6.86-.97,13.85-.23,20.71.88,8.13,2.77,16.24,6.12,23.73.19.43.38.86.58,1.29,2.89,7.43,6.72,14.54,11.26,21.27,2.04,3.22,4.31,6.48,6.93,9.34,10.78,13.24,24.13,24.54,37.91,32.96,17.89,9.79,38.79,12.44,56.43,22.86,28.14,17.59,53.98,38.92,86.36,48.64,85.89,38.58,176.9,63.36,264.55,97.43,12.97,4.63,26.18,8.54,39.38,12.47,20.98,5.85,40.4,17.3,62.46,18.69,2.42.03,4.79.21,7.14.51,1.21,2.5,2.41,5.01,3.62,7.51,2.28,4.72,4.91,9.49,8.3,13.52,3.07,3.66,6.47,6.84,10.25,9.77,1.28,1,2.57,1.96,3.86,2.92-11.19-4.07-22.33-8.3-34.49-8.61Z"/><path class="cls-1" d="M547.43,741.57c-46.76-3-94.9-14.42-135.4-38.55-42.91-27.54-2.55-60.57,18.46-18.17,39.71,20.14,85.59,32.55,130.29,31.04,60.07-8.62,104.81-60.55,127.34-114.02,4.55-20.8,34.01-13.94,25.07,6.37-27.5,67-87.46,133.33-164.67,133.34-.37,0-.73,0-1.1,0Z"/><path class="cls-1" d="M839.59,1807.8c-69.41,1.54-90.55-46.96-142.91-78.85-33.74-27.25-79.89-3.21-109.36-39.51-13.01-14.54,2.81-31.68,17.85-19.81,4.8,7.45,10.12,11.67,18.55,14.89,14.54,4.87,30.27,2.46,45.17,5.38,27.65,4.99,50.36,23.39,72.38,39.72.52.7,1.05,1.38,1.61,2.05,3.08,3.66,6.48,6.84,10.25,9.77,2.8,2.18,5.67,4.26,8.56,6.32.58.41,1.16.84,1.73,1.25,13.81,13,27.82,25.7,47.03,29.73,50.89,12.75,93.71-7.77,131.25-41.09,36.16-31.86,58.77-75.88,82.23-117.26,18.64-42.23,44.32-93.52,24.43-139.3-9.97-18.01-31.2-24.52-45.86-37.9-30.19-19.47-25.29-45.68-2.09-68.54,27.44-30.45,63.5-55.09,78.66-94.66,5.87-19.14,31.88-71.5.93-77.26-51.95-8.25-122.47,87.98-172.09,110.4-32.62,20.26-63.95,42.8-98.7,59.48-17.3,9.47-36.49,15.91-56.41,12.41-81.64-26.12-168.62-44.17-239.93-94.34-21.59-14.68-42.16-30.93-65.06-43.59-1.19-.67-.78-.21-2.59,0-4.27.5-8.69-.95-11.86-3.82-10.76-9.6-.27-24.49,12.69-23.03,19.51,3.87,35.43,18.88,52.13,29.07,52.06,41.14,113.05,67.69,176.46,86.05,14.57,4.3,29.47,7.51,43.93,12.23,14.62,3.77,28.3,12.41,43.64,12.59,28.58-1.57,68.36-31.04,94.08-45.75,25.74-18.75,54.96-32.15,78.59-53.82,40.21-30.73,75.88-75.37,128.16-84.23,21.55-2.25,45.9,6.73,55.53,27.25,9.89,23.54-1.48,50.34-8.53,73.32-9.19,28.7-26.17,54.15-47.79,74.99-14.52,16.94-49.62,40.91-53.61,62.23,11.04,13.01,27.03,21.27,40.92,30.95,28.5,19.04,36.89,55.04,32.49,87.37-7.26,56.04-34.86,106.96-64.42,154.23-36.61,61.39-97.8,121.16-173.28,121.16-1.59,0-3.18-.03-4.77-.08Z"/><path class="cls-1" d="M151.46,1443.16c-26.72-2.84-26.51-49.9-28.15-70.56.73-22.64,3.46-45.36,5.79-67.89,5.06-26.47,5.51-53.67,13.12-79.67,6.87-22.87,16.12-45.1,25.12-67.22,38.01-92.28,96.68-174.54,165.66-246.22,16.76-15.35,33.67-30.78,51.99-44.29,11.27-10.82,35.21-17.95,41.86,1.17,1.59,7.74-5.64,11.9-11.86,13.8-5.64,3.83-11.11,7.9-16.54,12.02-24.25,19.64-46.66,41.23-67.18,64.76-65.61,74.14-117.61,159.76-150.1,253.45-6.89,17.21-10.73,35.21-13.52,53.46-.12.52-.23,1.05-.36,1.57-1.53,6.84-2.78,13.7-4.09,20.59-1.19,6.32-2.43,12.67-3.04,19.07-.7,7.34-1.18,14.68-1.43,22.04-.22,6.4-.36,12.79-.83,19.17-.78,8.07-1.82,16.09-2.92,24.13-1.29,9.37-2.27,18.77-2.93,28.21-.48,6.86-.97,13.85-.23,20.71.79,7.3,2.39,14.58,5.14,21.41-1.14.28-2.33.42-3.54.42-.65,0-1.31-.04-1.98-.13Z"/><path class="cls-1" d="M474.23,452.91c-7.89-1.91-15.8-7.35-24.37-4.1-19.88,1.81-38.41,14.9-44.99,34.21-4.81,18.88-4.36,45.26,9.55,59.63,3.06,4.73,7.67,8.48,14.31,10.56,4.54,1.69,9.07,2.46,13.56,2.46,2.52,0,5.03-.25,7.51-.71,25.73-.03,46.7-17.91,57.05-43.53,12.25-24.14-7.62-53.8-32.61-58.52Z"/><path class="cls-1" d="M695.89,421.47c-2.54-8.87-8.24-16.36-18.19-20.64-18.51-10.45-57.27-6.14-70.96,10.98-8.27,11.95-13.05,27.89-11.74,42.46,1.39,7.31,4.73,15.2,9.65,21.65,1.45,3.23,3.56,6.29,6.44,9.08,8.58,7.33,18.66,10.49,28.89,10.49,35.9,0,73.72-38.98,55.91-74.04Z"/><path class="cls-1" d="M690.37,1192.06c-21.2-2.32-11.45-25.06-2.96-35.94,7.86-12.91,15.18-26.13,23.01-39.05,15.31-21.89,26.67-47.12,39.22-69.89-35.05,22.55-69.7,45.83-104.21,69.21-13.06,6.48-25.93,13.32-39,19.7-5.79,1.64-11.98-.87-15.03-6.05-6.62-13.89,9.13-25.58,16.51-35.7,37.08-38.7,55.36-90.46,86.7-133.41,8.18-22.06,32.06-16.41,27.29,3.08-25.3,38.52-47.05,79.54-71.22,118.69,35.16-24.76,71.49-47.88,107.96-70.67,8.7-7,24.61-6.82,26.65,6.43.02,8.97-5.98,16.8-7.03,25.79-5.08,16.01-15.97,29.2-21.91,44.82-5.77,13.84-17.11,27.99-23.41,39.79,18.43-11.82,36.16-24.43,53.13-38.26,11.45-10.02,23.16-19.75,34.6-29.79,9.25-6.93,16.86-22.24,29.99-19.99,14.62,3.83,10.11,25.31-2.52,28.42-32.59,32.01-69.18,59.34-106.83,84.98-10.55,8.3-21,16.64-31.35,25.07-5.29,5.59-11.13,12.76-19.49,12.76h-.08Z"/><path class="cls-1" d="M540.44,669.84c-11.33-5.68-38.19-20.66-34.54-35.45,5.25-9.97,20.07-8.4,28.09-2.78,6.12,5.43,11.32,12.32,18.91,15.87,9.46-.32,20.2-2.51,27.22-9.33,14.62-18.39-16.66-69.52-24.05-90.66-13.2-2.51-17.23-16.96-11.7-28.02,7.63-10.37,24.49-7.43,32.18,1.43,12.31,16.38,19.23,36.27,26.75,55.16,9.26,20.33,20.22,43.1,15.04,65.95-8.01,21.33-32.48,31.36-55.41,31.36-7.92,0-15.66-1.2-22.47-3.54Z"/><path class="cls-1" d="M3091,1043.13c-23.52-8.41-48.24-13.46-70.79-24.54-17.44-8-30.63-22.53-45.64-34.23-17.8-14.87-39.65-27.1-49.42-49.72-7.87-19.14-8.33-40.7-11.77-61.11-5.47-42.7,20.32-80.26,34.99-118.55,13.37-27.78,39.7-44.38,62.42-63,50.31-44.16,127.25-66.97,191.57-70,107.31-2.97,218.48-.23,318.59,41.5,33.3,15.38,63.29,37.15,95.14,55.33,39.15,23.9,83.37,45.08,108.71,86.08,14.69,25.55,22.93,55.51,27.04,85.04,1.07,38.41-14.05,77.35-43.67,101.58-18.48,17.71-41.97,27.5-63.21,40.79-34.38,20.03-70.75,36.66-107.31,51.58-27.8,7.41-84.47,28.6-110.22,19.52-9.57-7.75-.65-22.74,10.38-19.57,24.27-.05,47.8-8.12,71.3-14.09,25.8-5.94,49.55-18.24,73.53-29.65,18.93-8.57,37.78-17.41,55.41-28.76,31.04-17.88,67.11-35.02,83.12-70.3,8.2-21.92,13.58-46.29,6.06-68.88-5.7-21.31-11.23-43.33-24.13-61.18-20.16-28.3-51.03-44.79-79.56-62.34-36.92-20.49-71.42-45.57-109.33-64.08-76.99-32.8-162.36-40.62-245.45-41.44-49.03,0-99.25-1.55-146.65,15.1-25.39,8.61-51.42,16.81-74.14,32.05-13.09,8.98-25,19.67-37.6,29.36-26.21,18.87-43.17,36.94-53.45,69.01-12.99,28.75-28.92,58.88-21.46,91.33,5.55,45.27,7.7,54.91,44.69,80.92,15.64,11.33,28.72,26.29,45.54,35.85,16.75,8.83,35.08,13.88,53.1,19.28,13.39,4.39,27.9,7.55,39.15,16.66,11.88,8.38,15.38,31.45-4.52,27.58-10.15-7.42-4.99-12.18-22.4-17.14Z"/><path class="cls-1" d="M3120.9,1643.58c-36.05-8.67-67.1-31.85-89.36-61.98-16-19.65-25.2-43.77-38.33-65.36-9.79-16.63-11.22-37.11-15.7-55.83-7.29-33.86-8.54-65.12,6.45-97.65,19.27-52.3,67.64-43.74,105.17-64.29-23.75-23.2-30.66-60.06-37.44-92.3-7.58-13.55-8-29.35-3.5-44.38,2.54-17.08,7.79-35.81,25.98-40.7,18.02-4.54,37.51.03,54.1,7.31,15.47,8.13,23.7,25.04,36.56,36.44,6.46,5.8,13.08,11.37,19.82,16.82,12.72,11.23,27.52,19.33,40.97,29.47,16.12,14.66,36.22,22.65,55.84,31,15.63,6.51,32,10.95,48.49,14.61,3.76,1.33,7.93,2.07,12.12,2.81,8.46,1.51,17.05,3.04,22.66,9.54,4.27,6.2,5.73,16.52-.09,22.41-3.5,3.61-16.63-.07-27.89-3.31-6.09-1.75-11.62-3.37-14.79-3.64-25.28-5.56-49.28-15.45-72.56-26.72-15.72-6.4-27.7-18.91-41.76-28.11-25.18-16.38-49.66-35.16-69.07-58.71-9.64-15.6-26.94-20.49-44-21.33-16.11-.07-23.52,2.76-25.16,20.95-6.58,19.21,2.84,20.64,4.34,38.74,5.8,25.66,11.7,54.33,32.72,70.86,20.79,21.12-.16,50.9-24.62,54.62-30.33,10.3-71.99,13.2-81.48,51.82-14.26,31.97-2.18,65.96,3.84,98.04,1.46,8.84,6.04,16.23,10.67,23.55,12.16,23.02,23.24,47.43,41.87,65.64,49.78,56.3,132.5,50.21,200.11,38.14,25.34-6.66,51.37-8.57,76.89-14.15,58.72-13.78,116.97-30.44,174.22-50.24,48.29-18.67,99.04-30.58,144.46-57.1,20.85-12.02,45.25-24.31,56.33-47.52,8.07-17.21,3.21-36.79-1.87-53.88-4.91-9.37-13.57-15.82-19.59-24.36-12.21-20.09-28.31-36.79-43.11-54.71-16.19-24.44-35.5-46.09-57.11-65.39-10.42-9.19-23-15.41-33.11-25.05-11.21-10.44-20.44-23.51-34.66-29.88-20.34-9.82-41.09-19.32-56.88-36.38-10.69-10.01-23.24-18.28-31.22-31.04-14.29-3.15-14.33-34.15,2.95-31.16,8.25,2.29,10.69,11.71,16.33,17.34,8.42,8.38,17.93,15.48,26.47,23.73,16.76,17.73,41.28,22.9,60.57,36.75,13.46,9.6,22.62,24.35,36.51,33.43,25.55,16.56,47.28,39.12,66.88,62.73,14.32,23.2,34.03,41.63,49.95,63.43,8.24,15.35,21.67,26.31,30.89,40.83,9.26,18.47,15.12,49.04,11.93,69.86-4.61,37.26-35.63,60.53-65.44,76.7-37.66,21.99-78.43,36.46-119.45,49.36-40.66,14.75-81.46,28.85-123.05,40.29-46.57,14.06-93.79,25.42-141.72,31.95-52.5,11.99-107.84,19.17-160.31,6.69-.95-.23-1.89-.45-2.84-.69Z"/><path class="cls-1" d="M2807.81,1736.97c-13.4-9.11-25.55-19.64-34.63-33.57-10.03-13.14-24.01-22.2-34.24-35.15-14.83-20.59-30.4-40.45-46.41-60.04-20.07-28.43-39.03-58.22-53.84-90.12-17.03-38.82-36.81-84.14-22.66-127.62,4.95-20.23,9.23-40.99,19.83-59.12,15.14-26.01,31.84-51.84,53.78-72.22,25.6-22.68,54.58-40.62,82.76-59.45,42.58-29.48,87.3-54.74,133.6-77.01,24.38-13.7,50.79-23.19,74.21-38.78,14.11-9.43,27.69-20,43.31-26.54,16.79-7.26,34.54-11.34,51.91-16.6,8.79-2.23,17.2-7.34,26.32-7.19,11.11-.18,18.37,11.28,20.33,21.48,2.34,12.17-2.86,22.55-18.04,9.21-23.6,8.82-48.64,12.88-71.57,23.75-20.08,9.97-37.04,25.7-57.23,35.5-72.75,34.61-143.29,71.51-209.71,118.59-50.21,31.57-81.9,60.08-110.55,114.47-9.01,16.75-11.91,35.83-16.77,54.05-6.36,16.49-1.92,33.02,1.71,49.34,17.51,65.05,57.4,120.18,98.49,170.72,13.08,23.07,35.09,37.38,50.9,57.94,9.81,16.27,28.18,22.83,39.38,37.8-3.82-42.64-18.05-82.61-28.85-123.51-1.5-13.42-23.88-65.91,5.03-57.08,19.29,10.06,28.27,33.32,46.33,45.62,16.67,13.06,32.81,27.98,52.58,35.71-19.59-32.78-41.05-67.53-40.36-108.09.73-12.91-1.19-27.04,2.94-39.33,4.91-6.94,14.13-2.16,17.84,3.45,4.65,6.33,4.44,15.09,9.05,21.54,7,11.9,17.13,21.22,26.36,31.16,12.96,12.94,23.94,28.3,38.43,39.42-14.38-40.69-38.27-77.7-46.54-120.9-6.06-32.11-14.86-65.43-10.51-98.44,9.82-14.48,25.79,6.6,22.91,18.76.54,40.12,8.14,80.9,22.14,117.97,11.25,29.8,28.23,57.09,36.35,88.14,2.12,9.95,8.55,19.58,5.91,30.12-6.42,16.56-22.01.73-29.65-5.87-25.96-17.43-44.53-43.98-66.67-66.04-1.11-.66-5.04-7.33-4.3-3.65.35,8.15,2.3,16.08,4.75,23.74,5.09,14.67,12.74,28.19,20.55,41.39,9.2,14.96,32.05,48.66,5.41,57.87-29.58-2.5-52.73-26.6-75.69-43.83-8-6.63-15.58-13.86-22.47-21.72.24,2.37,1.99,8.51,2.97,12.04,10.4,39.72,24.48,78.56,28.23,119.95.46,14.38,16.94,53.84-9.44,49.3-15.37-7.62-21.14-26.52-34.17-37.16Z"/><path class="cls-1" d="M3284.05,1008.66c-48.06-16.65-100.42-27.36-140.72-60.74-22.86-18.1-47.55-40.66-49.92-72.76-1.54-9.41,2.57-18.58,1.76-27.78-.22-9.94,11.4-18.85,18.85-10.52,12.15,11.32-.13,27.27,1.37,41.01,1.82,15.32,13.73,26.36,24.19,35.93,37.13,36.69,88.25,47.48,135.32,64.39,25.01,7.27,57.43,9.76,82.36,1.51,9.35-1.9,16.04,9.56,14.86,18.3.93,21.4-71.44,14.63-87.17,10.89-.33-.08-.62-.15-.9-.23Z"/><path class="cls-1" d="M3485.5,840.21c-12.8-14.44-32.51-4.36-47.34,1.64-42.44,15.22-21.54,51.1,6.59,67.23.53.19,1.08.36,1.63.49,2.62.62,5.42.46,7.72-1.43,1.96.18,4.05.68,6.23,1.2,4.12.98,8.51,2.02,12.73,1.12,42.19-9.41,42.68-44.99,12.44-70.25Z"/><path class="cls-1" d="M3238.65,707.48c-22.26-10.35-68.97,8.12-65.69,38.56,4.43,18.84,8.71,33.8,28.72,39.08.69.23,1.36.43,2.04.59,10.36,2.46,20.08-2.93,29.61-6.83,14.74-5.69,27.16-20.56,28.92-37,.69-15.44-12.53-26.63-23.61-34.4Z"/><path class="cls-1" d="M3239.22,863.48c6.89-13.57,20.15-21.23,31.24-30.58,13.43-11.63,27.82-21.76,43.09-30.5,5.72-2.83,9.45-10.76,16.55-9.06,8.88,1.76,12.02,13.08,8.01,20.97-1.39,2.83-4.08,5.12-7.15,5.49-5.58,4.24-11.69,7.6-17.63,11.24-11.51,6.76-21.64,15.63-32.02,24.08-9.23,7.7-20.37,13.99-25.33,25.77-9.46,14.33,42.64,1.63,48.43.59,12.06-3.8,20.6,15.61,9.52,22.53-18.24,4.26-37.85,10.3-56.46,6.86-.64-.12-1.27-.25-1.89-.4-21.29-5.06-30.59-27.6-16.36-47Z"/></g><g id="Image_6"><path class="cls-1" d="M2433.7,415.16c-3.4-.23-6.79-.54-10.19-.74-3.59-.21-7.18-.31-10.78-.39-6.92-.03-13.83-.14-20.74-.24-6.8-.09-13.6-.17-20.4-.32-2.93-.07-5.87-.31-8.8-.47-2.7-.15-5.4-.47-8.09-.71-2.73-.24-5.46-.44-8.19-.67-1.31-.1-2.63-.11-3.94-.17-1.39-.06-2.77-.11-4.15-.18-4.93-.05-9.85-.11-14.77-.18-4.55-.07-9.09-.29-13.62-.51-9.84-.48-19.68-.72-29.51-1.24-4.58-.24-9.16-.59-13.75-.79-4.97-.22-9.94-.46-14.91-.64-5.06-.19-10.11-.43-15.17-.68-4.76-.24-9.51-.63-14.26-.98-5.44-.4-10.88-.75-16.33-1.09-2.85-.18-5.7-.35-8.55-.53-.12,0-.24-.02-.36-.02-1.72-.12-3.45-.24-5.17-.37-.87-.06-1.73-.12-2.6-.18-.34-.02-.69-.05-1.03-.07,0,0,0,0,0,0-1.1-.07-2.2-.13-3.29-.17-.64,0-1.27,0-1.91.02-.43.36-.96.61-1.55.71-.17.03-.34.02-.52.02-.67-1.4-1.83-2.54-3.45-3.08-.02-.2-.03-.4-.01-.6.15-1.44,1-2.61,2.3-3.25-.19-.81-.32-1.63-.46-2.42-.27-1.53-.42-3.07-.56-4.61-.28-3.17-.3-6.32-.31-9.49,0-1.91-.06-3.81,0-5.71.09-2.67.19-5.34.29-8,.13-3.69.39-7.37.56-11.06.21-4.73.4-9.46.55-14.19.26-8.25.9-16.47,1.43-24.71.26-4.08.36-8.18.49-12.26.13-4,.2-8.01.4-12,.2-4.32.41-8.64.85-12.94.45-4.46.88-8.92,1.26-13.38.18-2.07.23-4.15.34-6.23.1-1.99.17-3.98.24-5.97.15-3.99.29-7.97.58-11.95.3-4.07.68-8.13,1.27-12.16.31-2.09.63-4.17.92-6.26.3-2.14.67-4.28.89-6.42.22-2.17.44-4.34.66-6.51.21-2.1.29-4.22.45-6.32.3-4.01.51-8.03.94-12.04.37-3.42.79-6.83,1.26-10.25-.38-.03-.75-.07-1.13-.1-3.31-.3-6.61-.61-9.93-.88-6.87-.55-13.74-1.01-20.64-1.3-6.37-.27-12.73-.51-19.1-.9-6.33-.38-12.67-.78-19.01-1.23-.16,0-.32-.02-.49-.03-1.04-.05-2.09-.13-3.13-.24-5.1-.41-10.19-.91-15.29-1.35-6.61-.58-13.22-1.04-19.84-1.41-3.08-.17-6.16-.32-9.23-.54-3.45-.24-6.88-.56-10.32-.88-2.84-.27-5.66-.64-8.49-1-.14-.02-.28-.03-.42-.05-3.51.11-6.93-.44-10.3-1.27-.02,0-.04,0-.06,0-7.78-.95-15.55-1.97-23.32-2.98-3.76-.49-7.55-.84-11.34-1.12-1.75-.13-3.51-.3-5.28-.37-2.23-.09-4.47-.17-6.7-.26-.84-.01-1.68-.02-2.52-.04-1.62.07-3.23.14-4.84.22-2.16.1-4.31.17-6.48.22-2.22.05-4.44.14-6.67.1-2.31-.04-4.62-.04-6.92-.14-2.39-.11-4.78-.24-7.17-.33-2.36-.1-4.74-.26-7.11-.28-2.38-.02-4.76-.03-7.13-.05-6.23.18-12.44.45-18.67.61-3.26.09-6.53-.17-9.78-.36-2.93-.18-5.84-.4-8.77-.58-6.55-.4-13.1-.8-19.65-1.2-.22-.01-.44-.03-.66-.04-4.85-.08-9.7-.16-14.54-.33-6.77-.24-13.53-.55-20.29-.91-6.8-.36-13.6-.73-20.39-1.12-4.64-.26-9.28-.6-13.92-.95-6.16.28-12.33.29-18.51-.44-8.4-.48-16.79-.21-25.19.04-10.78.34-21.54.68-32.3-.55-5.81-.72-11.57,0-17.32.73-5.2.65-10.39,1.31-15.62.9-9.38-1.42-18.75-2.98-28.08-4.77-.08,0-.15,0-.22,0-9.4.22-18.8.47-28.19.83-4.21.16-8.41.42-12.61.67-2.59.15-5.18.37-7.76.55-.66.05-1.32.09-1.99.13-4.96,25.64-2.38,52.53-3.04,78.69-.26,38.02-8.42,75.61-12.59,113.37-1.24,14.76.48,30.15-.66,44.82-.38,1-.54,2.03-.52,3.06-1.91.73-3.22,2-3.92,3.49-2.34-2.51-5.58-3.75-10.04-3.03-13.45.92-26.6-1.01-39.75-2.95-11.84-1.74-23.69-3.48-35.79-3.14-25.95-1.96-52.02-.81-78-.2-28.03-2.12-56.19-1.88-84.21-4.17-19.12-1.71-14.36,12.04-14.69,25.15.09,18.9-1.14,37.87.37,56.73,5.71,43.94.16,88.44,3.64,132.53.55,15.43-.43,30.92,1.1,46.31-.28,5.16.88,10.68,6.92,11.32.51.06,1.01.1,1.46.1,2,0,3.35-.62,4.24-1.64.53.36,1.09.68,1.7.91,18.26,1.45,36.71-2.5,55.01-2.93,11.95-.32,23.68,2.42,35.61,2.64,18.38.08,36.84.69,55.17-.53,6.58-1.2,13.19-1.3,19.75-1.89,2.86,3.53,7.69,6.33,12.2,5.89,8.97-.1,17.71-2.85,26.75-2.26,7.27-.13,14.5,2.63,21.74.82,18.47-.19,20.94-12.89,19.75-27.4,2.04-6.47-.39-15.65.6-21.93-.89-24.55.49-48.97,1.67-73.44.24-30.25-.42-60.52.34-90.76-.39-7.66,1.52-24.5-1.1-36.38.67.21,1.39.34,2.18.38.8.14,1.63-.02,2.44-.19.89-.18,1.76-.35,2.55-.14.93.34,1.87.63,2.83.89,0-.08.02-.15.03-.22-1.22-.25-2.41-.6-3.58-1.04-1.42-.53-2.85-1.45-3.83-2.62-1.06-1.26-1.76-2.61-1.73-4.3,0-.34.06-.67.15-1,0,0,0,0,0,0,.08-.27.18-.54.31-.8,0-.01.01-.02.02-.04.25-.5.6-.96,1-1.34.02-.02.05-.04.07-.06.2-.18.42-.35.64-.49.32-.22.66-.41,1.02-.56.4-.13.8-.26,1.21-.36.65-.18,1.36-.24,2.03-.32.77-.1,1.54-.17,2.31-.25,1.54-.16,3.09-.34,4.64-.48.04,0,.08,0,.12,0,3.29-.29,6.6-.46,9.9-.61.24-.01.48-.02.73-.03h-.06s.04,0,.07,0c-.03,0-.06,0-.08,0h-.02c2.25-.11,4.51-.25,6.77-.37,2.47-.13,4.95-.2,7.43-.31,6.86-.36,13.72-.63,20.59-.75,3.69-.06,7.37-.09,11.06-.11.82,0,1.65,0,2.47,0,1.01,0,2.02.01,3.04,0,.64,0,1.28-.02,1.93-.04,0,0,.01,0,.02,0,1.13-.03,2.27-.07,3.4-.12,2.65-.16,5.31-.3,7.97-.42,2.03-.1,4.05-.11,6.08-.11.92,0,1.83,0,2.75.01,2.77,0,5.53.07,8.3.1.93,0,1.86.01,2.78.01.04,0,.08,0,.12,0,1.98,0,3.95-.01,5.93-.01,5.42,0,10.83.1,16.24.31,5.45.21,10.9.37,16.35.52,5.86.16,11.71.37,17.57.49,4.84.11,9.69.21,14.54.34.41.01.82.02,1.23.03.97.03,1.93.05,2.9.07,0,0,0,0,.01-.01,4.83.11,9.66.18,14.49.16,2.57,0,5.14-.04,7.71.03,3.04.1,6.06.24,9.1.42,2.78.17,5.55.39,8.32.56,2.57.16,5.14.27,7.72.35,5.53.17,11.05.43,16.57.74.19.01.39.02.58.03,5.54.31,11.08.68,16.62.8,1.24.03,2.48.06,3.72.08.73.02,1.46.03,2.19.05,1.21.03,2.41.06,3.62.09,2.39.06,4.78.13,7.17.24,5.73.25,11.49.43,17.21.93.08,0,.16.01.25.02,5.82.52,11.64,1.12,17.46,1.61,10.95.76,21.92,1.46,32.89,1.46,1.22,0,2.45,0,3.67,0,4.49,0,8.99,0,13.48.09,5.46.11,10.92.36,16.37.75,5.61.41,11.23.9,16.85,1.28.67.04,1.33.08,2,.13,1.19.08,2.38.16,3.57.23.01,0,.03,0,.04,0,3.43.21,6.86.41,10.28.63,2.78.17,5.56.29,8.34.35,2.65.05,5.29,0,7.94-.02,5.3-.02,10.59.17,15.88.54,4.53.32,9.07.57,13.59,1.01.42-.89.66-1.85.72-2.81,10.43-.03,20.71,1.68,31.13,3.52,19.04-.65,37.29.61,55.96,1.53.07.43.16.85.26,1.27,2.05,5.31,1.68,15.52,5.05,21.05-.25,5.19-.49,10.37-.59,15.57-4.03,36.45-2.32,72.94-2.72,109.52-2.97,24.9-5.85,49.73-7.16,74.75-.64,6.66-1.3,13.33-1.95,19.99-.7,3.7-1.31,7.51-1.03,10.6-.23,2.45-.47,4.9-.69,7.35-.22.04-.43.08-.66.14-4.72,4.9-11.17,6.68-17.7,8.34-16.77,3.44-34.12,1.25-50.98,4.68-21.93-.16-43.73-1.71-65.47-4.63-15.27.27-30.31-1.33-45.48-2.39-19.38,1.03-38.57,3.66-58.01,3.41-4.47.28-7.91,1.66-10.56,3.81-2.63-.81-5.76-.38-8.23,2.09-7.75,12.63-3.74,28.09-4.57,41.97-2.14,12.76-4.23,25.54-4.64,38.48-2.54,36.67,2.26,73.19-.94,109.83-1.35,10.65-2.13,21.39-3.9,31.98-.85,4.65-2.49,10.84-2.13,16.11-1.43-2.22-3.41-3.99-5.85-4.91-.03-.15-.07-.3-.11-.44-3.03-.22-6.06-.42-9.09-.58-4.96,0-9.92.11-14.87.26-.73.45-1.52.8-2.33,1.08-2.77.97-5.7,1.15-8.59,1.42-2.74.28-5.47.55-8.23.68-2.38.1-4.76.13-7.14.13-.99,0-1.97,0-2.95,0-6.39-.02-12.77-.27-19.14-.63-3.29.2-6.58.35-9.87.41-3.7.06-7.39.12-11.09.06-3.4-.05-6.8-.18-10.2-.28.07,0,.13,0,.19,0-.16,0-.32-.01-.49-.02h-.02s.02,0,.03,0c-.01,0-.03,0-.05,0h-.03c-.05,0-.1,0-.16,0,.03,0,.06,0,.08,0,.02,0,.04,0,.05,0h-.06c-.05,0-.1,0-.15,0-1.52-.04-3.06-.09-4.58-.13-.14,0-.28,0-.41,0-4.18-.11-8.36-.22-12.55-.36-4.4-.15-8.77-.57-13.12-1.32-2.54-.44-5.08-.93-7.62-1.41-1.96-.28-3.94-.53-5.9-.81-.91-.13-1.84-.15-2.74-.22-1.47-.11-2.95-.23-4.42-.35-1.71-.13-3.42-.19-5.13-.26-2.37-.1-4.75-.22-7.12-.31-2.86-.08-5.72-.19-8.58-.3-.77,0-1.54-.01-2.31-.02-3.89-.04-7.78.1-11.66.16-4.04.06-8.08.15-12.12.15-6.77,0-13.54.05-20.31-.13,0,0,0,0,0,0-1.92-.06-3.84-.11-5.77-.17,0,0,.01,0,.02,0-2.61-.07-5.21-.19-7.82-.3-1.07-.05-2.13-.11-3.2-.2-.93-.07-1.84-.1-2.76-.31-1.14-.25-2.21-.94-2.91-1.88-3.6-.02-7.21-.02-10.79.21-.55,3.05-.3,6.62-.59,9.42-22.27,34.41-11,77.75-9.94,116.26,1.01,19.43-2.41,38.91-.41,58.31,1.83,13.53,5.43,26.84,6.23,40.53,1.84,5.6-.89,11.87-2.92,17.86-1.43,1.32-2.36,3.33-2.32,6.05-21.82.36-42.99-5.47-64.52-7.98-22.97-2.29-46.04-.75-69.04.56-25.96-.8-51.98-.97-77.89-1.62-11.01-.74-22.12-.1-33.1-1.03-9.02-.25-47.6-7.61-36.85,11.04-2.37,2.12-1.61,5.21-1.89,7.97-2.51,9.43-5.76,18.69-3.85,28.64-.05,1.55.6,3.18.78,4.74-5.05,24.39-5.53,49.45-2.22,74.22-.51,41.55,3.02,83.19.79,124.57.58,1.81,1.37,3.23,2.31,4.34-2.41,4.79,2.64,10.58,7.74,8.81,1.83-.66,3.28-2.64,5.37-1.5,10.31,4.09,17.32,4.58,28.19,3.45,19.06,3.36,38.27,3.52,57.18,7.81,23.41-2.43,47-5.47,70.34-1.02,5.76,0,11.5-.35,17.23-.71,10.08-.63,20.13-1.25,30.25.08,8.02-1.7,17.48-1.25,27.05-.81,7.4.34,14.87.69,21.81.04.04.53.08,1.05.1,1.57,1.14,14.49,2,29,2.46,43.53.84,40.67,1.09,81.38.47,122.05-1.03,19.19-5.14,38.35-2.42,57.6,1.93,11.45,3.48,22.96,3.05,34.6.6,5.94-2.51,14.7-.03,20.01-8.57,13.99,18.87,12.83,27.91,12.61,8.05-1.87,23.43,3.4,27.03-5.09.29.06.59.13.88.18,2.98-.05,5.95-.1,8.93-.14,9.29-.13,18.59-.22,27.88-.29,18.09-.14,36.16,1.12,54.22,1.87,7.55.31,15.09.5,22.64.57,9.11-.13,18.21-.52,27.32-.77,9.34-.25,18.68-.33,28.03-.4,8.98-.06,17.97-.07,26.95-.14,3.69-.03,7.37-.16,11.06-.31,4.12-1.74,8.33-3.09,12.89-2.95,7.79,1.02,11.9-.58,14.11-3.78.52.83,1.15,1.62,1.85,2.35.14-.98.29-1.96.44-2.94,27.95,5.39,56.27,7.42,84.68,4.66,8.42-.53,16.79.27,25.15,1.07,8.72.83,17.44,1.67,26.21,1,11.66-3.05,23.28-2.2,34.93-1.34,6.48.48,12.96.94,19.47.75,1.91.05,3.75.16,5.4.54,15.52,1.39,31.05,2.84,46.64,3.36,1.16.05,2.33.1,3.49.15.08,1.53.16,3.07.24,4.6,7.02.56,14.05.94,21.09,1.19,9.18.33,18.38.44,27.56.81,2.59.1,5.18.22,7.77.34,7.05-2.12,14.11-4.17,21.23-5.59,13.8,2.93,27.62,1.85,41.47.78,7.67-.59,15.35-1.19,23.04-1.1,3.92.17,7.83.33,11.74.48,13.67,1.71,27.38,3.09,41.2,3.46,7.3.21,37.95,3.07,40.66-5.39,11.4-2.23,13.65-13.24,14.23-23.78,5.55-5.95,2.76-22.96,4.87-30.68,6.41-50.52,4.44-101.38,4.91-152.16.11-17.54,3.68-34.81,4.9-52.27,1.02-22.44-1.25-44.95,2.35-67.23.21-57.07,4.3-113.97,5.63-171.03,2.07-70.08,9.53-139.78,15.24-209.57.12-6.13.24-12.26.35-18.4.77-40.32,1.61-80.64,2.42-120.96.46-22.92.92-45.85,1.38-68.78,0-.02,0-.03,0-.05.37-18.78.75-37.57,1.12-56.35.81-40.88,1.62-81.76,2.45-122.64.85-41.49,1.69-82.98,2.54-124.47.42-20.38.83-40.76,1.25-61.14,0,0,0,0,0,0,.09-4.47.18-8.93.27-13.4,0,0,0,0,0,0,.06-2.9.12-5.8.18-8.71-.74-.05-1.47-.1-2.21-.15ZM1612.72,1421.08c-.23-.88-.28-1.8-.14-2.73.19-1.27.61-2.51.97-3.75,0,0,0,0,0,0,.03-.12.06-.23.09-.35.06-.2.12-.4.17-.6.04-.19.07-.37.1-.56,0-.04.02-.08.02-.12h0s0-.05,0-.07c-.08-1.28-.15-2.52.06-3.8.02-.11.04-.21.06-.32.06-.33.13-.66.21-.99.05-.19.1-.37.15-.56.07-.26.15-.52.24-.77.06-.18.13-.37.2-.55.11-.28.22-.55.34-.82.06-.15.12-.3.19-.44.2-.43.42-.86.66-1.28,0,0,0-.01.01-.02.17-1.91.16-4.07.01-6.54,5.43-72.33,10.91-144.84,10.89-217.44,6.61,2.03,13.38,3.49,20.24,4.52.02,0,.03,0,.05,0,3.07-.41,6.14-.67,9.23-.85.76-.04,1.53-.09,2.28-.12,1.4-.31,2.79-.58,4.21-.81,1.16-.18,2.29.09,3.37.48,4.55-.17,9.09-.35,13.64-.51,3.53-.13,7.07-.13,10.6-.19,5.25-.09,10.51-.18,15.76-.27,9.15-.15,18.32-.15,27.48-.21,4.51-.03,9.02-.06,13.53-.08,4.99-.53,10-.79,15.01-.32,1.2-.09,2.4-.18,3.6-.26,1.88-.13,3.77-.17,5.65-.24,1.76-.07,3.52-.16,5.29-.16,2.62,0,5.24,0,7.86,0,1.68,0,3.37.12,5.05.2,4.4.19,8.8.43,13.2.69,1.37.08,2.74.15,4.11.22,1.63.02,3.25.05,4.88.08.54,0,1.08.02,1.62.03,6.97-2.39,13.88-4.46,20.85-2.63,2.53,1.64,5.18,2.61,7.78,3.05,1.72-.08,3.44-.17,5.15-.25,1.13-.05,2.27-.07,3.4-.09,3.33-.83,6.12-2.42,7.84-4.26,0,1.36.06,2.73.2,4.07.55-.01,1.11-.02,1.65-.04.35,0,.71-.01,1.06-.02.63.36,1.38.66,2.27.89,1.77.31,3.23-.08,4.44-.98.48,0,.97-.01,1.45-.01.07-.57.14-1.15.21-1.72,5.23-7.46,3.98-27.57,5.17-34.13,1.12-24.36,1.48-48.75,3.6-73.03,1.8-44.87,20.28-90.16,13.83-134.97.66.26,1.38.48,2.17.65,2.74.45,5.24-.96,6.61-3.01,2.95.13,5.89.27,8.84.44,4.34.25,8.68.35,13.02.51,3.97.15,7.94.2,11.92.2,3.58,0,7.16.09,10.74.25,3.53.16,7.06.28,10.59.34,8.5-.08,17-.42,25.5-.62,8.45-.2,16.9-.2,25.35-.31,3.18-.04,6.37,0,9.56.01,1.75,0,3.51.16,5.26.24,1.33.06,2.65.1,3.97.24,2.13.21,4.26.43,6.38.65,1.58.16,3.15.43,4.71.67,3.17.47,6.35.96,9.52,1.46,2.3.27,4.6.61,6.92.79,7.64-.82,15.35-1.09,24.07.19,5.53-.2,11.06-.44,16.58-.66,3.05-.11,6.09-.21,9.13-.27,2.34-.04,4.68-.1,7.01-.15.37-.01.73-.03,1.1-.04,2.65-.79,5.31-1.6,7.97-2.32.01.72.08,1.44.19,2.15,3.09-.04,6.18-.08,9.26-.24,2.51-.13,5.01-.29,7.52-.48,1.1-.08,2.19-.18,3.29-.27.44-.04.88-.08,1.32-.1.46-.03.92-.06,1.39-.07.69-.03,1.31.12,1.96.3,1.6.45,2.56,1.81,2.8,3.3.34-.28.63-.6.87-.95.86.03,1.74.1,2.63.17.38,23.39,2.67,46.81,1.88,70.22.92,54.28-2.37,108.46-6.84,162.48-.05-.04-.1-.08-.16-.12.02.52.03,1.04.04,1.56-.7,8.44-1.42,16.87-2.17,25.29-6.61,48.17-6.88,96.97-12.15,145.26-2.79,22.16-4.18,44.44-5.3,66.74.03,0,.05,0,.08,0,.06,2.71.67,5.57.94,7.87-.7,3.04-1.41,6.07-2.12,9.11-1.15,0-2.3.02-3.45.03h-.11c-.67.16-1.35.29-2.03.4-.66.11-1.3,0-1.87-.29-1.6.03-3.2.07-4.8.1-2.36.03-4.72.05-7.09.08-5.67.05-11.33.1-17,.16-5.08.05-10.16.17-15.24.26-4.79.09-9.59.37-14.38.55.18,0,.36-.01.53-.02-11.93.61-23.86,1.06-35.8,1.32-2.83.06-5.67.09-8.5.13-2.59.03-5.19.07-7.79,0-5.61-.13-11.2-.35-16.81-.65-.39-.02-.78-.04-1.17-.06-.67.05-1.33.1-2,.14-2.65.16-5.3.35-7.96.48-.95.05-1.9.1-2.85.14-.51.03-1.02.05-1.53.08-.63.03-1.27.1-1.9.11-.54.04-1.09.04-1.63.07-.83.04-1.66.07-2.5.1-3.47.13-6.94.27-10.4.4-2.88.1-5.78.09-8.66.13-2.33.03-4.65.07-6.97.08-10.68.04-21.35.08-32.04.28-5.81.11-11.62.24-17.44.38-4.22.1-8.44.2-12.67.2-.65,0-1.3,0-1.95-.01-3.66-.04-7.32-.07-10.97-.11-.99,0-1.99-.1-2.98-.15-2.12-.11-4.24-.22-6.35-.32-5.15-.26-10.28-.8-15.41-1.25-2.85-.25-5.69-.57-8.54-.74-3.55-.2-7.09-.42-10.64-.63-2.44-.14-4.88-.17-7.32-.25-2.59-.08-5.19-.18-7.77-.23-5.63-.1-11.27-.18-16.89-.37-3.72-.12-7.44-.25-11.16-.38-1.3-.04-2.59-.11-3.88-.2-9.67.09-19.35.13-29.01-.24.22,0,.45.02.67.03-6.01-.23-12.02-.51-18.03-.71-5.25-.18-10.51-.19-15.76-.38-3.17-.11-6.33-.27-9.5-.48-2.81-.18-5.61-.39-8.41-.59-3.13-.22-6.28-.31-9.41-.46-2.65-.13-5.3-.23-7.95-.33-8.84-.36-17.7-.69-26.55-.66-.21,0-.42.02-.63.03-1.06.05-2.13.1-3.19.15-1.36.06-2.77.25-4.11-.02,0,0-.02,0-.03,0-4.08.18-8.15.51-12.24.63-2.53.08-5.07.04-7.6-.1-1.23-.07-2.52-.22-3.73-.51-1.11-.27-2.19-.62-3.28-.95-.48.21-1.01.31-1.53.31-.83,0-1.67-.27-2.33-.78-.41.02-.81.04-1.22.08-1.23.12-2.4-.34-3.3-1.11.99-.52,1.97-1.08,2.9-1.72ZM2415.13,943.42c.3-3.14.65-5.49,1.1-6.78-.25-5.43-.42-10.86-.55-16.28.67-.56,1.24-1.22,1.73-1.97-.45,10.6-1.08,21.05-1.96,31.14-.15-2.04-.25-4.07-.31-6.1Z"/><path class="cls-1" d="M2440.88,645.77c.33-.99.62-2.06.87-3.23-.3-.26-.56-.56-.77-.9-.03,1.38-.07,2.75-.1,4.13Z"/><path class="cls-1" d="M2446.54,415.56c-.08,0-.16,0-.23,0-.54,23.09-1.08,46.19-1.62,69.29.28-.2.58-.37.89-.52-.59-22.18.13-44.45.89-66.5.09-.77.11-1.53.08-2.27Z"/><path class="cls-1" d="M1647.97,407.4c-.24,0-.49.02-.73.03.9.19,1.71.62,2.3,1.27,1.87-.48,3.73-1.05,5.59-1.59-2.39.09-4.77.18-7.16.29Z"/><path class="cls-1" d="M2187.41,353.17c-.02-.15-.04-.3-.06-.45-.01.17-.03.35-.04.52.03-.02.07-.05.1-.07Z"/><path class="cls-1" d="M1865.97,1198.04c-.39.05-.78.1-1.17.15.12.57.22,1.14.29,1.72.29-.62.59-1.25.88-1.87Z"/><path class="cls-1" d="M1908.43,1418.98c-2.78-.42-5.14-.37-7.09.02,2.75.12,5.51.22,8.27.31-.39-.1-.78-.21-1.17-.33Z"/><path class="cls-1" d="M1877.66,1416.82c-.1-.12-.2-.24-.3-.37-.21-.26-.42-.53-.63-.8-.05-.06-.1-.13-.14-.19,0,.07,0,.14,0,.2,0,0-.02,0-.03,0-1.85.35-3.15,1.3-3.92,2.53,2.1.01,4.21.03,6.31.06-.45-.46-.88-.94-1.29-1.44Z"/><path class="cls-1" d="M2197.67,390.9c-.03.33-.06.67-.08,1,.22-.04.44-.08.67-.11-.23-.27-.43-.57-.58-.89Z"/></g></svg>