<?xml version="1.0" encoding="UTF-8"?><svg xmlns="http://www.w3.org/2000/svg" width="3840" height="1920" viewBox="0 0 3840 1920"><defs><style>.cls-1{fill:#000;}.cls-1,.cls-2,.cls-3{stroke-width:0px;}.cls-2{fill:#fff;}.cls-3{fill:#5b5d63;}</style></defs><g id="Image_9"><path class="cls-3" d="M1260.3,1981.33c-14.2-1.4-12.11-16.86-13.25-26.42,0-.05,0-.1-.01-.15H-121.38V476.57c-14.52-3.56-32.88-9.33-34.47-24.09,4.22-13.81,21.73-2.46,31.19-.86,1.1-.09,2.19-.18,3.28-.27,4.78-.4,9.55-.77,14.31-.85,1.38-10.08,18.69-17.59,29.92-7.06,32.26,1.94,65.49,6.26,95.27,18.24,14.82,6.42,28.73,14.72,44.32,19.59,34.54,9.12,61.52,33.05,96.25,41.48,46.18,8.01,82.27,36.69,123.34,55.47,26.94,14.22,57.43,21.85,84,36.68,19.93,11,35.33,27.34,54.34,39.45,26.33,15.99,57.88,23.03,83.81,39.71,25.89,18.73,58,28.59,83,48.28,14.36,11.45,27.07,24.81,43.24,34.25,12.61,7.53,25.14,15.23,36.58,24.21,34.92,30.63,75.71,55.36,108.78,87.68,28.53,29.85,53.93,61.96,83.27,91.2,7.47,9.33,18.26,15.34,27.98,22.46,8.33,6.36,14.28,14.7,20.88,22.46,13.68,13.76,26.63,28.06,35.76,44.79,18.78,30.46,40.29,59.24,57.54,90.51,16.52,24.01,36.32,46.22,47.61,72.95,16.88,35.94,29.59,73.3,42.42,110.56,14.16,37.81,28.92,75.45,43.6,113.11,26.76,67.81,53.65,135.59,79,203.86,14.68,45.63,23.6,92.65,34.35,139.14,6.24,24.27,9.78,48.93,12.35,73.72,1.54,11.06,2.71,22.16,4.07,33.24,4.6,13.18,3.54,28.3,5.67,41.8,1.99,1.49,3.42,3.78,4.28,6.5,3.3,10.32-1.43,26.61-13.2,26.61-.34,0-.68-.01-1.03-.04Z"/><path class="cls-3" d="M1265.59,1959.37c-14.37-3.51-14.6-22.84-13.58-33.91.73-28.21.42-56.43.45-84.64.49-18.57-.51-37.04-3.71-55.4-3.48-38.07-5.68-76.29-6.91-114.48-2.17-28.05-1.06-56.32-5.45-84.19-7.66-45.79-14.18-91.9-13.23-138.32,2.18-61.89-3.59-123.25-15.15-184.19-4.89-39.26-1.81-79.88-13.29-118.1-.06-9.15,13.36-14.26,20.28-7.35,7.63,8.7,6.86,21.05,9,31.55,3.8,26.03,4.3,52.26,6.14,78.43,2.66,32.86,11.71,65.04,14.19,97.9,4.09,46.64,1.33,93.43,3.24,140.13,1.95,36.79,8.88,73.09,14.01,109.56,4.3,61.37,4.58,123.02,10.37,184.32,7.47,48.41,3.55,97.65,3.67,146.4-.05,4.21-1.51,8.49.67,12.43,5.39,7.78,2.25,19.98-8.77,19.98-.62,0-1.26-.04-1.93-.12Z"/><path class="cls-3" d="M1215.88,1181.93c-19.64-.51-36.31-17.28-36.84-34.87-1.42-18.33,19.74-46.88,41.59-34.17,21.56-.13,30.56,17.2,29.18,34.53-1.37,17.27-13.03,34.53-32.83,34.53-.37,0-.74,0-1.11-.02Z"/><path class="cls-3" d="M736.25,566.89c-30.54-7.16-58.89-21.58-90.5-25.11-21.2-2.32-41.51-8.13-62.63-10.74-25.11-3.64-50.81-3.01-76.09-5.14-28.99-2.42-53.7-20.41-83.1-19.98-19.96.5-39.34-3.93-59.11-5.03-5.32,0-10.65,0-15.98,0-41.88.03-84.01.07-125.32-6.27-11.73-2.34-22.56-7.92-34.61-8.86-20.78-.85-41.74.23-62.33-3.04-20.12-3.38-40.63-3.34-60.89-5.51-29.22-4.57-58.35-9.51-87.81-12.73-15.52-1.95-31.09-3.9-46.17-7.84-4.76,1.24-10.5,1.51-15.41-.06-21.16-5.12-21.17-28.22,4.27-24.65,28.98,7.21,58.69,10.72,88.47,14.31,30.62,4.45,60.88,10.31,91.99,11.12,14.74,1.27,29.24,4.33,44.07,4.71,23.14.67,46.94-.98,68.85,7.26,30.81,8.47,64.43,8.41,97.25,8.35,9.97-.02,19.87-.03,29.6.19,24.31-1.58,47.84,4.98,72.04,4.98,20.06-1.22,38.32,4.73,56.55,10.68,18.33,5.98,36.63,11.96,56.66,10.66,18.81,1.61,37.89,1.48,56.5,4.58,25.06,3.51,49.51,9.47,74.65,12.76,28.56,4.74,55.08,16.2,82.56,24.33,15.66,4.6,17.56,21.26.17,21.27-1.15,0-2.38-.07-3.71-.23Z"/><path class="cls-3" d="M766.07,598.14c-11.84-6.08-25.35-12.39-29.1-25.47-5.9-16.7,1.72-48.89,24.47-50.28,15.41-9.93,37.48-1.32,42.97,14.51,1.54,5.1,7.34,8.08,8.53,13.55,6.22,20.41-11.24,50.06-35.14,50.06-3.77,0-7.7-.74-11.73-2.37Z"/></g><g id="Image_10"><path class="cls-1" d="M1514.27,1336.88c.31,18.27.38,36.53.21,54.8-.88,12,2.17,27.67-9.13,35.52-12.52,8.53-18.8,15.12-35.53,13.6-21.49.56-42.93-1.37-64.41-1.23-20.76-1.03-41.25,1.14-61.77,3.79-39.87.95-79.66,4.05-119.59,3.18-55.91.43-111.94-2.7-167.7,2.29-17.7.36-35.37-1-53.07-.75-19.99.37-39.82,3.54-59.83,3.05-35.71-3.09-71.4.38-107.15-.15-41.8-1.16-83.57-3.37-125.39-3.88-30.1-.83-58.4-14.66-88.85-10.79-29.99,1.61-59.39-4.6-89.1-7.35-7.93-.62-15.8-1.88-23.73-2.52-8.77-.85-20.49,1.15-25.57-7.83-1.34-2.52-1.5-5.39-1.41-8.18.6-22.14.2-44.29.31-66.43.89-36.05-2.11-72-2.34-108.03-1.09-105.27,2.24-210.5,1.75-315.76-3.88-93.98-5.87-188.02-3.67-282.11-.97-35.31-5.07-70.44-6.5-105.75-1.35-16.52-1.79-33.12-1.26-49.69.1-6.13-.12-12.59,3.64-17.8,3.77-6.28,10-6.47,15-3.79,7.08,3.81,11.68,13.41,3.31,19.7-.57,2.15-.96,4.41-1.2,6.75-1.23,11.54.9,24.9.8,36.61,1.94,38.85,6.18,77.55,7.12,116.43-1.2,70.24-1.3,140.52.76,210.74,5.7,82.03,2.25,164.37,1.16,246.5-1.59,102.14,3.07,204.15,2.25,306.27.16.26-.57,2.53.41,2.05,13.12.56,26.12,2.7,39.22,3.64,18.71,1.88,37.19,5.8,56.03,6.37,16.51,1.05,33.05-.93,49.55.18,18.99,1.62,36.95,9.18,56.03,10.32,31.45,1.36,62.95,1.55,94.41,3.05,34.3,2.12,68.6,1.19,102.91-.04,23.84-.21,47.66,3.11,71.44.15,26.71-3.12,53.55-.86,80.34-.97,42.39-4.04,84.91-2.48,127.43-2.46,48.49.33,96.97.52,145.36-2.78,25.25.18,49.97-5.88,75.34-4.03,21.82-.3,43.59,1.76,65.42,1.24,3.86,0,7.89.31,11.68-.5,5.13-1.94,8.29-7.2,13.52-9.22,2.62-29.29.75-58.94.66-88.34-1.29-37.49,1.32-75.17-1.53-112.57-5.68-40.47-10.55-81.08-14.22-121.79-1.46-25.89-1.03-51.89-3.76-77.7-4.75-36.3-2.6-72.93-3.73-109.41-.92-23.2-3.81-46.28-4.01-69.51-1.16-47.74,3.87-95.39,1.91-143.15-.06-29.21-3.41-58.24-4.57-87.39-.3-41.89-.98-83.78-1.24-125.68-1.05-13.37-2-26.71-.29-39.91.54-4.16,1.34-8.3,2.49-12.42.21-3.44,2.13-6.04,4.74-7.58,4.49-2.64,11.02-2.11,14.3,2.82,5.33,10.48-4,22.57-1.67,33.84,2.19,35.19,1.43,70.51,2.25,105.76-.43,71.6,9.14,143.01,3.83,214.66-3.45,46.3,1.5,92.42,3.43,138.62-.02,36.28-.18,72.53,4.32,108.59,1.66,64.68,8.27,128.92,17.44,192.93,2.15,41.27.02,82.7,1.44,124.02Z"/><path class="cls-1" d="M1452.71,414.99c7.55,3.21,13.08,14,7.44,20.71-.27.33-.58.65-.91.96-4.26,3.26-9.91.5-14.82,1.25-12.72-.04-25.46.16-38.17-.3-66.6-2.75-133.46-5.07-200.03-.68-45.05,3.36-89.11,13.85-133.94,18.86-55.53,3.71-110.93,9.09-166.28,14.88-22.32,2.18-44.89.92-67.14,3.95-77.85,9.05-156.07,16.29-234.45,18.96-36.96,1-73.33-6.49-110.14-7.96-.97.86-1.98,1.49-2.99,1.91-10.89,4.61-23.1-13.92-14.34-23.13,3.51-2.75,7.77-3.4,12.23-3.31,5.38.1,11.05,1.27,16.03,1.08,28.36,2.23,56.52,7.3,85.04,7,72.57-.47,144.65-9.55,216.87-15.5,38.51-7,77.76-4.58,116.46-9.68,50.8-6.23,101.94-8.84,152.84-13.74,26.86-3.75,53.5-8.93,80.34-12.8,91.67-13.23,184.46-4.57,276.6-3.83,5.99.28,12.16-.77,17.98.9.46.14.93.3,1.38.5Z"/><path class="cls-1" d="M951.13,955.46c-22.4-3.92-18.04-28.39-7.07-41.41,6.26-6.37,18.64-1.83,19.41,7.07.41,3.52-.61,7-2.48,9.94-.32,2.49-.48,5.16-1.94,7.34,7.79,6.27,1.78,18.74-7.92,17.06Z"/><path class="cls-1" d="M957.64,977.19c-8.41-1.24-15.33-8.93-14.86-17.55-1.36-5.74-2.5-11.76-.37-17.52,0-5.58-4.53-8.98-1.57-15.33,5.3-11.69,17.61-15.05,29.03-10.17,22.55-4.65,42.51,23.99,15.22,33.85-1.17,3.88-2.93,7.57-4.96,11.08,2.65,6.9-4.03,13.53-10.93,12.42-3.33,2.45-7.47,3.65-11.56,3.21Z"/><path class="cls-1" d="M1469.2,438.58c-1.53-.25-2.95-.55-4.35-1.23-1-.49-1.77-1.26-2.73-1.77-9.3,1.41-16.75-8.72-12.49-17.15,11.51-19.03,50.35,17.23,19.57,20.15Z"/><path class="cls-1" d="M2599.5,1440.84c-45.46-1.75-90.95-1.7-136.43-1.65-21.67.02-43.34.04-65.02-.12-13.5-.09-27.07-.21-40.4-2.59-11.21-3.25-22.57-2.18-33.62,1.2-14.19,4.59-18.91-14.42-7.43-18.98-8.23-2.31-9.1-11.17-7.8-19.02.66-16.53-.11-33.06-1.07-49.55-.46-55.59.16-111.19-.32-166.79-2.58-61.41-1.05-122.88-3.98-184.28.98-64.41.42-128.79.3-193.19,2.98-45.29.82-90.62,1.11-135.94,6.09-72.37,11.86-144.86,10.55-217.62-1.74-9.52,6.36-15.16,13.82-13.36-.92-6.8,3.81-13.91,12.47-11.25,32.15,9.71,65.34,15.2,99.04,13.21,40.36-1.17,80.73-2.4,121.11-.75,49.41,1.84,98.93,3.82,148.34,1.13,34.46-2.02,68.69-7.47,103.29-6.87,82.57,3.51,165.29,3.02,247.92,1.55,55.31-4.25,110.77-7.15,166.26-7.51,10.56.19,21.15-.14,31.75-.47,9.91-.3,19.82-.61,29.7-.5,2.46-.8,5.09-.64,7.58.18,3.29.12,6.57.3,9.85.55,10.29,3.31,10.89,18.15,1.78,20.91.18,37.66,5.79,74.96,9.81,112.35,3.77,63.74,2.37,127.69,2.38,191.52,1.95,42.71,5.92,85.45,3.94,128.25-3.27,32.89-7.89,65.6-8.24,98.73-1.89,26.88-6.66,53.53-7.26,80.53-2.69,49.71,5.58,99.04,10.02,148.41,4.46,44.7,4.81,89.62,6.86,134.45.46,8.74-.29,17.59.91,26.27,1.71,9.91,11.25,30.63-5.9,29.8-5.98-.88-10.01-4.35-12.53-8.94-2.91.11-5.73.1-8.2.08-1.14,0-2.2-.01-3.15,0-48.58.64-97.16,2.6-145.73,3.52-46.31,3.34-92.16,11.27-138.46,14.84-51.47,4.06-101.96,15.62-153.35,20.13-46.04.39-91.8,5.14-137.77,6.97-21.55-.68-43,.82-64.45,2.32-17.81,1.24-35.62,2.49-53.48,2.49-1.38,0-2.76,0-4.14-.02ZM2792.26,906.76c-1.92.86-3.7,1.99-5.28,3.35-1.6.96-3.1,2.11-4.45,3.47-1.89,1.91-3.59,3.98-4.97,6.3-2.86,4.77-4.66,10.86-3.61,16.43.69,3.71,1.89,7.25,4.24,10.27,2.25,2.89,5.3,5.28,8.7,6.66,2.67,1.09,5.39,1.59,8.11,1.59,3.89,0,7.76-1.05,11.39-2.91,5.64-2.89,10.19-7.96,12.82-13.82.72-1.36,1.3-2.8,1.69-4.37.24-.96.4-1.93.48-2.9.25-1.56.35-3.14.3-4.71-.22-7.47-4.15-14.47-10.57-18.34-3.13-1.89-6.73-2.82-10.35-2.82-2.91,0-5.82.6-8.5,1.79Z"/></g><g id="Image_11"><path class="cls-3" d="M3864.91,408.01c3.48,4.59,4.14,12.12,1.02,16.62.16.93.32,1.86.5,2.79-1.55.39-3.09.75-4.59,1.09v1538.52h-1531.11s-.01.1-.02.16c-1.27,9.95,1.07,26.04-14.82,27.49-.39.03-.77.05-1.15.05-12.32,0-17.75-14.82-15.38-25.53-5.12-4.18-5.66-12.28-1.37-18.05,2.43-4.1.79-8.55.74-12.94.02-6.07-.03-12.14-.11-18.22-.14-9.83-.36-19.68-.55-29.52.11.02.23.05.35.07.96.19,1.92.28,2.86.28,2.5,0,4.89-.63,7.12-1.71-.02-.23-.04-.47-.05-.7-2.04-21.59.48-43.26-.84-64.85-1.91-23.48,1.52-46.81,3.93-70.09.11-30.92-4.78-61.64-4.33-92.61-4.4-115.96-3.11-232.11-1.71-348.05-1.29-47.06-7.24-94.32-.72-141.38,1.59-31.06-1.79-62.3-.21-93.48,1.24-20.84.57-41.83.95-62.7-6.76-7.1-8.05-20.23-9.4-29.5-16.35-22.74-15-67.68,23.43-54.95,76.55-.32,43.34,72.76,7.47,71.29,0,1.46,0,2.93,0,4.39,1.05,3.29,1.09,6.38-.03,8.8-.2,33.41-1.27,66.8-1.25,100.21-.73,21.32,3.15,42.6-.44,63.79-4.86,42.02-.42,84.15,1.68,126.1-1.71,106.27-1.86,212.62.18,318.94,1.03,37.19,2.69,74.29,5.35,111.4,4.15-18.62,8.5-37.2,12.23-55.86,11.29-37.68,19.55-76.27,29.35-114.37-4.08-3.41-5.96-8.75-3.6-14.8,1.34-8.49,2.09-17.07,4.04-25.45,11.88-48.68,36.29-93.26,49.52-141.53,9.15-27.5,18.78-53.58,26.38-81.66,6.45-16.08,12.34-32.37,17.69-48.84,6.72-16.51,15.21-32.24,22.12-48.68,12.09-25.52,25.94-50.29,40.51-74.47,15.55-23.01,31.9-45.36,45.07-69.89,27.09-40.32,54.75-80.23,86.65-116.99,32.39-35.81,64.18-72.64,100.25-104.81,21.77-17.68,39.83-39.25,61.87-56.64,39.02-30.18,76.2-63.18,119.07-87.96,30.86-18.47,61.96-36.36,93.96-52.81,25.07-13.29,52.88-20.22,78.04-33.32,70.43-36.49,146.88-58.32,220.44-87.35,79.78-30.23,162.32-52.11,246.62-65.23,13.62-1.91,26.79-5.68,39.96-9.49,2.46-1.12,4.95-2.21,7.45-3.27-8.84.59-17.66,1.31-26.48,2.23-124.11,5.42-248.51-.78-372.36,10.58-110.43,2.55-221.06-2.17-331.43,2.84-5.11,9.92-14.62,17.94-25.72,19.03-7.45.77-15.46,4.05-22.22-1.25-1.47,2.71-4.48,3.95-7.42,3.72-18.27-5.39-15.42-36.5-5.07-48.18,7.4-8.81,19.28-11.13,30.17-11.52,7.14-1.86,15.1-3.18,21.85.98,4.83,2.81,8.12,6.52,10.09,10.68,100.12-1.69,202.15-1.6,302.77-1.48,51.5-.66,102.64-8.11,154.2-7.71,84.12-.79,168.37.39,252.39-4.27,33.9-3.36,67.88-4.27,101.9-5.1,17.14-1.14,33.98-4.97,51.14-5.97,7.02-.47,14.05-.55,21.09-.58.76-.12,1.52-.24,2.27-.36,2.11-.34,4.22-.7,6.31-1.12,1.61-.32,3.23-.64,4.84-.96,3.51-.7,7.01-1.39,10.52-2.09,3.23-.64,6.47-1.29,9.7-1.94,2.42-.49,4.84-.98,7.26-1.48,1.38-.29,2.76-.57,4.14-.86,1.38-.29,2.76-.57,4.14-.86.66-.14,1.31-.27,1.97-.41,1.31-.27,2.62-.54,3.94-.81.79-.16,1.58-.32,2.38-.48,1.86,1.9,3.1,4.12,3.45,6.46,5.32.07,10.66.47,16.01.88.57.05,1.14.09,1.72.12.09,1.36.18,2.72.29,4.07.38.46.74.98,1.07,1.55Z"/><path class="cls-2" d="M2800.41,985.48c-16.18.3-31.26-13.85-26.97-30.59-.89-7.43-.71-15.28,3.19-22.04,9.56-23.71,50.53-33.86,56.14-2.38,9.92,9.01,6.33,24.46-2.59,32.8-3.95,12.77-15.96,23.02-29.76,22.21Z"/></g></svg>