<?xml version="1.0" encoding="UTF-8"?><svg xmlns="http://www.w3.org/2000/svg" width="3840" height="1920" viewBox="0 0 3840 1920"><defs><style>.cls-1{fill:#000;}.cls-1,.cls-2{stroke-width:0px;}.cls-2{fill:#5b5d63;}</style></defs><g id="Layer_13"><path class="cls-2" d="M1591.75,632.53c.51,20.7,2.99,41.32,2.22,62.05-2.73,75.46-1.52,151.23-8.3,226.48-3.1,43.11,8.71,86.45,7.8,129.64-3.79,47.67,6.79,95.45,4.95,143.21-2.73,107.93-.84,215.93-.89,323.88-.6,27.69,3.24,56.08-.33,83.42-9.83,23.04-47.72,24.39-68.98,21.73-28.52-6.28-57.64-10.33-83.94-23.63-12.81-.07-25.67-.39-38.48-.66-14.49,2.09-28.87,4.82-43.53,5.6-13.77.88-21.13-17.81-10.6-26.68,6.17-8.6,6.65-19.66,7.31-29.86.93-43.94-8.43-87.23-11.41-130.93-.95-49.47-13.5-97.66-16.63-146.97-1.8-26.73.79-53.52-.38-80.25-18.48.52-36.91-.83-54.83-5.88-24.31-6.58-53.82,4.84-78.69,3.57-24.11-1.14-39.43,5.35-64.99,13.16-30.21,4.11-102.08-21.31-129.58-4.93-11.82,5.6-19.4-6.19-32.16-5.21-12.94,1.04-24.89,5.96-36.66,10.35-2.04,2.89-5.09,5.07-8.46,6.05-.84,6.54-6.3,12.12-12.86,12.93,2.59,47.06,6.03,94.14,5.14,141.3-.83,35.88-5.42,71.63-4.71,107.57.41,33.39,5.33,66.59,4.2,100.05-1.93,25.61,10.75,75.06-29.74,72.08-28.77-2.79-18.84-3.1-46.48-8.99-22.28-3.3-45.06-1.94-67.11-7.01-21.5-4.08-43.61-2.26-64.97-7.56-11.69-1.93-24.02-3.7-34.78-8.74-2.15,6.59-8.44,11.96-16.04,10.84-32.84-10.63-22.79-64-21.16-90.75,3.02-30.4,1.3-61.19,8.94-91.05,5.42-38.87,5.16-78.11,4.31-117.27-.88-111.93,1.57-224-.06-336.02-3.93-89.9-5.44-179.9-6.11-269.95-.96-83.8-9.96-167.72-4.29-251.48,3.39-17.68-2.21-50.82,17.41-58.6,29.02-2.48,58.7-3.04,88.07-2.12,24.79,1.63,49.44-1.51,74.18-1.76,28.66-.33,56.79,6.1,85.48,4.79,2.74.26,5.61.22,8.53.09,14.81-21.34,37.93-1.21,33.11,14.16.29,4.11-1.01,8.32-3.96,11.39-2.21,2.29-4.78,3.6-7.57,4.32-5.79,34.59-2.36,70.22,2.39,104.75,3.7,32.8,2.33,65.89,2.38,98.83-.34,43.96,4.67,87.78,3.29,131.81,1.62,28.72-3.77,108.97-5.3,137.5.24-.02.48-.02.72-.03,9.15-.31-5.05,10.16-6.41,19.32-.91,16.69,17.03,31.07,16.82,47.85.04.25.08.49.12.73,16.78-.34,33.89,1.89,50.47,2.11,17.64,1.01,34.61-4.96,52.14-5.67,17.95-1.07,35.96.28,53.94-.39,11.69-.63,23.57.68,35.1-1.73,8.55-2.29,16.46-6.39,25.07-8.52,18.9-4.32,38.52-1.77,57.43-6.39,19.8-.61,36.86-11.36,56.09-14.39,22.84-2.12,45.83-1.34,68.69-3.63-1.66-74.71,3.32-201.25,3.05-275.96.46-27.02,4.16-54.03,2.47-81.06-6.42-34.73-7.56-70.36-5.88-105.54,1.17-5.9.03-12.97.03-19.5-9.64-8.75-13.83-25.11-1.25-32.89,2.53-1.64,5.74-2.45,8.75-2.57,18.11-.89,36.12-3.14,54.27-3.41,21.05,0,41.58-4.9,62.39-7.31,23.46-2.2,35.2.34,58.52-3.61,17.05-4.27,34.23-1.18,48.46,8.59,1.04-.28,2.15-.48,3.37-.62,10.85-.2,17.48,10.16,15.52,20.32-.06,11.05,0,22.09-.03,33.14-.14,25.53-.16,51.07,1.24,76.57,1.52,29.73-7.19,59.52-6.8,89.28Z"/><path class="cls-2" d="M2023.09,1119.15c-2.77,30.55,1.23,61.14.18,91.67-2.28,37.33,8.29,71.29,5.39,108.36-1.23,27.17,6.88,53.47,8.6,80.4,2.77,56.91-.85,113.93-2.8,170.82.05.08.1.16.15.24,15.54,9.83-.36,38.53-21.13,28.09-19.96,6.94-40.44,4.09-60.96,3.68-17.53,3.36-34.43,9.93-52.66,8.46-23.06-.59-46.05,2.45-69.07,1.83-8.12-.82-18.2-1.23-25.16-5.96-.59,4.2-1.79,8.08-4.03,11.42-8.59,9.93-26.6,3.41-26.46-9.92-.65-75.35,9.19-150.45,15.61-225.52,1.8-51.64.43-103.36.77-155.02-.32-73.25-9.77-146.1-13.52-219.22-1.01-17.18-1.46-34.39-3.23-51.52-.86-10.03-4-20.38-1.36-30.34,3.14-12.37,14.5-15.19,22.86-11.86.55.07,1.1.18,1.67.31,15.68,4.84,31.02,7.22,46.12,13.16,14.55,10.72,30.43-.93,45.38-5.32,9.77-3.54,19.83-6.25,29.96-8.5,23.5-4.96,47.76-3.32,71.62-3.24,9.02.24-11.91.47-3.07,2.4,2.11-.34,3.95-1.31,6.12-1.69,29.88-2.16,20.06,38.33,22.44,56.45,6.72,49.99,9.4,100.39,6.54,150.8Z"/><path class="cls-2" d="M2032.93,268.75c.27,42.12-4.51,84.11-2.33,126.26.21,44.62,1.2,89.27,1.17,133.87-1.48,21.07-3.95,42.08-4.59,63.21-.58,22.1.17,44.22-.65,66.31.73,14.61-3.71,36.32-22.93,32.37-10.13-3.5,19-2.31,8.48-3.25-14.74-1.29-29.57-2.77-44.36-1.28-22.38,3.81-45,6-67.29.35-13.34-2.23-26.97-.7-40.29-2.97-10.36-2.34-20.57-5.39-31.01-7.38-8.89-2.52-17.75-6.59-27.19-5.09-1.85.41-3.57.62-5.18.65.05,3.06.08,6.12.09,9.19.45,19.91-29.87,20.74-30.5.85-.3-44.82-4.96-89.7-2.54-134.54,1.71-48.41,1.14-96.8.56-145.16,2.37-49.33,5.21-98.69,5.45-148.08-.08-.52-.15-1.03-.21-1.53-2.44-6.04-2.05-13.61,3.34-20.09,1.29-1.06,2.65-1.99,4.09-2.8,0,0,0,0,0,0,1.78-1.28,3.74-2.12,5.75-2.54h.01c15.8-5.34,37.02-1.12,52.73-2.75,27.2-.39,54.47-2.86,81.18-8.09,12.21-2.6,23.1-9.06,35.15-12.11,21.44-4.02,43.6-.32,65.31-1.24,13.62,1.73-11.29,2.18.88,8.96,14.81,14.34,14.61,37.54,14.87,56.89Z"/><path class="cls-2" d="M2666.68,252.36c2.62,32.95.08,66.25,1.96,99.31-2.77,75.91-6,151.81-8.68,227.75-.53,22.54.03,45.1-1.28,67.62-2.25,27.62-6.8,55.16-7.45,82.91-1.82,65.46-8.15,129.77-9.03,195.03-1.4,21.16-5.25,42.09-6.79,63.24-1.9,22.2-1.95,44.57-5.5,66.59-11.12,53.94-12.25,108.84-10.71,163.73.66,26,4.69,51.81,3.87,77.87.16,87.23,2.1,174.59-10.28,261.17.81,21.21-1.97,52.03-30.9,48.19-6.26-2.37-12.52-1.32-18.9-.12-14.67,2.32-28.49-4.58-42.96-5.19-21.99,1.41-43.64,1.04-64.92-5.43-13.96-1.54-27.95-2.64-41.67-5.82-17.82-2.55-34.52,7.34-52.38,6.28-36.61-5.27-73.43.33-110.08-3.83-5.95-.55-11.89-1.33-17.87-.95-12.77.74-18.55-13.69-13.64-22.96-4.95-1.87-8.86-6.28-9.12-13.43-.89-30.99-.77-62.09.17-93.08,2.61-22.77,3.46-45.56,3.64-68.47,3.92-71.49,3.62-143.37,5.37-214.34,1.2-19.74,3.67-39.41,4.34-59.19.77-21.7-3.66-43.15-2.91-64.83.52-23.86,5.1-47.38,6.7-71.14,1.48-29.96,1.41-59.97,5.04-89.77-.4-5.04-.53-10.11-1.23-15.62-2.84-27.95-3.21-56.05-1.89-84.1-8.72-25.86-3.43-54.88-3.61-81.82,3.45-46.87,6.14-93.73,5.28-140.75-.1-17.25.93-34.79-2.81-51.76-3.4-15.05-10.36-30.25-6.96-45.91,2.69-11.65,11.06-27.68,25.16-25.28.54-9.62,2.12-19.18,3.1-28.75-.7-7.38-.48-16.61,3.7-22.39-.37-42.51.09-85.03-.07-127.54,1.39-10.98-2.86-27.77,1.81-38.02-3.25-.7-6.42-1.61-9.19-3.61-13.11-8.64-4.21-30.32,11.24-28.45,33.97,9.74,49.89,9.18,83.96,1.38,16.94.29,34.31,1.77,50.91,5.35,12.34,3.87,24.44,8.88,37.61,8.73,64.38-4.24,129.09-7.24,193.42.03,30.35,1.24,43.21,3.49,43.57,37.39Z"/><path class="cls-2" d="M2886.3,1595.11l.63.02c-.25-.02-.51-.04-.76-.07.04.02.09.04.13.05ZM3102.22,1592.84c1.43,2.18,2.27,4.76,2.22,7.59-1.3,27.36-41.88,17.37-60.3,19.68-26.36.88-52.71,2.34-79.09,2.08-59.73,1.76-84.4-16.35-90.53-32.71-6.57-1.4-12.32-6.74-12.25-14.33,1.03-36.52-2.98-72.82-2.24-109.31,2.44-55.35-1.61-110.66-.55-166.06.77-28.68-3.01-57.09-4.73-85.65-.68-29.65-.97-59.29-3.04-88.89-2.06-75.45.79-150.57,3.71-225.48,3.68-47.25,8.3-94.37,7.65-141.84,2.35-52.25,2.97-104.57,1.76-156.87-1.41-35.38-2.66-70.97,1.55-106.21,5.43-35.48,14.59-70.33,17.75-106.18,5.6-42.94,4.38-86.28,3.62-129.46,1.56-15.77-7.99-44.02,14.59-46.62,5.29-.04,9,1.96,11.52,5.09,4.53-2.43,9.74-3.92,14.75-4.57,20.87-1.65,41.94-.54,62.88-1.38,15.14-.79,30.36,2.46,45.37-.55,18.14-1.39,55.01-17.86,63.53,5.25,2.33,15.81-1.46,32.34-.33,48.44.07,26.31-4.59,52.31-5.8,78.55-.89,29.26.75,58.61-1.38,87.82-2.5,22.01-2.71,44.08-2.95,66.19-1.75,40.82-4.71,81.69-3.35,122.56,2.25,38.2.91,76.49-2.32,114.59-.42,15.51,1.49,30.77,5.98,45.59,2.06,11.55-2.11,22.82-5.28,33.76-26.46,81.97,4.12,51.13-.25,128.92-.69,38.18,9.14,75.4,10.59,113.41.41,23.33.27,45.98,4.2,68.56,2.18,52.13-.18,104.18-5.3,155.98-2.6,28.56-3.35,57.29-1.8,85.93-.24,19.25,11.18,44.87.69,61.6-.5.56-1.05,1.07-1.62,1.54,7.29,51.47,6.88,103.77,6.98,155.74,2.12,2.14,3.34,4.66,3.8,7.25Z"/></g><g id="Image_11"><path class="cls-1" d="M161.6,1980.15c-10.17-107.07-5.4-214.96-5.52-322.37,2.13-95.82-.19-191.7,6.89-287.38,2.75-175.88.32-351.84,1.1-527.74-.28-113.19,3.7-226.4,1.45-339.59-2.84-38.01-2.27-76.14-3.98-114.19-2.43-38.9-6.35-77.72-7.34-116.7-2.98-69.02,2.24-137.95,2.1-206.96-.05-26.95.71-54.16-5.38-80.58-1.35-11.73-7.47-24.98-1.28-35.94,4.61-6.7,14.67-8.53,21.26-3.62,10.1,7.88,6.07,23.28,10.06,34.34,13.62,78.85,1.1,159.57,2.93,239.11-.49,54.06,3.51,107.97,7.68,161.82,1.71,53.72,4.17,107.44,4.92,161.17-1.79,263.56-2.11,527.12-2.13,790.7-1.15,70.97-8.04,142.07-6.56,212.93.13,103.41-3.38,206.84-1.93,310.24,1.87,41.24,1.26,82.8,6.24,123.78.51,18.13-29.03,22.42-30.5,1Z"/><path class="cls-1" d="M394.29,1980.52c-8.12-109.2-5.65-218.63-3.83-328.03,1.71-118.88,2.98-237.97,14.93-356.34,4.63-52.94,1.61-106.12,4.02-159.12,1.66-45.14,7.31-90.03,9.23-135.16,3.53-54.06,1.29-108.15.5-162.25-1.29-125.64-3.47-251.26-5.36-376.88,2.24-91.13,3.29-182.3,2.75-273.47-2.43-56.87-6.54-113.66-5.23-170.65-.36-34.05.41-68.18-1.85-102.16-3.15-8.78,2.25-19.63,11.94-20.89,24.25-1.53,18.02,30.27,19.74,46.14.61,34.41.78,68.83.69,103.25-.4,39.35,1.35,78.66,4.4,117.89,2.13,95.18.8,190.5-1.91,285.66,1.17,124.62,4.02,249.23,5.15,373.87-.06,47.04,2.94,94.06,1.2,141.09-1.17,63.32-9.12,126.25-11.5,189.5-.71,43.13.54,86.33-2.32,129.4-4.72,60.78-10.99,121.45-11.44,182.48-4.94,125.01-5.65,250.24-6.33,375.35-.51,46.59,3.71,93,5.71,139.47.51,18.59-29.52,21.96-30.49.85Z"/><path class="cls-1" d="M633.32,1984.37c3.06-56.48-.12-113.22,1.34-169.79,5.76-123.27,5.4-246.75,8.91-370.12,4.4-130.26,13.54-260.64,6.56-390.96-2.27-87.19,2.07-174.42.2-261.62-1.27-38.3-3.91-76.57-3.42-114.92-.33-36.54,1.62-73.03,3.45-109.51,1.62-66.48.56-132.98.85-199.48-.09-81.45-5.79-162.78-7.67-244.2.2-43.46,4.97-86.78,4.23-130.27-.07-17.77-.29-35.53-.49-53.29-.29-18.74,29.43-21.83,30.5-.85.14,12.46.39,24.93.43,37.4,1.57,57.02-5.51,113.82-3.81,170.82,7.43,149.65,10.45,299.77,5,449.57-2.93,56.24-2.78,112.66.57,168.88,3.52,87.99-1.02,176.08.21,264.1,8.81,167.22-5.65,334.23-7.93,501.42-2.11,100.68-3.44,201.36-7.33,301.97-.79,50.66,1.92,101.42-1.17,152-2,17.41-29.45,18.64-30.42-1.14Z"/><path class="cls-1" d="M906.53,2005.11c-14.3-6.46-14.43-24.38-15.41-37.93-1.22-21.94-2.88-43.85-4.36-65.78-4.97-76.34-6.25-153.03-4.93-229.51.9-24.1,5.59-48.09,4.72-72.22-3.02-21.18-7.25-42.22-7.11-63.71-.45-41.62,5.51-82.95,7.97-124.44,6.28-150.11.3-300.51,4.07-450.71-.58-45.17,2.86-90.18,5.71-135.22,5.82-112.18,2.18-224.61,3.15-336.89-1.82-51.78,6.8-102.98,7.08-154.65.1-72.82.29-145.71-1.92-218.49-1.56-33.77-6.82-67.35-6.3-101.21-.31-27.78,2.7-55.47,4.66-83.16,1.03-14.69.06-40.21,21.21-36.74,18.9,5.42,8.55,25.95,9.13,39.87-2.11,28.89-5.14,57.76-4.5,86.77.45,34.04,5.32,67.81,6.79,101.8,1.01,79.36,2.43,158.79.88,238.16-2.32,38.79-7.4,77.37-6.55,116.34-.84,109.78,2.1,219.66-2.15,329.39-2.86,55.03-7.77,109.95-6.75,165.11-4.29,182.07,5.45,364.5-11.9,546.04-2.44,30.6,6.04,60.35,7.29,90.66-.85,21.36-3.65,42.61-5.04,63.95-2.07,101.74,2.18,203.61,10.36,305.01,19.37,11.08,3.15,36.11-16.13,27.55Z"/><path class="cls-1" d="M1122.94,1992.75c-11.55-3.09-13.06-15.01-13.11-25.26-1.19-16.31-1.72-32.66-2.4-49-1.44-78.35.58-156.74-1.7-235.08-2.02-46.77-.77-93.64-3.64-140.38-1.92-33.16-4.76-66.29-4.77-99.53-.79-51.35,4.99-102.52,4.14-153.88,2.6-145.26-8.01-290.75,1.24-435.82,3.88-41.76,5.57-83.7,4.75-125.63-.89-117.52-.97-235.04-1.79-352.55-9.85-118.87-3.55-237.98,5.06-356.74.79-29.61,2.02-59.18,4.66-88.69.57-8.29,8.7-14.44,16.74-13.61,21.48,3.75,11.09,29.7,11.5,44.67-2.06,24.48-1.48,49.09-3.38,73.59-7.08,106.84-14.33,214.23-4.82,321.14,2.24,114.53,1.44,229.13,2.09,343.69,3.99,80.59-7.04,160.61-7.91,241.07-.88,136.58,5.33,273.18,1.26,409.74-2.23,39.43-4.3,78.92-2.5,118.42,1.87,45.47,6.37,90.81,6.25,136.35,4.29,118.24.14,236.64,5.32,354.81,8.81,12.14.48,36.79-16.98,32.67Z"/><path class="cls-1" d="M1365.29,1994.07c-16.06-2.91-20.93-19.32-21.15-33.69-2.16-27.09-.53-54.39-.11-81.54,2.35-44.71,2.25-89.5,3.93-134.23,1.29-44.22,6.79-88.46,4.83-132.7-2.29-21.64-8.68-42.62-9.83-64.42-2.99-36.81,2.28-73.53,5.86-110.09,2.86-27.25,5.89-54.67,3.23-82.07-4.38-28.58-8.94-57.26-9.51-86.24-1.98-37.93-.1-75.89,2.27-113.76,1.59-46.06.44-92.16,1.66-138.24,10.76-158.72,14.6-317.65,11.84-476.72-.1-197.7,2.13-395.35,3.16-593.03.23-21.95,2.94-43.79,6.17-65.49,3.45-13.17.18-29.46,9.53-39.69,9.83-8.49,26.82-.11,24.96,13.27-3.46,26.1-7.85,52.07-9.82,78.35-1.73,184.12-2.92,368.23-3.5,552.38-1.35,98.44,3.79,196.92-.97,295.28-1.49,78.58-6.14,156.92-10.88,235.34-1.07,39.53-.4,79.09-1.08,118.63-.5,31.19-3.91,62.27-3.58,93.48-.09,25.72.4,51.53,3.61,77.07,2.58,25.59,8.86,50.78,7.68,76.66-.95,49.4-11.68,98.2-10.95,147.68.16,38.01,14.73,74.55,11,112.79-2.75,58.01-6.73,115.94-6.91,174.04-.94,49.21-5.66,98.63-1.52,147.77,25.11,4.25,13.38,38.38-9.93,29.15Z"/><path class="cls-1" d="M1580.14,2017.39c-7.98,0-15.27-6.66-15.27-14.83,0-15.94-.28-31.86-.64-47.8-3.28-60.1-10.27-118.12-8.2-178.68-1.72-34.99-.4-70.08-2.86-105.02-2.35-25.91-4.66-52.03-1.91-77.99,6.19-38.8,4-78.01,5.4-117.1,4.63-66.18,1.22-132.58,5.88-198.78,1.91-61.55-3.17-123.01-3.01-184.56,1.08-64.78-4.66-129.37-3.87-194.16-.17-67.84.23-135.7-.16-203.54-1.39-44.09-4.3-88.11-3.04-132.26,1.43-102.48,2.19-204.97,8.01-307.32,2.5-66.14-.12-132.27,1.49-198.42.11-20.55,1.35-41.08,1.98-61.62.29-15.66.55-31.3-.69-46.94-.3-3.86,1.46-7.97,4.04-10.77,5.42-6.06,15.66-6.57,21.55-.87,9.87,10.74,4.59,41.57,5.62,56.31-4.2,78.86-1.17,157.78-2.97,236.66-4.81,140.73-11.55,281.7-7.15,422.54,4.94,112.29-1.17,224.85,3.46,337.17,3.87,76.3,1.5,152.8,5.45,229.14.87,39.51-.95,78.94-3.06,118.38-.52,38.15.32,76.33-1.56,114.45-3.47,51.97-.4,104.12-7.97,155.81-1.34,32.77,4.71,65.22,4.46,97.96,1.44,54.46.4,109.03,3.08,163.44,2.24,25.66,5.49,51.26,6.16,77.02.74,17.06.96,34.13.99,51.2,1.48,9.69-4.27,20.85-15.22,20.56Z"/><path class="cls-1" d="M1789.52,1985.23c-7.32-6.95-6.26-19.57-4.67-28.7.12-17.21.67-34.4,1.07-51.61,1.1-78.98,1.93-157.97,2.68-236.95-.32-56-16.58-110.3-17.46-166.29-1.3-53.54-3.37-107.13-2.89-160.69,1.02-32.29,7.78-64.07,8.41-96.4,1.15-54.89-.53-109.82,1.47-164.68,2.59-57.52,6.9-114.97,7.28-172.57.25-67.05,1.42-134.16-.4-201.19-2.97-26.8-6.41-53.54-6.99-80.52.08-103.22-3.04-206.38-4.68-309.55,1.62-51.63-.17-103.43,3.81-154.93,5.51-39.42,6.44-79.23,10.54-118.78,2.64-28.52,5.24-57.54,2.17-86.06-2.68-12.59,13.58-22.97,23.88-14.88,17.16,11.72,2.83,107.16,1.9,130.2-1.59,36.25-6.3,72.25-9.24,108.36-3.75,91.57-2.12,183.18.35,274.76,1.63,66.19.18,132.46,3.11,198.6,4.03,33.08,7.48,66.18,6.49,99.56.45,104.46.28,208.97-7.22,313.23-2.67,57.28-.78,114.64-1.88,171.95-.23,26.39-3.35,52.58-6.75,78.71-4.17,39.66-.91,79.65-.4,119.41.77,40.07.82,80.24,6.12,120.04,10.99,55.04,14.8,110.94,12.5,167.01-1.97,59.67-.66,119.4-2.25,179.07-.73,23.76-1.01,47.52-1.35,71.28.78,12.73-16.36,21.1-25.59,11.63Z"/><path class="cls-1" d="M1985.73,2036.83c-5.68-3.62-7.63-10.47-7.41-16.88.52-8.94-2.49-20.11,5.56-26.51,2.79-80.19,9.79-160.28,9.42-240.56.3-45.04-6.19-89.75-8.16-134.68-.98-60.18-5.16-120.26-4.89-180.46-.94-41.84,4.81-83.41,4.3-125.24-.65-38.22,5.41-76.05,6.59-114.18-.41-51.04.41-102.06,1.6-153.09.36-72.05-1.96-144.08-2.83-216.09,9.5-111.7,9.36-223.87,10.76-335.96,4.08-84.27,15.61-168.14,16.39-252.52-.93-76.83-5.12-153.92,3.26-230.53,1.1-9.56,1.88-19.15,2.31-28.75,2.62-18.1-10.16-48.84,14.14-52.06,8.19-.23,15.59,6.52,15.67,14.82.59,22.04,1.45,44.08-1.45,66.02-3.54,33.66-5.23,67.57-5.32,101.42-.94,53.77,3.27,107.44,1.54,161.2-4.21,64.15-9.06,128.24-14.45,192.32-4.3,87.66-1.9,175.38-5.8,263.07.22,31.22-4.45,62.09-6.46,93.17.34,65.96,2.69,131.92,2.73,197.91-.58,63.77-1.79,127.51-2.03,191.26-.97,23.55-4.22,46.93-5.5,70.46-1.24,29.21.05,58.49-2.48,87.63-6.53,82.83,1.19,165.86,2.42,248.75,1.75,39.41,6.9,78.6,7.98,118.05,1.52,66.25-3.64,132.34-6.35,198.5-1.03,18.2-2.14,36.39-2.78,54.61-.12,19.39.52,61.52-28.76,48.32Z"/><path class="cls-1" d="M2196.23,1982.95c-15.98-2.61-13.82-17.01-12.61-29.37-.05-32.53,1.24-65,3.59-97.44,6.81-111.89,4.47-223.98,8.9-335.92,1.79-144.38,4.18-288.72,10.47-433,2.5-108.24-.4-216.54,1.54-324.79,3.79-75.74,3.22-151.52,3.66-227.33,1.35-51.94,12.71-103.06,11.84-155.2,1.34-31.06,6.47-61.8,8.78-92.79,3.48-46.3,3.44-92.78,3.11-139.18.32-51.71-10.03-102.98-6.23-154.74.47-37.59,51.53-20.03,30.19,5.9-2.02,35.88,2.21,71.6,5.22,107.29,1.74,28.11,1.45,56.31,1.46,84.46,1.01,63.38-6.32,126.21-12.06,189.18-.72,35.02-2.47,69.97-7.87,104.62-8.47,68.64-1.97,138.15-5,207.13-7.39,145.06.88,290.43-5.82,435.5-3.39,103.31-6.73,206.61-7.75,309.97-.68,92.74-4.87,185.38-4.37,278.15-2.05,59.18-4.22,118.38-7.86,177.47-1.25,20.03-.76,40.12-1.31,60.18.32,12.52-1.09,31.38-17.88,29.92Z"/><path class="cls-1" d="M2421.21,1964.62c-2.06-84.61-3.29-169.26-3.76-253.9.57-83.17,4.26-166.28,3.18-249.48-5.09-81.09-2.81-162.29-4.72-243.47-3.66-137.77-5.83-275.76-3.3-413.58,5.61-70.17,4.23-140.59,10.04-210.73,2.81-66.7,2.62-133.66,9.17-200.13,10.43-68.36,8.51-137.25,8.6-206.19,2.92-67.99.39-136.1,3.26-204.09-.22-38.16,48.2-26.12,30.21,5.69,0,0,0,0,0,0-2.68,113.37-1.7,226.86-4.24,340.2-10.32,76.01-13.21,152.5-15.53,229.1-1.75,58.48-6.48,116.77-6.86,175.3-1.51,35.88-5.19,71.66-5.04,107.61-1.83,162.58,4.45,325.07,5.16,487.6-1.52,52.21,4.27,104.21,3.75,156.39.82,100.8-5.33,201.49-2.58,302.28,2.05,58.84.62,117.72,3.14,176.54.36,18.92-29.34,21.7-30.5.85Z"/><path class="cls-1" d="M2617.9,2047.31c-6.36-62.27-9.16-124.93-11.06-187.48-8.4-96.09-14.18-192.52-14.38-289-.1-139.01,14.48-277.62,15-416.62.18-100.59,3.19-201.13,5.8-301.68,1.61-89.11-.73-178.43,5.42-267.37.69-32.92,5.18-65.46,9.57-98.04,2.67-43.07,9.15-85.85,9.37-129.06,14.06-127.81.43-256.86,13.23-384.62,1.4-8.18,3.03-17.23,10.36-22.19,6.87-4.07,16.66-3.9,21.9,2.69,10.77,11.75,17.69,32.21-3.6,35.82-8.91,104.77.79,210.31-7.47,315.09-4.15,55.08-6.03,110.19-11.89,165.14-.83,23.47-5.46,46.54-8.02,69.84-2.65,31.41-4.02,62.93-5.95,94.39-1.03,183.29-7.48,366.48-8.43,549.78-2.68,101.99-9.1,204.1-13.55,305.82-4.9,127.18,3.95,254.36,13.68,381.09.64,54.09,5.18,108.06,8.97,161.99,8.32,28.66-22.32,37.16-28.95,14.45Z"/><path class="cls-1" d="M2854.59,2054.02c-17.6-4.89-9.53-23.68-9.04-36.73,1.32-19.77,1.62-39.67-.2-59.41-4.88-45.46-8.08-91.3-7.67-137.01,1.17-27.62,5.42-55.02,7.3-82.61,5.07-76.22,2.99-152.89,1.74-229.23-7.49-136.75-10.29-273.99,2.12-410.51,3.46-68.46,6.27-137.16,17.54-204.87,6.32-62.49,1.21-125.66,3.05-188.4,3.67-88.11,5.89-176.23,9.74-264.34,1.83-118.19-5.62-236.14-3.2-354.34.11-41.53-.13-83.07-.45-124.6,0-4,1.3-7.8,4.04-10.76,8.59-9.69,26.61-3.58,26.46,9.92.47,44.78.5,89.57.45,134.36.24,45.45-.72,90.91-.24,136.35,1.95,45.93,4.41,91.82,3.62,137.82,1.85,70.57-4.48,140.88-5.25,211.38-4.67,97.39-4.91,194.78-5.59,292.25-1.67,27.54-7.59,54.62-10.49,82.05-4.02,42.33-5.61,84.88-8.67,127.29-1.89,59.09-10.11,117.85-8.72,177.08-2.17,135.94,10.06,271.53,7.18,407.48,1.92,60.47-11.15,120.21-10.13,180.53,1.62,25.68,2.11,51.43,4.36,77.07,3.39,29.04,5.95,58.2,3.86,87.45-1.62,15.72,1.22,44.96-21.8,41.76Z"/><path class="cls-1" d="M3067.58,2037.96c-9.92-.78-15.87-11.57-13.09-20.71-.15-21.05-.95-42.09-.69-63.15-.61-87.89,4.37-175.79-1.7-263.58-1.03-101.86-5.62-203.6-4.42-305.48-.14-48.53,3.44-96.96,3.29-145.47-.71-40.42,1.29-80.75,3.68-121.08-.84-72,15.29-142.73,13.57-214.77,4.28-57.14,1.1-114.77,5.37-171.8,5.59-68.03-.52-136.45.94-204.65.63-24.55-3.77-48.78-4.59-73.23-.38-32.53.52-65.07,1.59-97.59,2.25-51.98-1.4-104.17,2.83-156.04,6.6-35.61,9.75-71.43,8.72-107.68-.34-33.11,3.03-66.04,5.52-99.01.44-18.77,2.66-46.08,27.11-45.97,17.22-.56,21.55,25.03,4.85,29.8-6.41,57.25-6.71,114.73-8.19,172.23-1.21,19.18-6,37.9-8.07,56.97-1.9,25.11-1.33,50.31-1.53,75.47.96,57.77-3.24,115.47-2.31,173.23,5.16,47.48,4.91,95.13,4.68,142.85.88,33.28,1.69,66.53,1.03,99.82-2.42,43.35-5.65,86.4-4.46,129.84-1.39,45.5-3.43,90.96-4.52,136.47-1.77,33.98-8.62,67.49-10.25,101.49-1.99,57.69-6.03,115.31-5.46,173.07-1.43,93.4-6,186.9-2.33,280.3,3,49.47,1.19,99.09,3.12,148.62.46,43.03,4.46,85.91,3.49,128.97.26,44.41-2.08,88.79-1.45,133.2.04,22.81-.15,45.63.42,68.44.24,14.79,4.17,40.1-17.13,39.42Z"/><path class="cls-1" d="M3240.73,2022.53c-.39-16.74-6.78-32.91-5.48-49.86-.93-37.94,10.28-75.32,16.12-112.38-1.25-29.76-8.84-58.9-10.23-88.71-4.01-31.65-12.05-62.64-15.83-94.32-2.66-26.29.49-52.71,1.23-79.04.5-33.22.29-66.46.35-99.68-1-55.19,5.22-110.25,1.98-165.43-6.37-74.04-17.15-147.87-12.04-222.38,1.7-37.45,2.06-75.16,8.16-112.21,9.69-38.36,16.27-77.58,19.58-117.05.53-28.6-.93-57.23.35-85.82,1.17-38.07,6.09-75.85,6.88-113.93.88-13.29,3.3-26.38,5.61-39.49,2.7-20,1.04-40.3,3.2-60.37,2.16-21.47,9.7-41.95,12.05-63.4,3.19-28.04,3.51-56.33,7.76-84.27,3.76-87.94,2.55-176.21,9.1-264.1.12-64.13.75-128.2,4.24-192.24-3.09-45.42,49.51-26.13,30.46,1.12-5.33,85.15-1.64,170.49-7.96,255.57-.34,40.64-2.74,81.2-3.54,121.83-.5,31.2,1.24,62.6-3.55,93.55-4,42.34-5.53,84.82-16.98,126.07-4.34,26.21-.46,53.14-6.13,79.18-4.87,23.9-4.31,46.34-5.62,70.31-2.66,23.96-4.24,48.01-5.12,72.11-1.24,32.47,1.04,65.01-1.04,97.43-4.72,32.75-7.79,65.98-16.82,97.91-12.16,66.91-11.02,136.02-10.61,203.86,2.77,49.44,11.04,98.18,13.07,147.61,1.53,63.2-4.17,126.28-2.53,189.51-.02,26.95.25,53.92-1.09,80.84-1.6,27.37-3.07,54.93,2.72,81.94,6.33,32.86,12.67,65.71,15.06,99.13,2.36,21.87,8.16,43.52,7.71,65.62-3.52,29.2-12.09,57.78-15.14,87.11-.94,12.7-1.36,25.5-.38,38.21,1.57,11.69,5.32,23,4.95,34.92.58,19.06-29.92,21.38-30.49.85Z"/><path class="cls-1" d="M3475.54,2014.8c-19.81-7.43-10.9-43.41-13.07-60.44-.08-22.07-.06-44.13-.07-66.2.93-42.4-1.44-84.74-1.68-127.09,2.07-19.83,4.06-39.73,3.64-59.7-.81-64.05-5.85-128.17-3.69-192.21,3.2-17.92,4.24-36.09,4.9-54.25,2.53-18.92,4.47-37.86,3.3-56.98-1.36-30.04-6.2-59.85-6.86-89.94-.59-44.44-1.09-88.93.17-133.35,1.1-21.65,6.15-42.85,6.81-64.54-.12-88.79-6.74-177.8.23-266.48,2.3-45.21-4.87-90.12-3.86-135.32.33-241.71,4.02-483.39,4.82-725.1,1.46-23.24-2.73-80.73,25.37-75.69,16.53,4.98,11.03,19.97,7.79,32.35-4.31,29.79-2.12,60.06-2.68,90.07-1.65,227.07-4.36,454.13-4.79,681.21-.81,32.79,3.39,65.32,4.17,98.05,1.11,37.45-4.4,74.72-3.44,112.18.66,32.13.49,64.26.92,96.39.42,42.97,5.45,86.23-1.54,128.92-4.06,22.39-3.88,45.21-4,67.89-.27,54.42-.47,108.85,6.08,162.96,2.77,27.48,1.62,55.02-2.32,82.3-.02,18.91-2.39,37.62-5.15,56.28-.54,60.91,3.08,121.78,4.23,182.68.51,22.67-1.72,45.23-3.91,67.75,3.38,72.88,1.21,145.87,2.41,218.8,23.35,5.02,17.02,38.45-17.78,29.44Z"/><path class="cls-1" d="M3638.99,2028.36c-28.4-3.54-28.96-18.53-21.97-42.44,5.53-48.23,1.89-97.09,2.92-145.56.17-59.47,5.2-118.82,3.9-178.33-1.78-70.37.74-140.84-4.07-211.11-17.31-172.57-11.4-346.02-18.22-519.04,1.29-85.9-6.31-171.32-15.25-256.68-3.69-40.36-7.26-81.18-.1-121.36,5.3-37.95,3.97-76.38,4.21-114.59.64-117.71-2.04-235.38-1.56-353.09-.26-44.98-6.3-90.05-.52-134.91,2.23-20.78,4.71-41.54,7.74-62.22,1.81-14.49,4.05-39.36,24.48-33.23,13.46,5.6,9.35,18.28,6.93,29.37-4.62,30.51-8.26,61.18-10.91,91.93-1.41,34.37,2.27,68.64,2.68,102.98.72,68.87-.71,137.76,1.41,206.61-.92,102.13,5.5,204.81-8.18,306.29,1.86,108.26,22.8,215.5,19.37,323.87,3.77,104.23,4.64,208.54,5.38,312.84,1.91,81.57,8.9,162.86,14.45,244.22,2.64,74.9,2,149.91,2.59,224.85.29,45.71-3.99,91.28-3.82,136.98-1.65,54.18,4.25,109.23-4.88,162.85,19.75,4.18,13.15,34.3-6.57,29.78Z"/><path class="cls-1" d="M1911.18,259.65c-50.15-2.5-100.3-4.63-150.53-2.62-31.76,1.23-63.48,4.18-95.28,2.04-19.59-.69-38.97-4.19-58.52-5.25-38.51-1.78-77.12-.04-115.62-2.64-56.89-5.05-113.73-10.63-170.92-9.72-42.6-1.25-85.26-3.07-127.87-1.05-41.21,1.61-82.19,7.1-123.47,6.91-79.78-1.71-159.56-.11-239.14-6.48-42.66,1.44-85.25,6.37-127.96,2.88-61.11-8.69-122.85-6.5-184.23-11.31-23.11-1.96-45.64-8.58-68.71-10.56-18.3-.71-36.48,2.05-54.72,3.03-19.22,1.61-38.12-3.03-57.09-5.07-36.96.85-73.83,4.52-110.85,2.32-42.8-1.88-85.6.19-128.41.09-31.46-1.53-62.76-5.93-94.34-4.33-25.58.8-51.66.55-76.31,7.46-12.87,2.55-26.57-12.11-17.35-24.24,7.91-9.43,23.02-7.46,34.11-10.33,24.66-2.85,49.54-3.29,74.34-3.53,26.45-.71,52.65,3.2,79.03,4.47,40.78.28,81.54-1.94,122.31-.25,37.31,1.96,74.53-.25,111.78-2.24,15.4-.73,34.03,5.17,49.09,5.27,18.2.52,36.26-2.41,54.42-3.16,29.07-1.47,57.08,8.1,85.84,10.73,43.42,4.2,87.17,2.42,130.64,5.71,35.95,3.93,72.03,8.42,108.25,6.19,30.18-.99,60.28-4.98,90.53-2.92,77.63,6.83,155.79,4.23,233.63,5.46,48.93-1.17,97.59-8.15,146.61-7.49,51.05.39,102.08,2.31,153.13,2.95,37.22,1.62,74.21,6.25,111.36,8.89,38.31,2.51,76.75.44,115.05,2.62,29.51,2.25,58.94,6.94,88.62,5.75,52.17-2.19,104.37-4.81,156.62-2.78,29.86,1.41,59.69,4.01,89.6,2.3,31.34-1.95,62.48-6.56,93.92-6.99,47.12.78,94.15,1.21,141.18-2.51,35.6-1.39,71.2,1.12,106.82.42,52.34-2.34,104.74-1.79,157.11-2.45,74.88-3.42,149.69.26,224.56.89,63.53.49,126.97-8.54,190.45-2.76,26.11,2.3,52.36,4.39,78.52,1.62,49.89-6.01,99.33-16.55,149.88-14.8,39.77-.16,79.56.38,119.32-.73,32.2-2.31,64.07-8.04,96.25-10.69,27.08-2.4,54.31-3.1,81.48-2.17,23.28.65,46.44,5.03,69.76,3.38,56.21-4.51,112.35-10.89,168.83-10.58,68.19-1.98,137.51,4.34,204.87-4.22,12.4,2.45,16.23,21.29,4.67,27.72-10.97,5.87-24.45,5.53-36.62,6.63-79.6,1.62-159.37-2.09-238.89,2.51-37.12,2.19-74.1,7.19-111.24,8.7-26.43.38-52.66-4.36-79.12-4.09-41.23-.45-82.24,4.18-123.04,9.66-67.64,8.79-136.2,1.4-204.15,5.72-50.07,4.58-99.57,18.02-150.19,14.32-83.85-10.15-167.75,2.33-251.79.12-150.39-5.68-300.78,3.44-451.19,1.06-46.72,3.25-93.39,4.06-140.19,2.73-45.1-.21-89.72,9.22-134.84,7.43Z"/><path class="cls-1" d="M-68.48,473.8c-12.33-1.42-25.19-.43-36.82-5.18-9.62-3.89-14.24-16.13-9.7-25.36,2.85-4.46,6.97-8.58,12.07-10.31,17.36-5.27,35.27,4.51,53.1,3.55,40.66.51,81.44,1.56,122.06-.55,34.21-2.71,67.18-13.08,101.29-16.24,20.57-2.52,39.75,7.04,60.17,7.26,22.62.94,45.17-2.55,67.79-1.29,57.97,4.74,116.1,3.81,174.19,2.28,102.94,1.69,205.87,1.99,308.79-1.17,54.02-3.2,107.54,3.33,161.2,8.14,104.1-3,208.26-4.77,312.39-8.16,41.04-2.01,81.99.87,122.93,3.6,33.26,1.7,66.58,2.18,99.8,4.75,62.94,4.94,126.08.43,189.12,1.08,34.74.25,69.47-.38,104.14-2.79,87.76-3.7,176.63-2.25,264.31-4.1,62.53-7.99,125.53-6.85,188.42-8.45,105.24-3.27,210.54-3.04,315.77-6.76,67.17-.19,134.32,3.97,201.52,4.33,105.82-.41,211.73,1.95,317.51-.3,58.55-4.72,117.18-7.17,175.93-6.2,73.07,2.12,145.56-5.91,218.24-11.96,32.61-3.03,65.36-3.09,98.08-3.32,22.27-1.35,44.44-4.27,66.77-4.74,63.55-4.23,127.5-5.9,191.09-1.92,19.78,1.81,39.66,2.24,59.46,3.67,8.28.65,14.45,8.62,13.61,16.74-.67,8.16-8.64,14.56-16.74,13.61-24.81-1.65-49.68-2.54-74.45-4.87-61.26-1.77-122.5-.43-183.62,3.79-43.53,4.33-87.19,4.22-130.86,5.91-76.77,5.14-153.13,15.64-230.23,13.59-63.67-1.02-127.26,1.27-190.72,6.47-156.43.82-313.05,1.97-469.4-4.11-155.71,1.1-311.42,6.12-467.15,8.61-31.07-.36-61.73,5.9-92.73,6.57-40.99.76-82.01.19-123,1.64-138.09-.06-276.17,10.17-414.28,4.8-36.26-2.74-72.61-4.03-108.94-5.49-35.84-1.75-71.65-5.46-107.57-4.05-105.97,3.62-212,4.74-317.93,8.55-34.13.38-67.86-6.32-101.89-8.24-62.44-1.44-124.87,1.91-187.31,2.54-62.06.82-124.1-.67-186.14-1.28-50.01.5-100.08,2.99-150.05-.31-32.39-3.98-64.84-.49-97.29-.66-17.11.4-33.45-5.57-50.23-7.54-37.48,1.14-73.41,14.44-110.87,16.51-42.4,2.03-84.93,1.2-127.36.36-2.99,4.9-8.82,7.54-14.45,7.02Z"/><path class="cls-1" d="M876.86,753.23c-50.02-1.13-100.09,1.44-150.07-1.35-41.59-2.05-82.87-8.5-124.51-10.12-82.32-5.85-164.76.48-247.16-1.86-30.93.55-61.76-1.44-92.49-4.63-58.36-2.26-116.79.77-175.17.3-45.2.05-90.39-.11-135.57,1.4-19.9,1.09-40.72-2.89-57.94,9.3-11.41,6.09-26-7.19-20.67-19.23,3.36-8.71,13.56-10.65,20.86-15,12.66-7.14,27.61-4.4,41.52-5.24,53.87-1.78,107.76-1.77,161.66-1.73,52.97.05,105.96-1.95,158.93-.71,52.85,5.55,105.93,5.17,159.02,5.76,80.19-2.02,160.43-2.78,240.4,4.84,71.9,9.71,144.34,7.51,216.69,7.7,42.56,3.14,84.31-5.52,126.5-9.13,47.3-3,94.62-4.96,141.71-10.78,44.32-4.37,88.91-3.27,133.39-3.46,51.08-.05,100.64-16.23,151.79-15.77,54.08,1.07,107.92-1.61,161.81-6.06,48.11-2.06,96.31-1.39,144.43-3.23,48.06-3,95.97-8.32,144.11-10.09,43.48-1.68,87.02-.92,130.45-4.13,57.51-2.21,114.91-5.93,172.34-9.44,58.4-2.24,116.87-1.8,175.27-4.54,83.03-4.28,165.68,5.01,248.59,6.52,120.68.29,241.32-4.34,361.64-13.53,78.42.24,155.2-4.6,233.16-13.07,36.9-3.12,73.99-1.9,110.92-4.29,26.25-1.9,52.46-4.54,78.79-4.77,129.15-.58,258.32-2.18,387.46-2.04,38.38.17,76.77.08,115.16.1,6.88,0,13.75,0,20.63,0,9.03.47,19.48-2.05,25.93,5.68,8.84,10.12-.52,27.32-14.05,24.91-42.44-.4-84.9.04-127.34-.14-82.85-1.33-165.68,1.41-248.53.98-73.7,1.37-147.64-1.96-221.16,4.59-34.02,3.21-68.23,2.37-102.33,3.93-56.57,3.11-112.74,11.59-169.42,13.16-53.14,1-106.31.74-159.23,6.51-83.71,5.76-167.59,6.85-251.45,8.54-65.31,1.43-130.31-4.47-195.48-7.29-85.31-.86-170.56,3.82-255.85,4.72-74.1,4.23-148.18,8.71-222.33,11.92-56.19,1.39-112.45,1.61-168.45,7.03-69.48,7.43-139.32,6.06-209.05,8.28-26.71,1.14-53.29,4.15-79.97,5.65-31.78,1.4-63.6-.21-95.39.89-36,.81-71.2,9.47-106.87,13.56-48.82,4.34-98.01-.02-146.9,3.62-28.21,1.97-56.23,5.81-84.43,8.02-30.68,2.22-61.49,2.39-92.1,5.66-36.27,4.64-72.57,10.36-109.24,8.05Z"/><path class="cls-1" d="M-128.83,987.19c-15.4-8.51-5-29.62,6.73-36.68,6.97-3.23,14.2.12,20.95,2.27,7.63,1.42,15.34,1.72,23.07,2.25,60.64.84,121.33.91,181.97.08,68.13-3.43,135.27-19.48,203.83-15.7,47.11-.15,94.26-7.04,141.32-1.79,35.64,2.68,71.42,1.42,107.12,2.31,56.66,2.59,113.28,6.01,169.95,8.45,49.32,2.2,98.6,6.12,147.99,5.68,64.15-3.06,128.16-7.77,192.47-5.54,72.27,2.13,144.63,2.12,216.92,1.22,41.45-2.19,82.8-6.5,124.36-6.14,81.79-1.31,163.76,4.07,245.34-3.5,37.92-3.21,76.04-2.63,113.98-5.21,36.92-2.63,73.43-9.42,110.41-11.56,41.07-3.13,82.32-1.16,123.41-3.6,26.57-1.84,53.16-4.1,79.8-4.4,203.89-2.16,407.71,7.16,611.63,5.51,33.33,1.34,65.64-8.97,99.01-8.12,48.77.72,96.99-7.65,145.65-9.11,28.65-.46,57.31-1.44,85.82-4.42,51.48-6.97,103.32-9.5,155.25-8.58,48.51.42,96.98-1.79,145.49-1.48,50.85-.21,101.77,1.48,152.43-3.56,37.26-3.41,73.86,3.49,110.49,9.24,51.52,5.57,103.59,2.25,155.32,2.76,16-.31,32.05.39,47.99-1.11,22.15-3.72,43.6-10.73,65.41-16,7.98-2.29,16.58,2.07,19.04,10.12,2.4,7.84-2.14,16.75-10.12,19.04-11.9,3.22-23.9,6.02-35.79,9.29-44.73,14.23-92.29,7.87-138.5,9.39-26.24-.13-52.5.37-78.72-.71-34.12-.67-67.15-11.21-101.17-12.17-23.25-.4-46.43,1.43-69.57,3.4-30.06,1.56-60.23.51-90.32.82-70.86-.33-141.69,1.96-212.55,1.54-43.91-.64-87.31,6.25-130.94,10.01-32.89,2.92-65.95,2.11-98.88,4.36-40.81,4.13-81.6,8.06-122.67,7.86-33.1.45-65.22,10.2-98.5,7.97-116.09-.34-232.18-1.58-348.27-2.78-90.43-4.03-180.97-4.23-271.46-2.49-62.69,5-123.04,5.09-185.49,7.46-41.71,2.58-82.88,10.4-124.62,12.61-52.68,1.14-105.22,4.49-157.78,8.08-84.16,1.93-168.49-3.15-252.59,1.82-43.27,3.9-86.67,5.11-130.1,4.58-77.75.91-155.44-2.82-233.18-1.74-33.94.25-67.65,4.99-101.6,5.39-140.2-.71-280.06-15.36-420.3-15.41-44.81-4.92-89.68-1.57-134.54.68-29.44.72-58.91-.69-88.31,1.67-27.04,2.58-53.9,6.66-80.86,9.93-53.82,7.19-108.29,4.32-162.44,4.85-34.68-.93-69.84,2.24-104.13-3.84-4.09,6.35-13.08,8.69-19.75,4.97Z"/><path class="cls-1" d="M-133.82,1245.21c-18.54-8.33-7.08-34.08,9.42-38.24,18.81-6.69,39.22-3.52,58.79-4.84,39.91-4.14,79.84-7.94,119.76-11.95,33.39-5.62,67.22-5.27,100.91-7.04,32.03-4.21,63.6-11.72,95.88-14.06,29.79-1.51,59.66-1.34,89.45-3.08,101.36-5.25,202.44,3.65,303.73,5.5,69.41-1.01,138.43,7.19,207.86,6.68,21.44.54,42.75,2.93,64.07,5.08,43.85,2.9,87.84,1.6,131.76,1.91,29.93-.29,59.93.85,89.81-1.21,25.04-2.13,49.99-5.45,75.13-6.16,42.66-1.61,85.4.31,128.03-1.59,31.49-1.6,62.9-4.57,94.38-6.3,55.04-3.77,110.23-1.87,165.34-2.96,29.84-.67,59.5-4.79,89.39-4.39,149.82,1.1,299.52-5.13,449.31-6.02,31.48.25,62.72-4.11,94.16-4.79,30.4-.23,60.79-.48,91.09-3.28,106.97-6.38,214.2-4.58,321.3-4.16,76.86,4.32,153.85,2.26,230.76,1.46,32.68,1.46,65.29,4.16,98.04,3.61,56.55,1.09,113.08,1.24,169.61-.42,42.6-.65,85.31,1.46,127.8-2.31,57.92-7.58,116.25-10.86,174.3-17.07,60.35-2.71,120.79-.06,181.17-.06,75.14.65,150.46-1.77,225.46,3.34,11.54.85,23.12,1.68,34.67.63,12.6-.35,28.62-6.36,33.92,9.06,11.38,34.91-83.16,17.87-101.24,18.68-32.78-.28-65.55-1.17-98.34-1.19-106.1,2.76-212.9-7.51-318.54,4.5-25.04,2.98-50.24,4-75.36,6.04-23.71,2.72-47.31,6.35-71.14,7.79-98.08,1.92-196.22,2.81-294.33,1.45-28.55.46-56.96-2.37-85.46-3.54-37.12-.15-74.21,1.76-111.34,1.12-109.81-1.29-219.58-4.38-329.45-2.73-69.24.73-138.22,7.88-207.48,7.7-47.81,3.34-95.59,5.76-143.55,4.86-137.67,3.65-275.35,5.77-413.07,6.19-77.8,6.72-155.89,2.39-233.8,6.89-36.84,1.92-73.56,5.83-110.45,6.95-63.28.37-126.58-.74-189.5,7.23-67.49,2.5-135.2,1.21-202.73.52-50.5-4.27-100.95-7.85-151.69-7.64-24.77-.44-49.43-2.71-74.11-4.69-50.32-1.09-100.68-.01-150.93-3.49-73.81-3.66-147.66-5.86-221.55-2.5-28.74,1.61-57.53,1.47-86.26,2.95-28.36,2.41-56.19,8.57-84.3,12.79-22.6,3.42-45.58,1.72-68.29,3.48-27.9,2.16-55.5,7.24-83.48,8.63-23.98,1.57-47.69,5.76-71.66,7.4-19.02,2.68-38.83-1.34-57.41,3.74-2.38,8.26-12.08,12.56-19.87,9.58Z"/><path class="cls-1" d="M-146.1,1446.75c-22.47-33.7,38.16-29.67,57.1-30.77,30.81-.64,61.62-1.11,92.43-1.46,63.26.52,126.15-9.33,189.48-7.1,43.07,1.96,86.09-3.51,129-6.65,44.78-7.01,89.53-16.08,135.05-15.79,44.14.11,88.51-1.78,132.36,4.42,149.85,14.71,300.96,10.53,451.37,11.41,85.57,2.21,170.76-4.93,256.15-8.43,70.04-4.05,140.29-1.74,210.26-5.96,126.75-15.26,254.61-13.11,382.04-13.23,89.57-.89,179.11,1.83,268.48,7.71,181.83,2.7,363.8,3.92,545.61.12,49.31,1.19,98.59,1.17,147.89.98,54.37,2.03,108.66,6.58,163.11,7.11,30.76.04,61.23-5.2,92.04-4.72,29.83-.45,58.08-5.34,87.51-6.06,72.14-2.1,144.28-.39,216.41.62,30.19.69,60.03-4.89,90.19-4.97,41.83.38,83.66,1.57,125.52,1.28,27.27,1.01,54.57,1.03,81.84,1.93,21.85.84,43.61,4.54,65.51,3.18,24.95-4.02,49.39-10.7,74.89-10.78,6.08-.26,12.19-1.52,18.19-.04,7.92,1.58,13.43,10.52,11.33,18.35-1.64,7.7-9.82,12.96-17.48,11.47-10.73.54-21.46,1.4-32.18,2.13-24.58,2.73-48.36,11.89-73.44,9.38-39.26-3.18-78.03-4-117.27-4.98-49.68.25-99.34-1.65-149-1.11-24.9,1.01-49.63,5.14-74.61,4.65-76.88-.71-153.84-3.4-230.71-.06-48.33,5.08-96.94,4.97-145.29,9.64-65.91,2.28-131.7-5.27-197.54-6.85-31.31.19-62.63,1.6-93.93-.03-88.95-1.9-177.88,3.57-266.86,1.79-107.23-1.53-214.5.24-321.71-2.58-138.05-9.8-276.47-7.77-414.77-7.5-78.23.77-156.48,3.76-234.21,12.99-75.06,4.31-150.41,2.28-225.54,6.46-85.05,4.79-170.01,9.86-255.26,7.98-139.61-.09-279.52,1.31-418.82-8.91-54.14-8.14-108.87-7.66-163.47-6.72-39.77.76-78.87,9.16-118.08,15.09-33.38,3.58-66.98,5.06-100.46,7.57-47.39-.41-94.87-1.24-142.15,3.19-38.97,4.24-78.16,3.23-117.29,3.95-29.22.66-58.49.41-87.65,2.44-9.15.96-18.34,6.17-26.05-1.17Z"/><path class="cls-1" d="M-67.55,1686.29c-16.15-.15-32.44.42-48.28-3.29-11.72-1.51-23.52-14.73-14.91-26.18,4.58-6.48,14.48-8.68,21.04-3.79,5.26,1.76,16.21,2.45,20.85,2.6,28.12.78,56.16-1.56,84.23-2.79,39.44-1.73,78.95-.06,118.36-2.32,33.74-3.03,67.6-5.1,101.29-8.56,33.25-3.94,66.3-10.22,99.77-11.99,78.98-2.41,157.97-5.11,236.94-7.76,67.97-6.45,136.44-4.04,204.63-6.55,208.89-6.39,417.92-8.57,626.8-14.56,175.45-10.7,351.39-5.21,527.05-7.33,31.23-3.21,64.44-2.66,94.97-6.86,19.55-3.55,38.32-10.51,58.08-13.1,24.82-3.34,49.86-5.4,74.87-6.72,31.16-1.48,62.39-1,93.56-.06,36.74.93,73.5-.73,110.19,1.81,46.8,5.41,93.74,4.9,140.75,5.28,25.61,1.34,50.93,5.43,76.46,7.55,29.47,1.3,58.99.48,88.47,1.13,191.81,4.35,383.94,9.65,575.73,1.69,39.65-1.71,79.17,3.42,118.8,3.14,116.43-2.13,232.84,2.03,349.12,6.84,27.05,2.43,54.32,1.37,81.31,4.13,15.11,2.13,29.85,6.37,44.85,9.15,27.98,5.13,57.05-.04,84.66,7.51,13.02,2.67,27.72,17.43,16.3,30.12-5.56,6.04-15.54,6.6-21.55.87-10.14-5.32-22.71-3.96-33.9-5.1-22.3-.24-44.76-.91-66.46-6.58-20.84-5.63-42.28-7.78-63.83-7.41-40.96-2.48-82.01-2.8-122.93-5.72-89.99-2.78-180.14-4.91-270.18-3.25-36.16.13-72.22-4.43-108.39-3.4-182.3,7.31-365,4.12-547.31-.9-43.59-1.28-87.27,0-130.82-2.14-30.91-2.79-61.63-7.96-92.76-7.57-51.1,2.16-101.75-4.2-152.7-6.43-73.08,1.3-148.98-4.86-221.36,3.99-23.82,1.63-46.56,8.56-69.64,14.07-38.72,6.25-78.31,6.02-117.4,8.76-174.33,1.23-348.91-3.26-523.01,7.49-252.26,5.13-504.54,11.92-756.82,16.59-30.66-.19-61.05,4.47-91.66,5.39-61.56.11-122.98,4.43-184.49,5.68-61.58-.08-121.82,15.5-183.34,17.3-75.51,8.43-151.63,3.84-227.35,9.28Z"/><path class="cls-1" d="M-125.94,1832.99c-9.12-1.42-19.89-4.04-22.94-13.68-2.56-7.74,2.28-16.83,10.12-19.04,7.41-2.41,13.96,3.18,21.36,2.92,12.4.14,24.39-4.02,36.65-5.48,46.84-2.4,93.95,1.43,140.83-.79,51.11-7.83,102.49-3.41,153.88-4.14,59.62-2.35,119.33.68,178.78-5.61,47.94-1.36,95.9-1.47,143.71-5.79,38.03-2.84,76.11-.27,114.17-1.45,30.41-1.96,60.68-6.41,91.17-7.04,84.75,3.57,169.52-.41,254.34,1.03,99.49-.97,198.76-9.35,298.19-12.73,59.48-3.94,120.54-5,179.92-6.84,31.25-4.46,62.33-10.68,94.12-9.68,64.28.53,128.51-1.72,192.78-1.57,72.35.51,144.65,5.62,216.99,3.97,35.74-.72,71.43,1.69,107.14,2.25,35.66-1.12,71.31-3.97,106.99-1.79,57.99,4.27,115.96,6.93,174.14,6.34,64.44,1.77,128.73,6.61,193.12,9.17,48.38-2.12,95.21,11.65,143.13,15.1,20.96.43,41.84-2.64,62.82-1.12,31,1.33,61.5,7.93,92.44,10.11,22.97,1.61,45.84-1.4,68.76-2.37,32.95-1.5,65.96-.91,98.94-1.07,76.45-1.39,152.72,4.27,229.12,4.66,91.81,11.46,184.35,4.67,276.6,8.31,22.13,1.04,44.02-3.65,66.14-3.57,22.8-.52,45.54,3.33,68.32,1.93,19.49-2.01,38.56-7.07,58.25-7.27,23.92-1.24,47.64,3,71.5,3.69,31.04.81,61.56-6.52,92.33-8.35,21.93,1.16,43.55,11.48,65.52,8.32-8.81-14.73,11.02-30.54,23.5-18.94,6.08,5.36,12.16,11.48,13.95,19.64,1.48,12.57-7.44,24.77-19.92,27.05-16.91,4.16-34.86,4.1-51.91.71-12.79-2.13-25.38-7.47-37.98-6.12-30.16,4.62-60.72,8.95-91.31,7.93-24.85-1.07-51.21-5.48-75.07-2.85-18.09,1.43-35.72,6.62-53.93,7.02-30.38.02-60.83-4.62-91.14-.53-37.74,4.54-75.83-.59-113.73.43-61.4-.75-123.08,2.94-184.08-5.49-31.53-3.49-63.24-1.02-94.85-2.72-73.02-4.66-146.21-3.42-219.34-3.13-42.24.12-84.39,7.09-126.5.79-40.65-6.71-81.48-9.71-122.59-6.47-33.58-.2-66.37-8.78-99.55-12.93-24.5-3.12-49.27-1.72-73.89-2.99-28.49-1.39-56.91-4.03-85.41-5.24-67.93-3.46-132.39-2.6-199.06-5.51-36.16-3.13-72.37-5.4-108.68-4.71-24.27,1.08-48.55,3.06-72.86,2.13-44.78-2.39-89.57-1.95-134.38-1.38-87.56-2.36-175.17-6.6-262.77-3.39-46.74,1.34-93.57-1.36-140.26,1.99-31.08,4.44-61.83,10.24-93.41,9.35-138.89,2.94-277.51,13.74-416.36,18.25-90.06-1.36-180.15,2.9-270.12-.86-33.33-.38-66.41,4.76-99.62,6.98-42.09,1.09-84.25-1.56-126.27,2.27-43.73,3.9-87.64,3.52-131.47,4.95-43.33,3.93-86.77,5.21-130.28,4.4-44.07,1.13-88.08,2.13-132.14.11-31.24-.16-62.11,5.69-93.32,6.14-38-.56-76.74-1.22-114.52-.48-16.68,2.31-33.1,7.93-50.07,5.17Z"/></g></svg>