<?xml version="1.0" encoding="UTF-8"?><svg id="Image_6" xmlns="http://www.w3.org/2000/svg" width="3840" height="1920" viewBox="0 0 3840 1920"><defs><style>.cls-1{fill:#000;}.cls-1,.cls-2{stroke-width:0px;}.cls-2{fill:#5b5d63;}</style></defs><path class="cls-1" d="M1636.85,429.99c13.3,1.12,18.28,12.39,14.7,20.89.02,1.18-.1,2.39-.37,3.58-4.72,28.66-1.22,58.34-2.26,87.35.13,45,1.14,90.04-5.12,134.72-4.12,56.42.43,112.97-.34,169.46-2.19,37.46-1,74.74.41,112.19.25,24.73-.42,49.46.93,74.16,1.22,115.86,6.68,231.61,6.41,347.48-1.22,58.38-2.74,117.31-3.89,175.61-1.64,23.12,4.04,51.36-28.66,51.43-16.61,1.79-32.99,6.38-49.84,5.32-15.28-.6-30.17-4.17-45.37-5.63-16.99-.86-34.58-.22-48.71-11.33-20.98-7.97-21,11.99-47.89,12.65-26.91,2.99-23.18-30.47-17.77-47.58,4.41-16.85,6.91-34.04,7.65-51.44.59-22.7,1.52-45.49.03-68.16-3.95-26.18-8.3-52.38-7.14-78.98-.12-25.23,1.13-50.57-.32-75.75-7.6-20.84-10.76-42.81-11.96-64.89-2.75-7.41-5.26-14.91-6.55-22.66-21.07,3.84-43.1,2.16-64.11-1.27-22.47.98-44.62-3.28-67.02-2.13-21.63,1.5-43.06-2.85-64.7-2.06-26.5,1.45-53.05.35-79.53,1.32-20.43.63-40.88-.61-61.25-2.07-25.86-.7-51.48,1.69-77.21,2.54-1.6,23.54-2.02,47.27-6,70.64-1.6,10.02-5.23,19.69-5.58,29.89.55,36.94-1.99,73.82-1.75,110.75,1.08,19.72,4.05,39.3,3.55,59.12,2.51,36.68,3.91,73.38,3.49,110.16-2.66,20.25,8.59,61.87-22.43,61.73-26.01-3.06-52.52-1.2-78.45-5.84-18.48-2.64-36.74,3.03-55.2,1.25-11.91-.24-23.31-3.89-35.09-5-13.39-.02-26.61,3.18-40.02,1.02-3.71-1.05-7.55-1.41-11.39-1.62-2.98,1.02-6.62,1.12-10.86-.05-.42-.24-.84-.5-1.25-.76-2.56-.34-5.07-.89-7.51-1.8-8.41-5.12-9.88-14.14-8.84-23.49-.11-.93-.17-1.86-.18-2.79-.91-21.39,3.17-42.64,5.59-63.83,3.19-39.95,5.33-80.01,7.76-120.02,13.93-69.93,5.62-141.63,7.63-212.45,1.1-52.1.51-104.21.15-156.33-1.65-90.85-4.2-181.66-3.28-272.57-.05-81.78-3.23-163.48-2.3-245.28-.33-24.74,1.7-49.86-4.48-74.07-3.71-13.33-4.97-27.12-7.44-40.7-2.46-3.27-3.71-7.53-3.19-11.5.57-12.81,17.39-20.22,26.62-10.57,21.53,5.4,43.98,2.36,65.56,7.18,13.03,3.73,26.37,5.58,39.93,5.39,14.09.77,27.92,5.39,41.9.89,28.56-2.55,56.68-9.6,85.48-8.82,12-.56,30.24-1.63,30.77,14.8-7.53,25.26-5.64,52.34-7.89,78.66-1.56,44.14-4.59,88.26-8.93,132.23-.31,14.88-.07,29.77-.14,44.65v39.92c2.23,4.88,2.38,11.44-1.17,19.25-1.29,55.23.37,110.54-4.87,165.55,19.77,3.27,38.94-.5,58.38-3.52,22.35-1.02,44.61-3.95,66.98-4.13,14.55-.53,28.91,2.72,43.42,2.43,17.64-3,34.54-7.73,52.25-3.07,16.54,4.94,33.68,2.59,50.55,4.41,13.51,1.84,26.19,9.12,40.12,7.21,12.89-2.2,26.09-1.23,38.92-3.49,25.89-7.04,52.32-11.86,78.83-15.92,2.04-.16,4.34-.52,6.8-.98-3.05-17.69,2.65-43.21,2.74-56.41,1.98-21.62,2.55-43.34,4.03-65,4.12-46.67,4.69-93.62,4.94-140.44-3.8-22.55-4.39-45.38-4.14-68.22-.35-30.1-.43-60.24-1.05-90.32-1.16-10.68-13.61-19.54-5.04-30.96,9.25-9.57,17.41-7.74,23.61-1.05,6.95-3.93,15.57-.56,23.14,1.62,8.5,1.33,17.12,1.34,25.7,1.63,17.72-.02,35.33,3.7,53.05,2.26,13.75-1.74,27.46-3.69,41.35-3.92,24.89-2.26,41.63-2.12,65.07,7.52Z"/><path class="cls-1" d="M2070.27,1204.45c2.63,42.83,1.12,85.79-.46,128.63-.32,33.34-1.87,66.52-7.5,99.43-2.11,31.86.64,63.9,1.33,95.79-.97,19.41,13.89,52.66-13.42,58.73-15.07.88-30.22-1.1-45.3.84-10.89,2.92-22.48.25-32.63,5.76-11.67,4.64-24.41,2.45-36.62,3.64-13.15,2.11-25.67,7.05-39.26,6.46-14.07,1.34-28.68,3.14-42.7,1.19-30.12-5.36-15.57-83.68-17.52-107.74,1.67-27.79,0-55.66,1.67-83.45,3-29.03,5.07-58.09,7.17-87.19,6.14-63.38,4.28-126.96,3.79-190.52.3-50.37-1.38-100.72-2.22-151.07.18-10.78.44-21.56.09-32.34-2.06-15.77-1.86-44.19,21.6-37.99,9.78.14,18.99-3.88,28.84-3.6,17.6-.6,35.52,1.49,52.91-1.8,20.55-6.59,42.18-4.83,63.44-4.9,15.36,1.59,34.56-2.3,46.69,9.05,13.13,17.59,4.58,41.84,7.55,62.22,4.63,42.45,1.89,85.26,2.29,127.87.66,33.71-3.35,67.36.26,101Z"/><path class="cls-1" d="M2082.19,448.81c-.02,27.3.16,54.71-2.02,81.93-4.42,31.47-6.54,63.22-5.95,95-.19,20.03,5.79,53.31-23.96,52.26-12.04.85-24.11-.18-36.16-.6-8.17,0-16.18,3.21-24.4,1.55-16.23-.66-31.66-5.07-47.77-5.99-15.36-4.12-31.09-3.46-46.82-4.84-10.72-1.14-20.94,2.88-31.58,2.91-14.39.57-31.51-6.11-30.52-23.03-.7-13.04-1.25-26.07-.32-39.11-.77-27.98-3.17-55.88-2.17-83.95,1.03-27.54-1.91-55.57,2.41-82.84-8.29-7.39-11.95-20.55-2.08-28.4,15.02-9.64,34.84-1.31,51.48-4.77,17.75-7.89,35.87-2.95,54.16-.84,21.7.93,43.4-.29,65.1-.38,17.17-.25,34.34.67,51.49-.03,31.23-10.62,27.55,20.35,29.11,41.13Z"/><path class="cls-1" d="M2526.66,445.06c-.1,61.87,2.62,123.76.3,185.62-.16,30.93-4.93,61.59-5.09,92.51-2.04,36.74-3.26,73.56-6.5,110.24-3.87,120.53-1.67,241.25-9.73,361.36-3.84,86.02-5.07,172.12-5.81,258.21,1.3,29.77-.39,59.66,2.29,89.36,4.37,44.83-4.36,49.22-47.95,42.05-17.63-3.62-34.18-13.68-52.32-13.87-13.79,2.87-27.53,1.26-41.36-.14-22.5-1.15-44.82,1.48-67.27,1.63-12.74,1.83-26.68,3.83-38.65-2.12-11.84-5.73-9.97-24.66,2.7-28.05,1.08-.41,2.14-.61,3.18-.66.46-17.13,5.3-34.18,5.15-51.51,1.1-49.63,2.75-99.17.16-148.74,2.1-86.8,2.34-173.56,2.01-260.41-3.05-54.71,1.91-109.21,1.3-163.86-.05-16.5-.26-33,1.3-49.45,1.33-42.19-2.81-84.88,4.62-126.63,3.67-45.04,2.46-90.39,6.33-135.4,1.35-36.12-.62-72.38-.03-108.56-.87-25.77-2.69-51.81,3.86-77.04-.26-10.43,5.43-22.18,17.54-20.8,5.83,1,9.32,3.59,11.28,7.12.85.18,1.72.38,2.62.62,18.82-1.04,37.67-1.04,56.5-1.42,15.94-3.64,32.27-2.93,48.5-3.08,16.99-2.64,32.47,6.79,49.45,4.09,34.18,7.05,58.94-8.75,55.62,38.93Z"/><path class="cls-1" d="M2957.47,421.82c3.09,6.6,1.23,14.11.06,20.93-1.6,8.98-2.41,16.72-3.51,25.55-2.95,23.91-.51,47.95-.35,71.93.08,18.69-1.1,37.38-.64,56.06-.02,85.21-4.44,170.39-6.02,255.55-1,22.97,3,45.57,5.02,68.35.86,31.82,2.72,63.62,1.54,95.46.94,27.39-4.31,54.46-3.1,81.83.94,44.73,3.62,89.52,1.38,134.23-.19,32.74,4.92,65.25,1.16,98-.52,52.89-1.13,105.93-8.53,158.38-6.12,26.68-3.12,54.35-10.24,80.82-2.82,10.11-1.27,22.64-11.21,29.11-13.36,7.54-29.79,3.65-44.47,4.64-14.05.9-27.66-2.02-41.51-3.46-20.84-1.56-41.67,1.55-62.43.6-12.29-1.94-24.04-6.62-36.47-8.1-8.74-.94-17.5-1.53-26.04-3.76-11.62.29-23.34,2.34-35.03,1.35-18.63-1.08-24.86-15.39-21.16-25-.05-6.88.75-14.04.48-19.68.41-19.79.38-39.58.36-59.37-.36-32.5-3.23-65.16-7.14-97.42-3.41-43.48-3.17-87.21-3.18-130.83-.18-52.14-.98-104.29,3.19-156.3,5.27-63.73,2.88-127.89,7.21-191.66.79-27.77,6.02-54.92,9.16-82.41-.23-25.51,5.13-50.61,4.61-76.16,2.82-31.21,4.3-62.4,5.42-93.71.13-36.12,2.78-72.13,4.04-108.17-2.21-44.61-2.07-90.02,10.43-133.23,5.94-14.63,25.62-10.59,29.04,1.52,7.88-3.4,17.26-.71,25.7-.05,9.18.32,18.19-1.62,27.32-2.15,18.96,1.47,37.53,1.18,56.43-1.32,18.66-.56,37.35-.08,56-1.39,11.2-.27,21.87,2.64,32.99.09,13.4-3.3,32.12-4.52,39.48,9.79Z"/><path class="cls-2" d="M692.78,410.51c-11.23,3.02-21.45-4.09-30.49-9.82-17.19-8.69-31.26-22.13-40.28-39.23-21.7-36.3-38.31-69.95-40.15-113.14-1.72-38.88,7.8-77.51,21-113.73,6.16-12.52,23.96-11.35,29.78.92,10.13,13.69,19.07,29,30.45,41.42,5.53-14.06,49.38-77.63,64.27-74.85,15.59-.55,19.82,16.13,20.8,28.63,2.39,8.2,5.68,16.12,7.34,24.55,7.9-14.77,20.16-26.65,30.32-39.84,24.44-33.34,51.32-33.35,60.37,10.44,12.37,52.15,10.66,106.81-8.84,156.98-8.24,25.75-21.77,50.92-41.08,70.02-11.82,6.67-19.25,18.39-31.09,25.08-14.1,10.37-56.51,42.52-72.39,32.57ZM698.41,381.61c.23.12.46.25.69.38,10.97-2.58,20.43-10.74,30.31-16.23,13.06-8.08,25.68-17,36.1-28.32,7.08-5.75,14.99-10.04,19.74-18.21,17.41-23.7,26.55-52.12,33.15-80.46,9.64-36.18,5.18-74.67-3.11-110.72-11.7,14.25-25.24,27.68-34.06,43.97-5.47,11.13-7.03,25.6-18.16,32.83-34.39,14.9-32.45-39.32-42.15-59.05-9.73,13.44-20.91,26.06-28.83,40.7-3.85,8.28-4.16,18.67-11.35,25.04-14.4,11.19-29.2-5.92-40.61-13.83-7-6.79-11.05-16.07-17.45-23.43-16.66,49.2-14.31,106.72,14.37,151.03,13.36,27.17,22.01,40.89,49.95,54.74,3.81-1,7.97-.25,11.44,1.57Z"/><path class="cls-2" d="M697.58,341.47c-17.74-2.29-13.69-21.95-10.62-34.42,3.28-13.28,6.63-26.57,10.22-39.78-5.09,3.37-10.23,6.68-15.29,10.12-1.78,3.68-5,6.64-9.18,7.92-7.97,2.48-16.27-2.46-19.78-9.5-5.6-11.62,5.21-19.98,14.19-25.22,9.04-5.95,17.85-12.36,27.66-16.99,9.16-5.53,19.79-16.85,30.81-8.77,12.99,11.22,4.02,32.88,1.88,47.38-4.29,15.9-8.6,31.85-12.04,47.97-.18,10.46-5.42,22.76-17.83,21.27Z"/><path class="cls-2" d="M1388.71,568.74c-36.79-2.92-73.77-11.7-107.76-26.1-24.36-10.02-41.57-30.01-62.13-45.56-30.94-21.04-55.14-50.29-83.18-74.8-24.82-20.48-51.93-38.09-75.28-60.3-17.47-13.29-37.07-23.49-52.78-39.12-16.7-12.54-36.15-20.07-56.47-24.07-6.01-3.99-13.18-6.12-20.46-5.95-4.1.09-8.13.91-11.92,2.37-6.97-.23-13.92-.15-20.79.19-12.6,1.17-23.9,7.33-35.3,12.34-11.49,4.74-22.77,9.94-33.8,15.6-2.61,1.05-5.18,2.19-7.75,3.37-4.49,2.07-8.69,4.78-12.64,7.76-5.38,3.12-10.69,6.35-15.93,9.7-9.73,7.17-15.08,18.44-22.99,27.33-9.82,11.41-19.97,22.79-28.02,35.53,10.19,33.71-47.58,29.71-26.27-15.64,9.01-14.39,20.38-27.26,31.45-40.1,6.34-7.89,11.79-16.47,18.72-23.88,27.23-23.52,61.74-37,94.2-51.76,40.1-19.7,95.02-11.36,135.16,5.02,24.12,8.14,40.27,28.26,61.26,41.39,17.3,9.34,30.89,23.43,45.79,35.94,27.68,20.1,55.63,40.46,79,65.57,21.11,19.21,41.06,39.47,64.71,55.59,19.71,17.82,39.95,35.74,66.25,42.9,73.97,24.85,147.41,23.81,213.52-21.34,10.41-7.55,18.5-17.56,26.78-27.26,9.37-7.72,15.26-18.18,22.56-27.69,1-1.06,2.07-2.07,3.17-3.07.48-.26.96-.52,1.44-.78,10.38-5.64,20.49-11.73,30.35-18.24l5.05-3.34c5.29,3.96,8.16,10.91,4.03,18.82-4.11,11.38-12.94,19.8-21.82,27.55-10.21,16.78-24.66,29.99-37.59,44.64-40.29,38.2-100.63,57.8-156.4,57.8-4.76,0-9.48-.14-14.16-.43Z"/><path class="cls-2" d="M1616.73,509.37c-10.26-2.86-19.43-8.72-28.83-13.57-10.39-3.21-20.54-7.38-26.51-17.05-6.9-.79-13.13-5.36-16.09-11.59-7.63-3.17-10.57-12.65-7.61-19.87,3.97,3.92,9.4,6.14,14.97,6.14,1.38,0,2.77-.14,4.14-.42,2.78-.57,5.3-1.66,7.5-3.17,4.96-2.68,9.98-5.21,14.93-7.9,10.38-5.64,20.49-11.73,30.35-18.24,5.56-3.67,11.09-7.35,16.68-10.96.55,3.17.78,6.45,1.41,9.56,1.49,7.31,3.09,14.6,4.69,21.89,4.36,12.39,6.82,25.28,5.17,38.45.32,12.68-2.53,27.15-16.49,27.15-1.34,0-2.77-.13-4.32-.41ZM1582.99,450.84c9.37,3.32,14.67,12.99,22.85,17.33.46-.13.93-.24,1.41-.33-2.14-9.56-5.57-18.84-7.05-28.6-4.7,5.11-11.35,7.98-17.2,11.59Z"/><path class="cls-2" d="M1566.59,448.04s-.04.05-.05.08c-.05.04-.1.07-.15.1.07-.06.14-.12.2-.18Z"/><path class="cls-2" d="M1604.9,485.79c-14.13-3.22-16.47-20.14-13.54-32.19,4.71-19.01,33.47-12.71,29.8,6.51,11.7,11.35-1.21,30.39-16.26,25.68Z"/><path class="cls-2" d="M1616.85,512.62c-17.38-2.53-36.14-4.9-48.81-18.32-10.6-3.87-18.57-11.14-26.96-18.48-10.69-2.91-15.2-17.73-7.3-25.81,1.22-1.01,2.47-1.96,3.75-2.87,3.98,4.01,9.49,6.3,15.13,6.3,1.38,0,2.77-.14,4.14-.42,2.78-.57,5.3-1.66,7.5-3.17,4.96-2.68,9.98-5.21,14.93-7.9,10.38-5.64,20.49-11.73,30.35-18.24,8.11-5.35,16.17-10.74,24.41-15.88.02,0,.03,0,.05.01,24.09,8.28,11.29,40.81,10.29,59.49-2.51,15.36-3.51,45.68-23.41,45.68-1.28,0-2.64-.13-4.08-.39ZM1573.44,463.26c13.3,3.91,20.55,17.04,35.44,17.06.84.17,1.67.34,2.5.52,2.81-11.2,2.98-22.9,5.16-34.25-14.3,5.41-28.57,11.55-43.11,16.68Z"/><path class="cls-2" d="M1566.59,448.04s-.04.06-.05.09c-.05.03-.1.07-.15.1.07-.06.14-.12.2-.18Z"/><path class="cls-2" d="M1572.65,438.85s0,0,0,0c0,0,0,0,0,0Z"/><path class="cls-2" d="M1604.34,529.04c-20.09-11.94-44.45-19.31-57.88-39.84-9.85-5.64-22-8.95-28.67-18.79-7.78-11.09,3.02-26.96,16.15-23.59,10.5-8.19,21.78-10.48,31.64-18.24,7.68-5.43,17.46-3.94,24.84-9.98,13.84-8.43,30.4-29.15,47.22-15.46,22.75,17.72,6.79,53.46,3.71,77.17-5.14,20.17-5.87,59.29-37.01,48.72ZM1596.72,489.98c2.9,1.27,5.75,2.66,8.47,4.28.63.37,1.25.76,1.86,1.15,3.53-19.95,8.96-39.54,11.64-59.65-10.93,7.72-22.29,17.52-36.22,18.25-5.86,3.78-11.49,8.04-18.06,10.52,10.39,10.14,17.27,21.05,32.31,25.45Z"/><path class="cls-2" d="M713.8,415.3c17.99-27.18,39.66-51.49,66.13-70.64,8.06-7.06,18.27-9.78,28.8-10.4-1.25.94-2.48,1.91-3.69,2.9-2.94,2.41-5.82,4.81-8.41,7.59-2.6,2.79-5.11,5.62-7.53,8.58-5.96,7.29-9.96,15.88-13.74,24.44-2.17,4.92-4.12,9.93-6.09,14.94-.35.89-.7,1.78-1.04,2.68-8.85,9.29-16.94,19.33-24.3,30.03-.08,13.63-8.07,19.39-16.27,19.39-11.8,0-24.05-11.93-13.85-29.5Z"/><path class="cls-2" d="M1556.51,502.87c-23.1-.38-43.58-18.12-45.44-41.44-5.14-17.02-1.75-71.95-26.47-70.09-9,5.17-14.35,14.87-23.4,20.09-10.09,6.18-20.49,12.65-27.35,22.56,4.92,12-8.41,24.8-20.2,19.38-28.2-19.26,4.56-52.14,24.45-63.51,14.37-7.29,22.31-23.51,38.42-28.03,25.87-7.68,50.4,15.13,55.68,39.37,3.53,12.97,4.18,26.45,6.65,39.63,1.7,13.44,2.04,32.76,20.34,31.71,20.85.05,42.99-43.55,58.67-57.59,12.16-15.73,36.31,2.8,24.19,18.59-24.41,24.22-45.51,73.13-85.54,69.33Z"/><path class="cls-2" d="M1625.87,505.67c-16.27-2.63-32.07-52.43-39.82-67.57-9.45-14.18-16.58-29.97-12.78-47.38-9.95-16.98,13.92-31.75,26.57-18.01,20.5,4.67,41.45,10.17,60.69,18.21,14.55,12.41-.45,32-1.88,47.18-7.59,20.34-.13,72.41-32.79,67.57ZM1624.94,451.63c.06-.32.12-.64.18-.97-.14.14-.28.27-.42.41.08.19.16.37.24.56ZM1629.72,421.18c.28,1.16.56,2.33.81,3.5.88-3.7,1.83-7.39,2.89-11.06-2-.69-3.99-1.39-5.99-2.07.74,3.21,1.52,6.42,2.3,9.63Z"/><path class="cls-2" d="M971.14,918.47c-15.55.15-29.73-20.97-19.36-33.97,2.44-5.93,8.01-8.3,13.13-11.13,4.62-7.59,9.65-14.96,17.39-19.63,7.37-14.41,18.44-26.85,23.73-42.28,9.06-30.84,16.01-60,11.03-91.49-5.42-21.17-15.83-42.71-34.29-55.31-12.95-11.38-25.27-23.42-40.74-31.42-32.78-19.92-65.44-40.02-98-60.3-14.64-6.94-24.93-19.41-37.34-29.28-12.42-7.23-26.05-13.21-35.66-24.33-12.32-16.21-24.12-33.5-32.31-52.22-7.05-16.57-6.93-34.63-8.45-52.07-.13-14.98,21.15-20.79,28.47-7.48,4.23,7.22,3.01,15.6,2.97,23.57,1.16,14.46,5.54,28.44,13.56,40.57,18.39,29.18,19.05,30.89,49.39,47.35,13.35,10.31,24.2,23.41,39.88,30.56,18.5,11.43,36.81,23.17,55.16,34.83,23.25,13.7,47.83,26.21,68.24,44.06,19.59,17.31,38.13,29.96,48.1,55.49,22.2,40.72,12.39,89.43.56,131.87-4.16,16.56-14.29,30.25-23,44.59-2.97,5.3-5.72,10.83-9.98,15.23-2.77,3.17-7.21,4.33-9.2,8.17,4.81,15.15-6.36,35.08-23.28,34.63Z"/><path class="cls-2" d="M949.1,920.72c-12.09-14.3-9.49-61.41-11.17-77.27-.33-16.05,23.67-20.78,29.34-5.7,3.31,17.58,1.13,36.07,4.3,53.89,15.37,8.16,5.36,30.55-8.56,33.57-4.2-2.54-8.96-4.15-13.9-4.51Z"/><path class="cls-2" d="M970.72,931.62c-4.38-4.87-10.17-8.47-16.51-10.07-1.78-2.86-2.99-6.06-3.57-9.27-2.08-11.46,3.84-22.92,20.49-18.3.55-1.06,1.22-2.06,1.99-2.96.55-4.58,1.86-9.02,4.13-13.04.27-.48.57-.95.89-1.41-9.35-.5-18.18-4.03-27.46-4.77-17.16-2-16.97-28.64.29-30.24,6.33.37,12.6-.33,18.86-1.03,5.54-.61,11.07-1.23,16.66-1.11,14.41,1.55,29.19,2.34,43.16,6.4,10.93,3.47,24.93,10.37,22.65,24.05-3.02,13.62-18.57,19.06-26.7,29.39-14.32,14.56-30.53,31.8-52.38,32.27-.62.05-1.24.08-1.84.08-.22,0-.45,0-.67-.01Z"/><path class="cls-2" d="M961.57,881.86c-12.89-.82-18.25-14.57-19.26-25.73-26.89-23.6,32.54-58.57,30.08-5.52,23.09,7.67,12.41,34.04-10.83,31.25Z"/><path class="cls-2" d="M967.63,944.05s.04-.02.06-.03c-.16.09-.33.18-.5.27l.43-.25Z"/><path class="cls-2" d="M956.72,922.29c4.83-8.37,11.54-13.69,22.04-10.43,10.48,4.16,12.19,19,4.39,26.47-.13.3-.26.6-.4.91-1.42.11-2.83.31-4.22.59-.73.15-1.45.32-2.14.52-3.7-8.38-11.03-15.09-19.67-18.05Z"/><path class="cls-2" d="M698.09,1621.78c-18.01-10.57,1.11-51.69,9.21-65.19,15.59-31.86,42.87-56.92,71.98-76.45,5.41-5.24,10.74-9,16.22-12,.08,12.28.4,24.56.78,36.83-15.7,11.77-31.11,23.87-44.27,38.67-12.39,15.7-23.72,33.74-28.89,53.17,6.39,11.52-5.49,27-17.74,27.01-2.46,0-4.94-.62-7.29-2.03Z"/><path class="cls-2" d="M702.46,1628.65c-10.43-6.79-31.04-57.42-33.24-70.98-11.22-5.31-12.16-21.96-1.03-27.98,8.02-3.45,20.86-3.26,28.06,1.86,17.73-1.15,35.42-.47,53.16-.09,27.6-1.71,38.67,15.09,21.94,38.2-11.07,17.39-44.94,71.64-68.88,58.99ZM715.59,1593.14c9-9.84,17.67-20.06,24.86-31.31-12.84-.5-25.67-.7-38.51-.02,4.05,10.66,8.73,21.04,13.65,31.32Z"/><path class="cls-2" d="M723.53,1564.27c-16.43-14.13,6.21-29.1,10.45-43.61,10-21.93,30.76-35.88,50.07-48.99,7.33-4.85,16.65-4.39,22.5-11.59,14.37-9.96,25.3-22.89,36.77-35.89,18.69-17.99,37.29-36.15,50.79-58.46,17.18-20.41,26.83-45.24,34.99-70.31,16.4-37.58,23.36-76.97,16.87-117.45-1.11-13.01-.7-26.61-3.18-39.4-4.45-20.02-9.55-39.89-10.2-60.53-2.59-42.06.83-84.74,7.86-126.24,3.42-11.81,4.93-26.15,14.59-34.64,6.82-5.57,18.38-3.5,22.51,4.4,6.35,12.32,12.52,33.36-7.16,36.03-6.83,41.66-10.39,84.47-6.73,126.62.85,17.41,6.58,33.95,9.45,51.02,3.12,33.11,7.42,66.59,4.63,99.88-6.15,40.61-21.94,79.57-38.33,117.01-9.64,18.6-23.37,34.61-34.61,52.22-9.79,12.31-22.03,22.56-32.4,34.41-8.71,7.57-16.11,16.39-23.41,25.3-8.47,9.55-19.84,15.93-29.14,24.65-5.26,4.98-12.24,6.66-19,8.45-6.82,3.96-13.06,8.69-18.84,14.05-24.21,9.2-29.71,70.09-58.49,53.06Z"/><path class="cls-2" d="M1042.25,1081.5c-28.27-15.33-62.28-13.04-90.47-28.44-36.43-17.65-38.03-58.79-18.47-90.16,13.77-20.99,25.32-43.25,36.17-65.78-7.92-25.1,29.46-28.68,31.88-4.21,1.96,11.25-6.84,19.46-10.21,29.34-8.04,17.81-18.37,34.43-28.4,51.16-11.78,15.92-19.45,43.84,4.01,53.1,29,13.32,62.83,12.15,90.82,28.62,17.1,10.14,1.95,36.19-15.34,26.36Z"/><path class="cls-2" d="M964.86,1209.11c-14.33-9.94-6.4-23.85,5.97-30.77,7.92-6.48,18.91-7.19,26.89-13.47,13.81-7.01,21.95-19.93,30.94-32,8.23-13.87,19.89-31.77,9.96-47.57-11.01-4.67-16.2-20.64-5.59-28.54,7.71-6.08,17.16-2.42,23.38,3.76,19.49,15.44,20.16,45.91,9.84,66.9-15.05,31.71-38.66,62.55-73.37,73.3-8.6,4.74-17.45,15.14-28.04,8.38Z"/><path class="cls-2" d="M985.01,1216.78c-25.63-12.82-34.96-52.21-49.58-75.81-7.37-20.07,22.18-29.9,29.19-9.93,18.79-.21,37.1-4.18,55.55-7.4,8.8-3.59,19.42-9.07,27.57-.7,19.44,23.96-32.54,101.97-62.73,93.83ZM993.35,1183.65c2.19-1.45,3.93-3.45,5.59-5.46-.57.14-1.13.26-1.7.38-.92,1.95-2.26,3.68-3.88,5.08Z"/><path class="cls-2" d="M743.23,445.59c-18.22-1.54-18.55-32.22-.48-34.32,8.33-5.58,16.99-10.69,25.52-16.01-.98,2.57-1.92,5.15-2.76,7.77-2.99,9.45-3.6,20.36-.43,29.91-2.04,1.23-4,2.57-5.75,4.19-3.65,4.39-8.32,8.6-14.24,8.6-.61,0-1.23-.04-1.86-.14Z"/><path class="cls-2" d="M863.48,1669.28c-23.84-1.29-50.32-17.32-66.42-34.54-10.83-13.56-18.82-29.79-33.04-40.29-9.89,8.07-21.62,15.7-27.08,27.66,11.4,33.35-40.15,28.57-30.41-5.14,4.6-20.09,36.03-51.52,56.69-53.68,29.23,1.9,42.16,34.76,59.25,54.2,14.57,12.23,33.2,23.58,52.81,21.49,12.59-1.78,21.37-11.07,28.56-20.78,8.68-9.02,18.35-17.08,26.27-26.84,17.44-15.27,40.27,8.5,14.77,29.37-26.07,24.04-40.35,52.84-81.41,48.57Z"/><path class="cls-2" d="M960.99,1676.28c-8.71-4.97-10.42-16.2-16.6-23.55-16.22-18.43-29.19-39.12-33.21-63.72-5.65-1.6-10.04-6.3-11.03-12.25-.51-3.04-.18-6.18,1.04-9.01-4.01-19.58,22.72-25.64,30.27-8.02,36.17,2.47,77.38-15.71,62.76,40.87-2.59,11.64-5.69,23.25-6.79,35.15-1.18,17.5,1.17,50.82-26.44,40.53Z"/><path class="cls-2" d="M704.18,130.38c-.11-12.56.44-24.65.96-36.63.85-.53,1.67-1.1,2.46-1.71,1.66-.16,3.32-.38,4.98-.6,3.91-.34,7.88-.54,11.82-.57,3.8.25,7.58.71,11.37,1.04-.08,1.26-.17,2.52-.28,3.79-2.16,13.18,3.01,34.34-4.86,44.6-2.87,3.34-6.79,4.82-10.74,4.82-7.86,0-15.81-5.89-15.72-14.74Z"/><path class="cls-2" d="M692.8,1814.23c-1.06-.17-2.12-.33-3.18-.48-.98-25.85-.95-51.69,1.61-77.55-1.63-46.3-.17-92.54.1-138.85.49-54.99-1.92-110.09,3.3-164.91.45-32.41.62-64.71,4.12-96.96.5-61.97.16-123.94,1.15-185.89-1.39-79.74-.61-159.49-2.3-239.21-1.09-47.55-5.04-94.92-2.75-142.52-1.48-41.26,4.46-82.18,4.77-123.36.47-29.62-4.23-59.07-1.43-88.7-.15-26.93-5.21-53.59-4.61-80.6,1.32-20.01-5.7-65.33,6.75-78.24,6.18-5.32,16.35-4.5,21.49,1.92,6.48,7.32,1.79,16.75,1.96,25.32-.81,40.71.96,81.37,4.87,121.87-2.16,34.06,1.56,67.87,1.46,101.91-3.1,72.19-8.57,144.64-3.52,216.92,4.99,149.12,3.01,298.44,2.84,447.65-.21,39.34-5.05,78.42-4.25,117.84-5.25,60-2.96,120.23-3.35,180.4.2,33.59-2.41,67.18-.39,100.75,1.59,27.56-2.71,54.93-2.09,82.48.13,8.59.52,17.18,1.02,25.76-9.12-2.17-18.29-4.08-27.56-5.54Z"/><path class="cls-2" d="M1835.19,1834.93c-10.9-8.93-6.29-25.3-8.48-37.66-1.64-17.96-2.76-35.91-2.34-53.95-.5-61.27,2.22-122.48,1.91-183.72-2.4-161.38-1.21-322.75-.77-484.13-.06-59.21-1.95-118.34-4.55-177.46.74,1,1.52,1.98,2.33,2.94,3.35,3.95,6.82,7.85,11,10.96,3.45,2.56,6.97,4.66,10.94,6.33,2.26.96,4.67,1.66,7.14,2.1,1.29,26.51,2.49,53.03,2.99,79.57,1.09,197.7-1.17,395.38,1.49,593.08-1.31,54.53-2.2,109.07-2,163.62.42,21.17,2.24,42.39,4.2,63.43,1.99,9.54-6.72,17.73-15.56,17.73-2.88,0-5.77-.87-8.32-2.85Z"/><path class="cls-2" d="M1816.47,427.72c.18-9.38.59-18.73,1.15-28.09.53.41,1.07.79,1.63,1.16,3.64,2.4,6.77,4.04,10.75,5.73,3.88,1.64,8.18,2.41,12.35,2.87,1.71.19,3.43.27,5.15.28-1.53,35.5-.14,71.14-.61,106.67-.03,88.63.34,177.26.96,265.89-2.08.09-4.14.34-6.17.75-4.59-.77-9.32-.6-13.91.81-3.72,1.14-7.21,2.77-10.35,4.89-1.02-120.31-1.22-240.64-.95-360.96Z"/><path class="cls-2" d="M1844.97,245.59c-.73-.04-1.45-.09-2.17-.12-1.22-.42-2.46-.77-3.72-1.05-3.48-.77-7.07-.89-10.59-.4.25-33.78.4-67.59-.85-101.32-23.07-25.18,25.3-43.09,30.02-5.5,1.75,14.3,1.05,28.79,1.3,43.17-.49,22.54.21,45.17.28,67.78-4.71-1.32-9.34-2.25-14.27-2.55Z"/><path class="cls-2" d="M2251.02,1807.52c-8.14-.77-14.32-8.36-13.61-16.47-.73-26.09.81-52.11,1.64-78.16,1.59-104.5,3.24-209,3.09-313.54,4.13-100.3-1.56-200.55-.82-300.88-2.66-58.25.95-116.46.84-174.71,1.72-101.12,2.28-202.24,6.38-303.28,2.85-49.95,6.46-99.88,10.33-149.76.46-28.61,1.16-57.2,2.01-85.79,2.15,1.66,4.52,3.04,7.06,4.09,3.61,1.48,7.51,2.3,11.43,2.42,2.56.73,5.21,1.12,7.9,1.12,1.35,0,2.7-.1,4.06-.29.07-.01.15-.02.22-.03-1.94,60.69-4.51,121.35-9.56,181.9-5.2,53.91-4.23,108.02-5.77,162.08-3.84,70.24-2.07,140.69-3.61,211.02-.34,40.48-2.82,80.95-1.56,121.45.07,98.77,5.22,197.59,2.17,296.34-2.23,67.65,1.81,135.46-2.46,203.03-.97,60.01,1.33,120.1-2.7,180.02-.29,10.93-.32,21.84-.29,32.77,1.37,11.36-.87,26.77-14.81,26.77-.63,0-1.28-.03-1.96-.1Z"/><path class="cls-2" d="M2267.72,193.88c2.07-21.39-2.87-45.79,8.74-64.8,14.74-17.56,37.79,4.5,23.85,21.96-2.18,37.28-3.67,74.57-4.89,111.89-2.87-.68-5.83-1.02-8.8-.99-6.15.08-12.35,1.81-17.66,4.91-1.45.85-2.81,1.8-4.08,2.82.95-25.26,1.92-50.52,2.84-75.79Z"/><path class="cls-2" d="M2651.69,1810.15c-14.07-2.34-14.75-14.62-12.7-26.32.22-8.9.09-17.81.11-26.72.63-72.5,2.93-144.95,4.24-217.43.69-117.52.05-235.06,3.63-352.52,2.02-140.82-1.87-281.72,2.44-422.5.19-44.07-.12-88.14.23-132.22,2.54-44.08,4.79-88.19,6.14-132.35,1.66-29.78,3.64-59.46,7.82-89.01,4.18,2.9,9.11,4.72,14.27,5.09.68.05,1.36.07,2.04.07,4.91,0,9.79-1.28,14.08-3.69-.08,1.46-.16,2.93-.24,4.39-5.05,32.47-6.25,65.25-8.32,98-.07,51.28-6.22,100.94-5.47,151.88.18,116.2-3.2,232.34-2.03,348.55.33,187.2-4.66,374.28-4.54,561.48-2.3,53.47-2.56,106.98-3.55,160.48-.25,9.7-.27,19.39-.28,29.1-.86,15.59,4.83,43.69-17.55,43.7-.12,0-.23,0-.35,0Z"/><path class="cls-2" d="M2667.31,215.28c-.1-10.16-5.63-20.34-2.14-30.27,5.34-19.61,36-12.31,29.59,8.24,1.33,5.93,2.18,11.94,2.77,17.97-6.91-.97-14.04.08-20.39,3.11-3.52,1.68-6.76,3.92-9.55,6.64-.09-1.89-.18-3.79-.27-5.68Z"/><path class="cls-2" d="M3122.38,1793.23c-.9-63,1.53-125.9,3.91-188.8,3.88-41.37,7.41-82.79,5.17-124.4-4.63-140.89.46-281.86-.74-422.8,4.79-133.53,4.06-267.15,5.85-400.74.29-38.59.67-77.11,4.09-115.58.26-20.56.91-41.15,4.25-61.47,10.66-68.23,11.4-137.6,10.38-206.52-8.94-7.65-4.89-22.69,3.14-29.43,10.96-8.83,25.55.37,26,13.68,2.81,21.01,1.15,42.43,1.71,63.59.34,61.07-4.44,122.01-13.47,182.37-1.55,42.53-5.6,84.96-5.26,127.55-2.99,91.77.44,183.64-2.73,275.4-1.01,72.55-4.36,145.03-3.35,217.61-.13,111.4-2.68,222.78-.27,334.16,1.9,37.66,2.41,75.44-1.01,113.04-2.49,20.22-3.88,40.48-3.83,60.86-3.37,53.47-3.67,107.07-3.32,160.63.58,19.05-29.86,21.4-30.49.85Z"/><path class="cls-2" d="M1576.99,1656.75c-20.62-.76-38.47-10.76-52.39-25.65-7.5-8.3-10.58-19.39-15.74-29.09-4.41-8.82-14.26-12.37-21.59-18.26-6.6-4.87-13.13-9.92-20.48-13.6-12.92,6.65-24.95,14.85-37.36,22.38-4.69,27.4-38.77,12.19-31-11.29,5.11-12.34,19.8-16.32,29.77-23.92,37.65-25.41,45.32-22.55,80.6,4.34,21.37,11.41,28.03,27.58,37.79,48.21,7.72,7.92,16.97,15.56,28.52,15.81,9.65,3.25,18.37-1.06,24.62-8.6,4.36-27.07-15.59-23.15-13.22-42.62,3.48-13.79,20.36-13.49,31.83-14.1,13.76-1.65,31.61,4.5,32.12,20.58,13.75,17.2-1.5,38.51-11.48,53.58-4.29,12.38-17.5,24.25-30.24,14.72-9.2,6.44-20.58,9.81-31.74,7.53Z"/><path class="cls-2" d="M1748.71,1646.26c-29.96-3.74-44.76-35.46-64.99-54.27-7.34-5.53-17.12,1.91-22.85,6.89-3.74,4.88-8,10.16-14.84,10-12.68.58-20.33-14.98-12.44-24.87,12.67-16.87,35.87-29.31,57.03-22.7,24.27,10.44,35.14,37.96,56.1,53.12,8.13,2.87,18.75,1.82,26.89-.48,9.55-9.02,17.84-19.93,23.9-31.6,7.15-18.61,35.55-7.87,28.54,10.77-7.94,16.94-19.83,32.76-33.94,45.05-12.32,9.46-28.79,8.12-43.39,8.1Z"/><path class="cls-2" d="M1807.85,1664.18c-10.45-2.15-14.39-13.32-12.31-22.87-9.09-19.22-11.29-41.92-26.46-58.03-15.36-23.44,12.14-36.93,30.33-23.61,30.81-7.16,49.41,5.1,45.82,38.01-2.24,11.12-8.4,20.89-11.93,31.59-5.35,13.01-5.22,38.84-25.44,34.9Z"/><path class="cls-2" d="M1833.23,441.78c-19.82-7.72-35.52-23.41-51.59-36.91-18.12-14.59-28.9-35.93-32.85-58.61-7.49-31.05-11.97-62.79-10.01-94.79v.13c2.34-16.48-2.4-46.03,7.31-58.68,12.25-11.66,23.26-1.01,29.86,10.31,10.26,8.11,25.05,32.1,35.56,11.39,6.03-10.16,9.41-21.73,15.99-31.58,7.01-12.33,25.64-19.08,34.22-4.68,8.16,15.77.17,35.87,7.04,51.64,14.25-14.45,25.04-32.42,42.08-44.27,33.95-23.25,46.99,8.79,44.64,39.33.7,37.27,1.07,75.05-10.21,111.01-11.16,35.18-28.14,71.18-61.65,89.1-7.57,5.97-16.47,9.45-25.64,12.1-4.61,3.82-10.58,5.7-16.59,5.7-2.76,0-5.52-.4-8.17-1.19ZM1842.35,409.39c1.91.21,3.84.28,5.77.28,1.25,0,2.5-.03,3.75-.07,6.78-.21,13.45-2.08,19.15-5.82,3.92-2.58,7.52-5.94,10.09-9.89,1.45-2.23,2.94-4.68,3.97-7.21,9.67-10.26,16.34-23.21,22.22-35.9,20.02-42.77,18.77-90.8,17.36-136.93-14.57,10.7-22.4,28.5-36.39,39.45-3.14-.75-6.4-1.06-9.63-.88-1.85.1-3.71.37-5.54.79-2.02-.84-4.07-1.59-6.11-2.38-2.28-.88-4.52-1.77-6.88-2.45-5.02-1.45-9.91-2.48-15.14-2.8-.73-.05-1.45-.09-2.17-.13-.24-.08-.49-.16-.74-.24-2.7-4.23-4.51-9.01-5.08-13.98-2.91,5.34-6.62,9.75-10.85,13.19-3.62.78-7.1,2.2-10.21,4.19-1.55.99-3.02,2.12-4.37,3.37-14.16,3.94-30.18-.07-41.78-12.67-.23,4.43-.39,8.87-.57,13.31,0-.07,0-.14,0-.2-1.3,22.9.88,45.63,5.14,68.05,0,.35,0,.7,0,1.05.02,5.57.69,11.57,3.31,16.58.27.52.54,1.03.83,1.53.03.12.06.24.09.36,2.45,19.74,14.1,34.47,28.35,46.99,1.74,3.72,4.68,7.07,7.54,9.89,1.46,1.44,3.08,2.8,4.8,3.93,3.64,2.4,6.77,4.04,10.75,5.73,1.38.58,2.81,1.05,4.26,1.44.71.51,1.41,1.03,2.11,1.54.33-.29.67-.57,1.03-.83,1.65.31,3.31.54,4.94.72Z"/><path class="cls-2" d="M1778.57,339.99s0-.05,0-.08c.09.39.18.79.28,1.18-.09-.37-.18-.74-.27-1.1Z"/><path class="cls-2" d="M1769.2,252.63c0,.11,0,.22-.01.33,0-.11,0-.22.01-.33Z"/><path class="cls-2" d="M1738.78,251.4s0-.02,0-.04c0,.04,0,.08,0,.11v-.08Z"/><path class="cls-2" d="M2019.05,701.27c-43.49-6.97-57.6-52.75-78.36-85.09-7.96-12.71-23.55-16.15-35.1-24.72-7.33,5.23-15.89,7.89-22.07,14.02-10.6,9.82-16.61,24.1-24.61,36.13.54,28.16-38.97,17.78-31.09-6.55,3.45-7.19,6.48-11.58,10.22-18.14,8.79-12.59,14.89-27.22,27.64-36.45,24.41-16.74,39.46-29.46,66.33-8.45,32.21,12.06,44.51,45.47,60.19,73.18,6.51,11.75,17.12,21.99,30.25,25.75,11.48-4.41,15.36-18.52,23-27.35,4.81-6.78,14.48-8.42,21.26-3.62,13.67,10.05,1.77,24.63-5.47,34.6-8.74,14.91-23.79,28.5-42.19,26.7Z"/><path class="cls-2" d="M2056.69,711.74c-10.77-.76-14.92-11.59-14.08-21.08-1.15-7.78-2.8-15.54-5.33-22.99-3.29-7.46-11.39-11.47-14.67-19.07-1.81-5.34-5.43-10.2-5.78-15.9-.51-11.6,12.53-19.28,22.71-14.53,21.78,6.22,55.77,9.47,44.34,40.7-3.81,14.45-6.96,55.83-27.19,52.87Z"/><path class="cls-2" d="M1870.59,944.67c-5.06-.49-10.13-2.53-14.52-5.01-2.5-1.41-4.8-3.09-6.93-4.96-45.05-10.17-69.99-68.61-75.29-110.35-1.94-22.93-1.28-45.72-.93-68.7,1.12-9.95,10.82-18.18,20.93-15.61,11.04,3.14,18.32,13.18,26.75,20.39,10.12-14.59,25.5-23.1,40.07-32.48,10.9-10.56,25.02-17.04,40.41-13.97,10.95,3.58,15.21,14.06,20.3,23.06,11.5-13.01,35.41-18.67,46.35-2.14,6.09,9.18,6.17,20.52,6.24,31.16,1.17,29.23-2.27,58.64-13.29,85.91-11.02,30.36-28.74,57.37-53.66,77.73-10.34,6.05-19.89,15.32-32.29,15.32-1.35,0-2.73-.11-4.16-.35ZM1801.09,813.49c-2.4,10.61-2.65,21.61-.51,32.31,1.1,5.47,2.43,10.77,3.94,16.13.73,2.6,1.65,5.14,2.5,7.7,1.16,3.48,2.41,7.2,3.95,10.55,3.38,7.36,7.05,14.54,12.32,20.76,3.35,3.95,6.82,7.85,11,10.96,3.45,2.56,6.97,4.66,10.94,6.33,4.18,1.77,8.85,2.67,13.52,2.67,5.12,0,10.24-1.09,14.71-3.32,3.71-1.85,7.02-3.87,9.94-6.85,1.57-1.61,2.96-3.36,4.16-5.26,42.97-33.83,59.76-93.49,55.76-147.19-11.89,13.36-25.11,35.73-44.31,17.46-9.13-8.66-2.19-22.54-8.67-31.63-12.19,8.74-25.64,17.09-37.88,26.14-3.71,3.97-7.06,8.44-10.3,12.63-.16.03-.32.06-.48.09-4.59-.77-9.32-.61-13.91.8-6.42,1.97-12.14,5.4-16.63,10.27-2.51-1.92-5.2-4.53-8.11-7.95-.4,7.01-.42,14.09-.01,21.17-.81,2.03-1.47,4.12-1.94,6.22Z"/><path class="cls-2" d="M1857.65,944.19c-17.08-2.68-28.07-17.01-38.97-29.19-14.01-12.32-19.52-29.98-27.25-46.18-10.12-22.2-14.02-47.44-14.2-71.73-2.81-31.21,42.77-25.94,30.43,2.37.52,22.77,5.42,45.7,15.61,66.15,3.65,7.56,7.27,15.14,11.49,22.41,5.78,5.65,11.25,11.6,16.57,17.7,5.2,7.27,13.13,8.09,20.65,11.54,17.48,9.55,3.29,36.12-14.32,26.93Z"/><path class="cls-2" d="M1822.5,802.81c-6.5-3.19-12.38-7.72-18.9-11-31.79,6.51-26.29-58.95,24.38-21.24,12.03-17.22,25.31-33.61,40.8-47.49,21.29-17.13,40.7,15,10.68,31.49-16.67,14.24-31.69,56.24-56.97,48.24Z"/><path class="cls-2" d="M1864.52,885.9c-26.96,1.04-31.79-21.11-19.35-41.18-24.75-10.33-5.92-39.31,14.12-41.41,14.72-4.13,29.55,8.42,27.74,23.62-.67,10.01-6.72,17.95-11.66,26.25,21.93-7.68,32.83,23.67,9.95,29.28-7,.88-13.64,3.84-20.8,3.43Z"/><path class="cls-2" d="M1923.76,1002.36c-26.23.43-45.91-21.94-60.18-41.52-5.57-11.81-17.8-26.68-14.41-40.03,4.21-12.36,23.03-13.11,28.12-1.02,5.21,11.79,10.12,24.21,18.99,33.8,11.64,12.2,32.95,32.05,41.4,5.95,6.37-17.39,12.84-34.69,19.36-52,6.71-32.24,34.51-65.16,70.37-53.81,10.74,4.83,17.57,15.98,23.85,25.5,4.29,8.46,4.03,18.28,8.44,26.75,7.23,16.75-7.35,35.37-23.82,22.76-5.83-4.86-3.95-12.88-7.49-18.97-3.09-10.36-3.86-19.67-12.6-27.32-21.6-1.65-26.91,25.7-32.11,41.78-14.42,28.41-17.56,81.12-59.91,78.13Z"/><path class="cls-2" d="M2025.29,942.18c-5.27-8.57-13.41-16.02-16.48-25.63-4.74-32.72,33.58-34.38,30.84-7.18.19.24.37.48.56.72.65.86,1.28,1.74,1.9,2.63,4.02-9.24,8.06-18.56,13.79-26.9,7.18-11.11,25.87-6.65,27.5,6.38,1.35,9.45-6.95,16.44-9.92,24.85-6.27,19.55-28.51,47.83-48.17,25.13Z"/><path class="cls-2" d="M2022.8,916.54c-18.73-2.27-22.48-33.18-1.16-34.32,15.24,4.06,25.72-13.15,41.2-11.52,25.95,2.74,22.04,43.45-4.87,32.47-10.87,6.15-22.83,12.22-35.17,13.38Z"/><path class="cls-2" d="M2037.58,1630.09c-8.54-2.72-11.77-11.66-13.57-19.62-24.17,12.6-53-.3-70.09-18.55-7.55-11.67-18.16-20.18-28.57-29.13-5.93-2.9-13.71-1.06-20.25-1.29-11.39,10.67-21.01,22.84-28.64,36.31-8.79,13.78-31.63,3.96-27.46-12.05,5.12-12.54,13.46-23.48,22.75-33.35,6.22-6.6,11.82-14.31,20.06-18.51,12.36-4.79,26.75-3.53,39.64-1.63,14.96,5.19,26.24,18.28,37.42,29.04,9.94,15.06,28.84,31.08,47.02,19.4-1.89-7.63-3.41-15.34-4.89-23.07-20.74-14.25.98-48.63,21.3-30.26,7.41,8.12,14.46,16.13,24.22,21.51,5.83.66,11.52,3.21,15.33,7.77,8.32,10.14,2.06,23.11-1.42,33.86-4.06,16.2-10.2,45.79-32.86,39.56Z"/><path class="cls-2" d="M2172.26,1595.21c-13.94-3-27.25-10.71-34.55-23.25-7.06-10.34-17.18-18.08-26.72-26.01-4.15,3.77-9.61,5.87-13.47,9.92-7.52,8.95-13.39,23.66-26.21,24.95-18.25.82-22.23-29.24-4.88-33.77,5.87-9.24,12.88-17.5,22.64-22.76,6.4-5.3,13.56-10.55,22.23-10.48,18.31.58,45.23,31.96,55.65,46.35,16.51,11.01,24.58,4.87,34.35-9.78,7.74-5.93,12.82-14.97,21.48-19.53,7.56-3.43,16.75-.13,20.24,7.45,6.1,14.18-10.15,23.49-18.69,32.14-12.23,19.06-28.88,29.26-52.07,24.76Z"/><path class="cls-2" d="M2219.62,1606.79c-20.65-15.77-27.09-53.02-33.12-77.32-19.35-16.39,5.98-45.69,21.84-23.28,7.06,1.53,13.54,4.75,20.43,6.71,13.64-.71,25.46,6.87,24.94,21.6,1.19,14.87-3.93,29.22-5.65,43.85-.28,15.84-9.02,37.67-28.45,28.43ZM2222.42,1548.59c.09-.5.18-1,.27-1.5.22-1.41.39-2.82.51-4.24-.85-.17-1.7-.36-2.53-.58.56,2.11,1.14,4.21,1.75,6.31Z"/><path class="cls-2" d="M2299.81,425.14c-1.35-.3-2.61-.8-3.78-1.44-16.81,1.19-27.73-10.52-41.05-17.12-35.07-18.45-54.03-56.18-60.63-93.96-1.97-10.93-1.78-22.2-1.91-33.26-.44-16.34-3.35-32.88-.07-49.12,1.46-5.94,2.47-12.36,5.88-17.53,6.57-9.85,22.69-7.76,26.88,3.22,4.68,14.12,14.55,27.39,25.94,36.95,10.62-19.04,31.16-61.43,56.86-38,8.2,9.51,1.78,24.53,11.43,33.33,7.92-8.71,12.28-20.2,21-28.26,11.14-9.95,31.09-23.04,42.28-6.32,12.17,26.24.47,56.87.59,84.6-2.87,24.91-3.36,51.17-14.07,74.24-10.1,26.36-32.43,53.18-62.12,53.18-2.36,0-4.77-.17-7.22-.52ZM2306.56,391.61c1.39.73,2.64,1.68,3.73,2.8,22.02-5.14,31.29-32.25,36.87-51.84,4.71-31.63,6.98-63.52,10-95.34-10.71,20.15-24.64,33.01-38.43,33.39-.92-1.63-1.95-3.2-3.1-4.71-5.76-7.57-14.57-12.46-23.93-13.68-1.82-2.89-3.59-6.15-5.29-9.8-2.09,3.16-3.89,6.62-5.74,10.08-4.12.76-8.13,2.23-11.72,4.33-1.6.94-3.08,1.99-4.47,3.14-4.68,2.32-8.86,5.86-11.95,9.87-1.07,1.38-2.06,2.89-2.95,4.48-10.39-1.44-20.29-8.58-27.23-16.22.14,27.25,2.44,54.51,14.85,79.32,3.34,5.53,6.99,10.36,10.93,14.67.29,1.92.68,3.83,1.22,5.75,2.63,9.38,9.54,17.43,18.59,21.16,3.61,1.48,7.51,2.3,11.44,2.42,2.56.73,5.21,1.12,7.9,1.12,1.23,0,2.46-.08,3.7-.24.02.01.04.02.05.03.02-.02.04-.03.07-.04.08-.01.16-.02.24-.03,2.85-.42,5.51-1.25,7.99-2.44.02,0,.05,0,.07,0,2.49,0,4.97.59,7.16,1.78Z"/><path class="cls-2" d="M2674.34,436.69c-29.01-6.1-39.96-37.07-55.3-58.86-9-13.17-13.08-28.42-14.9-44.07-2.07-10.01-6.23-17.17-7.45-27.07-1.26-14.45-1.96-29.28,1.8-43.3.5-16.52-1.6-46.39,20.16-49.01,11.82-.21,18.67,10.73,25.83,18.45,5.23,5.45,11.45,9.77,17.23,14.58,7.09-11.04,13.43-22.88,21.95-32.84,5.47-5.21,14.11-6.12,20.71-2.62,12.01,6.96,12.76,22.48,17.72,34.16,11.25-19.48,46.03-40.53,63.18-17.27,12.8,22.35,3.49,89.69-.58,116.49-5.15,20.81-10.66,43.4-24.98,59.96-7.12,6.39-11.57,15.35-19.74,20.54-20.42,8.17-43.57,11.96-65.62,10.86ZM2690.39,406.08c11.5-.35,22.41-4.43,33.68-6.32,5.01-6.8,11.25-12.54,16.41-19.16,19.82-39.75,20.66-85.63,20.01-129.18-13.78,4.45-16.23,22.21-27.16,30.51-19.56,14.69-36.15-9.6-40.39-27.02-5.95,6.94-6.94,16.1-10.48,24.15-6.64,13.4-24.24,10.96-31.66-.39-6.61-6.88-14.51-12.23-21.7-18.44,2.85,6.05-.88,11.98-2.68,17.76-.41,7.78-.08,15.63.33,23.41.55,6.39,4.49,14.25,5.46,18.82,3.38,11.52,2.75,24.14,8.82,34.76,5.76,10.48,12.93,20.09,18.84,30.48,6.65,11.58,15.31,24.75,30.51,20.61Z"/><path class="cls-2" d="M2663.32,248.99c-.36-9.51-1.2-19.05-3.23-28.35-15.73-16.11,8.98-37.17,23.41-20.21,9.95,13.34,8.77,31.84,10.31,47.72.32,19.88-29.71,20.76-30.5.84Z"/><path class="cls-2" d="M2398.56,1618.35c-19.98-1.61-43.29-6.66-55.41-24.14-8.1-15.33-7.47-34.06-16.76-49.2-12-25.41-25.8,6.77-34.24,17.53-.15,16.25-25.29,27.71-34.48,11.67-9.42-17.09,12.55-28.88,18.88-42.98,8.89-14.14,22.53-27.57,40.49-26.22,29.39-.32,41.15,32.83,48.01,56.39,1.86,5.52,1.5,11.98,4.35,17.04,7.84,6.51,18.8,7.71,28.54,9.4,29.03-1.77,40.9-34.26,64.62-46.49,16.83-10.59,33.15,15.06,16.35,25.75-27.48,19.16-41.16,50.43-80.34,51.24Z"/><path class="cls-2" d="M2469.76,1626.28c-6.49-3.18-9.1-10.28-10.26-16.99-3.28-13.94-8.31-27.41-11.58-41.36.03.12.06.24.08.36,0,0,0,.02,0,.03-1.58-6.83-2.96-12.84-5.28-19.33-2.37-7.37-10.37-11.38-10.9-19.66-2.01-12.28,11.4-25.17,23.51-20.46,8.2,4.55,14.44,13.13,18.46,21.62,6.38,1.58,12.69,3.33,18.56,6.35,5.07.93,10.41,2.07,14.32,5.69,11.49,11.8,5.49,29.79-.91,42.66-8.67,14.71-11.51,50.95-35.99,41.1Z"/><path class="cls-2" d="M2593.05,1606.74c-15.21-3.19-27.55-16.76-32.22-31.23-2.72-12.5-.95-27.45-14.28-34.29-8.38,4.51-15.62,10.87-23.45,16.23.64,9.24-7.63,15.25-15.84,16.47-14.97,6.02-27.38-12.85-18.82-25.44,6.84-11.3,19.73-16.77,29.6-25.01,23.55-20.84,46.67-14.61,63.56,10.32,10.14,12.71,2.47,32.47,15.72,42.32,12.66-6.29,22.99-16.19,35.72-22.27,16.89-10.51,33.01,14.84,16.36,25.75-18.71,8.37-34.3,29.04-56.35,27.17Z"/><path class="cls-2" d="M2626.84,1627.8c-6.77-5.72-4.02-14.84-5.8-22.43-6.52-20.61-15.48-40.55-21.67-61.07-2.29-24.35,26.23-31.76,37.6-10.45,25.77,7.43,45.46,20.02,26.03,47.41-5.16,11.77-10.17,23.9-10.65,36.91-.73,12.13-16.94,18.15-25.52,9.64Z"/><path class="cls-2" d="M2820.8,1645.61c-43.66-17.07-57.29-46.87-70.16-89-11.5-.37-18.79,11.02-27.51,17.02-13.96,9.38-28.07,27.67-44.79,30.13-22.61,3-23.95-33.07-1.33-32.25,19.05-13.47,35.02-31.77,55.83-42.48,13.36-4.76,30.62-4.77,40.37,6.98,14.78,20.63,13.64,51.09,35.22,67.65,20.09,14.89,32.44,18.97,56.93,12.46,11.82-15.51,22.72-31.94,38.05-44.48,15.35-12.6,34.71,10.43,19.57,23.4-11.97,10.39-21.65,22.82-30.22,36.07-7.89,12.04-21.57,16.71-35.38,17.2-12.24,2.11-25.01,2.64-36.58-2.69Z"/><path class="cls-2" d="M2888.4,1661.82c-5.89-3.98-6.89-11.07-6.92-17.63-2.39-22.23-5.81-44.35-6.93-66.69,1.72-11.73-10.36-14.9-11.76-26.07-.84-25.15,26.26-18.91,39.81-8.09,14.01,9.74,39.57,21.91,31.66,42.72-5.39,21.97-10.51,44.19-20.45,64.67-3.01,10.86-15.44,18.26-25.42,11.1Z"/><path class="cls-2" d="M3065.97,1642.77c-15.44-.6-33.2-.19-44.99-11.81-7.94-8.65-14.86-18.31-21.56-27.95-6.85-10.29-10.2-22.67-18-32.34-10.52,3.12-20.5,8.19-29.41,14.59-10.94,7.37-19.1,21.19-33.29,22.08-19.38,1.95-23.2-27.28-3.9-30.25,19.28-17.86,62.11-52.27,87.16-29.05,13.93,13.89,17.75,34.51,30.81,49.11,10.39,17.29,18.44,14.96,37.01,14.87,16.16-9.2,31.31-23.67,40.01-40.11,7.01-13.96,29.3-8.11,29.41,7.24-.55,13.15-13.36,22.14-20.58,32.22-14.56,14.03-30.78,32.12-52.67,31.41Z"/><path class="cls-2" d="M3097.79,1654.48c-3.56-9.3-1.14-19.59-2.34-29.3-2.13-14.98-6.51-29.6-8.02-44.7-.1-9.61-3.15-18.32-6.28-27.23-.67-7.72,2.41-17.72,10.02-21.18,13.46-5.06,25.57,7.75,37.02,13.17,10.16,7.81,28.39,11.45,29.37,26.45-4.06,25.2-17.19,48.06-28.51,70.66-1.62,2.87-1.94,6.09-2.59,9.24-2.8,13.72-23.27,15.89-28.69,2.89ZM3119.39,1588.26c.17,1.02.35,2.04.54,3.05.92-2.39,1.81-4.79,2.65-7.22.64-1.84,1.27-3.68,1.89-5.53-2.38-1.43-4.75-2.86-7.12-4.3.54,4.69,1.26,9.34,2.04,14Z"/><path class="cls-2" d="M715.25,123.62c-18.31-2.28-13.07-19.94-13.04-32.87,1.14-12.51-1.94-32.96,15.79-33.68,18.82-.02,16,21.29,14.66,34.31.49,12.95.79,33.65-17.42,32.24Z"/><path class="cls-2" d="M704.84,1841.26c-17.57-2.24-14.16-23.68-15.32-36.63-.43-8.7-4.66-17.73-1.8-26.27,3.81-10.77,17.64-17.9,26.96-9,8.61,8.46,3.44,22.17,5.28,32.96,1.47,14.94,8.04,39.01-15.12,38.93Z"/><path class="cls-2" d="M1803.83,313.34c7.17-5.28,13.66-8.55,22.06-10.58,4.12-1,6.52-1.53,11.05-1.36,1.79,0,2.16.05,1.12.14-1.21-.65-1.11-.58.32.2-1.02-.89-.94-.78.25.33-.73-1.12-.64-.99.25.39.75,1.46.85,1.59.3.37.29.86.53,1.74.7,2.63-.51-3.15-.78,3.3-.23,1-.8,3.37-1.47,4.24-4.02,6.79-4.86,4.87-12.98,7.62-20.79,9.99-7.18,2.18-11.73,9.72-9.7,17.09,2.13,7.74,9.69,11.09,17.09,9.7,5.23-.98,10.75-1.96,15.71-.7l1.31.44c-.97-.38-1.03-.35-.17.09.58.37,2.65,1.72,1.1.68,1.01,1.11,1.25,1.32.7.63-.51-.71-.37-.44.43.81-.24-1.87-.79.69-.17-.01-.15-.29-.17-.59-.06-.9.16-.9.05-.6-.32.91,1.23-1.59-1.13,1.22-.33.25.86-1.05-1.71,1.67-.31.5.04-.04-3.31,2.02-2.04,1.43-5.24,2.42-10.16,1.94-16.16,1.99-7.51.06-13.89,6.34-13.89,13.89s6.36,13.95,13.89,13.89c10.52-.09,21.79-.7,31-6.39,10.01-6.19,17.01-17.31,15.58-29.31-1.31-10.95-8.94-19.73-18.91-24.01-11.28-4.84-23.04-3.17-34.74-.98l7.39,26.79c13.07-3.97,26.67-9.11,35.59-20,9.46-11.55,12.81-26.75,5.7-40.42-14.29-27.46-54.43-14.5-73.73-.27-6.03,4.44-9.06,12.04-4.98,19.01,3.48,5.95,12.93,9.46,19.01,4.98h0Z"/><path class="cls-2" d="M2262.7,313.34c7.17-5.28,13.66-8.55,22.06-10.58,4.12-1,6.52-1.53,11.05-1.36,1.79,0,2.16.05,1.12.14-1.21-.65-1.11-.58.32.2-1.02-.89-.94-.78.25.33-.73-1.12-.64-.99.25.39.75,1.46.85,1.59.3.37.29.86.53,1.74.7,2.63-.51-3.15-.78,3.3-.23,1-.8,3.37-1.47,4.24-4.02,6.79-4.86,4.87-12.98,7.62-20.79,9.99-7.18,2.18-11.73,9.72-9.7,17.09,2.13,7.74,9.69,11.09,17.09,9.7,5.23-.98,10.75-1.96,15.71-.7l1.31.44c-.97-.38-1.03-.35-.17.09.58.37,2.65,1.72,1.1.68,1.01,1.11,1.25,1.32.7.63-.51-.71-.37-.44.43.81-.24-1.87-.79.69-.17-.01-.15-.29-.17-.59-.06-.9.16-.9.05-.6-.32.91,1.23-1.59-1.13,1.22-.33.25.86-1.05-1.71,1.67-.31.5.04-.04-3.31,2.02-2.04,1.43-5.24,2.42-10.16,1.94-16.16,1.99-7.51.06-13.89,6.34-13.89,13.89s6.36,13.95,13.89,13.89c10.52-.09,21.79-.7,31-6.39,10.01-6.19,17.01-17.31,15.58-29.31-1.31-10.95-8.94-19.73-18.91-24.01-11.28-4.84-23.04-3.17-34.74-.98l7.39,26.79c13.07-3.97,26.67-9.11,35.59-20,9.46-11.55,12.81-26.75,5.7-40.42-14.29-27.46-54.43-14.5-73.73-.27-6.03,4.44-9.06,12.04-4.98,19.01,3.48,5.95,12.93,9.46,19.01,4.98h0Z"/><path class="cls-2" d="M2671.97,313.34c7.17-5.28,13.66-8.55,22.06-10.58,4.12-1,6.52-1.53,11.05-1.36,1.79,0,2.16.05,1.12.14-1.21-.65-1.11-.58.32.2-1.02-.89-.94-.78.25.33-.73-1.12-.64-.99.25.39.75,1.46.85,1.59.3.37.29.86.53,1.74.7,2.63-.51-3.15-.78,3.3-.23,1-.8,3.37-1.47,4.24-4.02,6.79-4.86,4.87-12.98,7.62-20.79,9.99-7.18,2.18-11.73,9.72-9.7,17.09,2.13,7.74,9.69,11.09,17.09,9.7,5.23-.98,10.75-1.96,15.71-.7l1.31.44c-.97-.38-1.03-.35-.17.09.58.37,2.65,1.72,1.1.68,1.01,1.11,1.25,1.32.7.63-.51-.71-.37-.44.43.81-.24-1.87-.79.69-.17-.01-.15-.29-.17-.59-.06-.9.16-.9.05-.6-.32.91,1.23-1.59-1.13,1.22-.33.25.86-1.05-1.71,1.67-.31.5.04-.04-3.31,2.02-2.04,1.43-5.24,2.42-10.16,1.94-16.16,1.99-7.51.06-13.89,6.34-13.89,13.89s6.36,13.95,13.89,13.89c10.52-.09,21.79-.7,31-6.39,10.01-6.19,17.01-17.31,15.58-29.31-1.31-10.95-8.94-19.73-18.91-24.01-11.28-4.84-23.04-3.17-34.74-.98l7.39,26.79c13.07-3.97,26.67-9.11,35.59-20,9.46-11.55,12.81-26.75,5.7-40.42-14.29-27.46-54.43-14.5-73.73-.27-6.03,4.44-9.06,12.04-4.98,19.01,3.48,5.95,12.93,9.46,19.01,4.98h0Z"/></svg>