<?xml version="1.0" encoding="UTF-8"?><svg xmlns="http://www.w3.org/2000/svg" width="3840" height="1920" viewBox="0 0 3840 1920"><defs><style>.cls-1{fill:#000;}.cls-1,.cls-2{stroke-width:0px;}.cls-2{fill:#5b5d63;}</style></defs><g id="Image_1"><path class="cls-1" d="M2442.29,486.21c-26.75-73.49-65.56-145.43-121.04-201.17-53.28-46.35-121.73-71.51-188.51-91.78-19.96-5.52-40.75-6.79-61.02-10.73-31.59-5.89-63.01-13.73-95.19-15.54-45.07-3.34-88.4,11.79-132.95,15.81-24.68,3.23-48.37,11.11-72.71,15.99-37.12,8.31-75.05,17.19-109.44,33.75-48.58,26.78-94.44,59.28-132.46,99.89-19.47,19.89-33.77,43.97-51.2,65.54-11.74,15.83-23.44,31.72-34.36,48.11-2.44,4.28-4.93,8.54-7.32,12.84-3.38,6.09-6.71,12.2-10.02,18.33-1.5,2.79-2.92,5.63-4.31,8.48-4.43,9.86-8.43,19.86-12.01,30.05-2.02,6.34-3.88,12.72-5.82,19.08-2.16,7.09-4.72,14.04-7.13,21.05-7.47,22.57-15.29,45.12-20.37,68.37-1.24,6.66-2.33,13.34-3.29,20.05-.1,8.95-.05,17.9.04,26.86-2.73,21.32-3.52,42.94-4.76,64.43-.4,14.54-.9,29.09-.56,43.64-.69,3.79.18,7.22,2.08,9.82-12.24,11.54,19.41,16.6,27.66,15.58,10.25-.62,20.53-.52,30.79-.41,15.68.15,31.35.31,46.88-2.09,5.5.15,11.03.22,16.55.22h.02c5.8.53,11.59,1.14,17.3,2.34,10.9,2.74,21.82,5.18,32.84,6.92,4.42,2.32,8.99,4.21,14.23,3.8,7.19.32,14.27-.39,21.32-1.41,19.01-1.28,32.83-1.14,42.89-1.01,20.95.28,25.62.56,26.94-11.92,5.3-7.42.24-29.23,1.83-36.51,4.32-2.75,3.32-7.18.29-10.6.48-2.64-.8-5.04-2.84-6.8-.39-7.74-.27-15.52-.04-23.27.57-51.42,8.84-103.94,36.06-148.4,9.07-18.4,16.19-37.79,31-52.65,11.22-12,17.73-27.67,29.55-39.06,2.92-2.44,5.59-5.14,8.14-7.95,26.05-14.08,53.97-24.12,82.42-32.3,30.99-9.59,62.56-18.52,95.22-19.34,28.72-1.88,56.72,4.66,84.7,10.14,27.86,5.24,54.3,15.87,74.2,36.68,27.89,21.57,43.14,53.72,59.5,84.08,8.95,21.51,21.41,41.72,27.49,64.3,5.69,21.45,9.43,43.48,10.91,65.64.89,1.83,1.71,3.68,2.46,5.57-.13,2.31-.42,4.31-.97,5.87-2.34,20.25-8.3,39.78-12.67,59.65-5.49,12.2-12.29,24.17-20.44,35.04-35.54,26.52-77.44,45.43-116.64,65.38-16.88,7.85-34.84,12.99-52.57,18.54-2.77.93-7.64,2.26-13.21,3.94-37.09,8.5-73.9,18.23-111.1,26.34-31.32,7.34-63.13,12.44-95.02,16.16-45.15,10.89-89.3,27.54-131.03,47.9-8.65,4.53-17.15,9.3-25.49,14.31-28.9,12.25-56.36,27.5-81.12,47.67-20.97,15.34-38.55,34.52-55.6,53.99-1.75,1.89-3.49,3.8-5.21,5.73-8.84,8.91-16.7,18.57-23.91,28.72-4.89,6.41-9.63,12.95-14.1,19.69-4.44,7.49-8.5,15.15-12.5,22.88-33.05,52.07-48.73,113.76-51.71,175.07-.4,9.54-.81,19.1-.92,28.64-.03.2-.07.39-.1.58-1.5,15.87-.96,31.57,1.15,47.04,1.43,1.51,2.62,3.19,3.48,5.02.48,2.15,1.02,4.29,1.6,6.42,0,.06,0,.13,0,.2.09,2.72-.48,5.4-1.6,7.83,6.62,30.17,18.59,59.34,32.27,87.05,7.35,19.55,17.46,37.44,29.55,53.89,17.8,34.42,41.39,65.64,71.84,90.3,11.96,10.34,26.56,16.8,39.8,25.24,14.27,8.03,27.2,18.54,42.3,24.95,28.32,12.78,59.14,18.43,89.57,23.73,30.94,4.53,61.85,10.69,93.09,12.45,3,.16,5.99.23,8.97.23,30.37,0,59.89-7.69,89.13-15.51,67.36-15.76,131.67-46.09,185.68-89.39.43-.42.86-.84,1.29-1.26,5.61-5.92,10.84-12.19,16.03-18.48,2.71-3.28,5.34-6.7,8.32-9.75,1.28-1.31,2.56-2.6,3.91-3.85.08-.64.36-1.26.82-1.73.5-.81,1.2-1.36,2.03-1.91.53-.34,1.02-.74,1.51-1.12,1.24-.96,2.47-1.92,3.71-2.88.49-.43.99-.86,1.48-1.29l.58-.58c1.95-2,3.78-4.11,5.62-6.2,2.01-2.27,3.98-4.6,5.98-6.88,2.03-2.83,4.07-5.65,6.12-8.46,2.53-3.5,5.07-7,7.52-10.56,1.6-2.32,3.2-4.64,4.79-6.96,1.43-2.08,2.75-4.25,4.13-6.37,2.49-3.85,4.8-7.82,7.18-11.74,2.31-3.81,4.61-7.63,7.1-11.34,5.5-8.19,11.28-16.19,16.48-24.58,2.37-3.83,4.57-7.77,6.76-11.71.08,16.25-.05,32.52.02,48.78-.93,2.64-1.87,5.28-2.79,7.92-.53,1.53-1.06,3.05-1.6,4.58,1.14-.93,2.28-1.88,3.4-2.83.43,2.63.81,5.27,1.16,7.92.35,20.68,1.27,41.33,3.63,61.88.02,2.6.03,5.2.03,7.79.27,10.81-7.88,63.34-4.06,86.23-.21.22-.4.46-.58.72-3.5,6.73,5.31,12.75,11.42,10.95,1.52-.21,3.07.03,4.64.28,1.15.18,2.31.36,3.46.36.22,0,.45,0,.67-.02,11.46-.39,22.85-1.83,34.25-2.95,1.5-.1,3.18-.02,4.9.06,3.96.18,8.2.35,11.27-1.54,18.51,1.77,43.56,1.19,61.77.61,11.74-.38,20.63-.75,23.1-.49,12.81-.39,25.58.56,38.33,1.52,10.77.81,21.54,1.61,32.35,1.61,3.25-.05,6.68,0,10.17.05,23.83.35,50.95.7,49.72-30.5.21-31.2.54-62.39,1.8-93.58-1.02-57.17,2.86-114.19,4.46-171.31.61-33.61-.49-67.27,1.78-100.84,12.15-198.41,11.9-397.31,13.73-596.03-2.15-84.9-10.01-170.24-26.92-253.5ZM1437.05,782.99c.1-.24.19-.36.26-.36s.13.12.18.35c-.14,0-.29,0-.43,0ZM1485.53,788.39c.1-.18.2-.27.31-.27.12,0,.25.11.39.35-.23-.02-.47-.05-.7-.08ZM1489.76,1635.69c-.1-.1-.6-.62-.6-.66h0c.06,0,.23.18.4.37.21.25.4.5.2.29ZM1781.19,1513.37c-12.54-3.86-25.13-7.54-37.73-11.2-5.25-3.46-10.25-7.27-14.75-11.73-17.35-19.53-32.51-41.29-45.45-64.02-.09.01-.17.03-.26.04-1.79-6.65-4.01-13.18-7.29-19.4-15.16-43.63-16.05-91.34-12.42-137.12,17.42-26.55,37.3-51.31,61.16-72.64,12.91-11.21,23.17-25.62,37.28-35.23,19.41-12.3,37.35-27.23,59.45-34.47,26.95-10.88,55.71-16.28,83.15-25.92,16.14-4.24,32.91-6.6,47.7-14.82,2.5-1.78,5.57-3.2,8.82-4.56,0,0,.02,0,.03,0,2.34-.64,4.69-1.27,7.05-1.88.07-.02.13-.03.2-.05.41-.11.82-.23,1.22-.34.41-.11.81-.23,1.22-.34,7.31-1.98,14.7-3.6,22.1-5.15,5.06-1.1,10.1-2.24,15.09-3.65,5.18-1.46,10.31-3.07,15.46-4.6,9.88-2.94,19.89-5.4,29.75-8.42,9.3-3.05,18.6-6.2,27.59-10.07,10.37-4.96,20.41-10.51,30.69-15.65,10.5-5.25,21.04-10.38,31.29-16.11.34,5.74.9,11.29.25,14.53,0,15.28-.05,30.57-.13,45.86.31,6.69-.06,13.47-.15,20.2-.77,4.52-2.03,8.97-2.75,13.49-1.2,19.67-3.22,39.17-8.39,58.27-7.66,23.76-9.67,49.22-20.64,71.83-9.97,18.7-17.71,38.42-27.21,57.33-11.14,22.25-26.86,41.55-41.16,61.73-23.55,35.48-45.53,72.81-80.15,98.66-13.54,12-29.23,20.68-45.02,29.26-2.48,1.71-4.99,3.39-7.52,5.02-5.79,2.03-11.64,3.93-17.56,5.64-35.3,10.06-74.18,22.61-110.92,15.51Z"/></g><g id="Image_2"><path class="cls-1" d="M773.79,1253.18c-15.92-2.3-16.84-16.65-11.54-29.05,5.07-16.8,12.46-32.78,19.39-48.87,6.59-15.2,13.21-30.44,19.15-45.92,1.13-2.11,2.19-4.25,3.26-6.39,6.59-12.64,14-24.85,21.23-37.12,3.39-5.76,7.02-11.38,10.53-17.06,1.89-3.04,3.76-6.11,5.68-9.14,2.43-3.84,4.96-7.64,7.16-11.63.63-1.16,1.23-2.32,1.8-3.49,10.45,24.17-28.26,114.44-37.94,137.11,8.61-8.73,21.86-22.82,31.95-33.69,55.34-56.53,105.82-117.27,155.28-178.91,46.43-52.43,94.75-104.7,124.93-168.68,9.3-21.87,19.95-56.87-8.74-68.48-27.23-10.03-56.56-15.22-85.4-17.89-75.82-5.32-135.48-7.86-206.39,24.87-17.23,6.83-88.57,27.05-77.03-10.88,12.65-11.91,27.29-21.87,38.4-35.49,12.92-14.62,22.91-31.5,35.11-46.7,18.64-23.95,40.14-45.46,59.63-68.69,43.07-49.54,53.45-119.21,38.91-181.89-24.62-120.82-175.8-125.16-274.9-116.84-57.57,5.75-114.06,21.23-167.76,42.51-30.24,13.18-57,32.79-84.35,50.96-74.14,47.63-109.86,90.46-153,166.68-30.39,54.16-46.5,117.91-44.17,180.02,1.89,41.16,23.18,80.22,50.14,110.5,17.74,16.22,44.02,18.13,62.84,32.71,9.97,8.35.91,23.29-11.02,20.57-16.46-6.29-32.37-14.54-48.91-20.99-41.85-20.57-73.43-82.55-81.39-126.95-7.72-54.94,5.02-110.37,22.3-162.35,15.38-40.15,39.52-76.2,63.51-111.62,31.7-48.99,79.52-83.38,127.27-115.42,72.96-54.6,162.57-81.24,252.19-91.96,113.75-11.52,280.54-.8,314.59,132.36,15.15,57.42,12.41,121.83-17.27,174.25-18.27,33.54-47.03,59.34-71.26,88.38-19.09,21.7-33.23,47.31-53.26,68.18,72.72-31.75,129.24-35.44,207.42-28.91,28.47.34,56.48,5.68,84.13,12.1,56.46,10.7,83.05,47.33,60.73,102.98-34.51,85.37-104.98,147.77-160.73,218.89-42.67,54.91-90.36,105.59-138.07,156.09-14.84,15.96-29.82,31.79-45.35,47.08-12.22,9.14-21.59,28.79-38,28.8-.35,0-.71,0-1.07-.03Z"/><path class="cls-1" d="M835.26,1790.05c-7.26-3.27-13.82-7.73-20.01-12.72,9.75,2.28,19.99,2.89,29.88,2.89.7,0,1.4,0,2.1,0,17.1-.15,33.91-5.51,48.33-14.66,12.34-7.83,23.53-17.27,34.78-26.56,10.96-9.05,21.5-18.54,31.57-28.56-1.56,5.89-4.13,12.03-7.93,18.51-11.91,20.3-31.23,34.79-50.44,47.73-13.52,10.51-30.02,17.55-46.79,17.55-7.18,0-14.42-1.29-21.49-4.16Z"/><path class="cls-1" d="M722.51,1735.74c-33.98-4.02-64.84-21.01-97.94-29.24-82.01-32.49-167.97-54.52-248.63-90.29-26.46-11.64-54.77-19.61-79.18-35.52-10.82-6.91-20.77-15.11-31.57-22.03-16.56-11.28-36.68-14.38-54.69-22.51-19.14-8.89-35.95-22.46-50.07-38.04-16.17-19.98-31.52-42.9-35.96-68.62-1.57-21.85-.79-44.12,2.64-65.79,3.95-19.94,11.81-38.78,17.02-58.38,7.25-30.16,12.38-60.9,23.27-90.08,2.3-6.59,4.86-13.09,7.47-19.57-.29,2.3-.55,4.6-.77,6.9-.52,5.32-.89,10.65-.91,15.99-.02,5.57.5,11.04.99,16.58.06.66.15,1.32.27,1.96-.73,2.59-1.44,5.19-2.07,7.8-1.49,6.28-2.83,12.58-4.21,18.88.15-.66.29-1.33.45-1.99-.43,1.91-.86,3.83-1.29,5.74-1.53,6.84-2.78,13.7-4.09,20.59-1.19,6.32-2.43,12.67-3.04,19.07-.7,7.34-1.18,14.68-1.43,22.04-.22,6.4-.36,12.79-.83,19.17-.78,8.07-1.82,16.09-2.92,24.13-1.29,9.37-2.27,18.77-2.93,28.21-.48,6.86-.97,13.85-.23,20.71.88,8.13,2.77,16.24,6.12,23.73.19.43.38.86.58,1.29,2.89,7.43,6.72,14.54,11.26,21.27,2.04,3.22,4.31,6.48,6.93,9.34,10.78,13.24,24.13,24.54,37.91,32.96,17.89,9.79,38.79,12.44,56.43,22.86,28.14,17.59,53.98,38.92,86.36,48.64,85.89,38.58,176.9,63.36,264.55,97.43,12.97,4.63,26.18,8.54,39.38,12.47,20.98,5.85,40.4,17.3,62.46,18.69,2.42.03,4.79.21,7.14.51,1.21,2.5,2.41,5.01,3.62,7.51,2.28,4.72,4.91,9.49,8.3,13.52,3.07,3.66,6.47,6.84,10.25,9.77,1.28,1,2.57,1.96,3.86,2.92-11.19-4.07-22.33-8.3-34.49-8.61Z"/><path class="cls-1" d="M547.43,741.57c-46.76-3-94.9-14.42-135.4-38.55-42.91-27.54-2.55-60.57,18.46-18.17,39.71,20.14,85.59,32.55,130.29,31.04,60.07-8.62,104.81-60.55,127.34-114.02,4.55-20.8,34.01-13.94,25.07,6.37-27.5,67-87.46,133.33-164.67,133.34-.37,0-.73,0-1.1,0Z"/><path class="cls-1" d="M839.59,1807.8c-69.41,1.54-90.55-46.96-142.91-78.85-33.74-27.25-79.89-3.21-109.36-39.51-13.01-14.54,2.81-31.68,17.85-19.81,4.8,7.45,10.12,11.67,18.55,14.89,14.54,4.87,30.27,2.46,45.17,5.38,27.65,4.99,50.36,23.39,72.38,39.72.52.7,1.05,1.38,1.61,2.05,3.08,3.66,6.48,6.84,10.25,9.77,2.8,2.18,5.67,4.26,8.56,6.32.58.41,1.16.84,1.73,1.25,13.81,13,27.82,25.7,47.03,29.73,50.89,12.75,93.71-7.77,131.25-41.09,36.16-31.86,58.77-75.88,82.23-117.26,18.64-42.23,44.32-93.52,24.43-139.3-9.97-18.01-31.2-24.52-45.86-37.9-30.19-19.47-25.29-45.68-2.09-68.54,27.44-30.45,63.5-55.09,78.66-94.66,5.87-19.14,31.88-71.5.93-77.26-51.95-8.25-122.47,87.98-172.09,110.4-32.62,20.26-63.95,42.8-98.7,59.48-17.3,9.47-36.49,15.91-56.41,12.41-81.64-26.12-168.62-44.17-239.93-94.34-21.59-14.68-42.16-30.93-65.06-43.59-1.19-.67-.78-.21-2.59,0-4.27.5-8.69-.95-11.86-3.82-10.76-9.6-.27-24.49,12.69-23.03,19.51,3.87,35.43,18.88,52.13,29.07,52.06,41.14,113.05,67.69,176.46,86.05,14.57,4.3,29.47,7.51,43.93,12.23,14.62,3.77,28.3,12.41,43.64,12.59,28.58-1.57,68.36-31.04,94.08-45.75,25.74-18.75,54.96-32.15,78.59-53.82,40.21-30.73,75.88-75.37,128.16-84.23,21.55-2.25,45.9,6.73,55.53,27.25,9.89,23.54-1.48,50.34-8.53,73.32-9.19,28.7-26.17,54.15-47.79,74.99-14.52,16.94-49.62,40.91-53.61,62.23,11.04,13.01,27.03,21.27,40.92,30.95,28.5,19.04,36.89,55.04,32.49,87.37-7.26,56.04-34.86,106.96-64.42,154.23-36.61,61.39-97.8,121.16-173.28,121.16-1.59,0-3.18-.03-4.77-.08Z"/><path class="cls-1" d="M151.46,1443.16c-26.72-2.84-26.51-49.9-28.15-70.56.73-22.64,3.46-45.36,5.79-67.89,5.06-26.47,5.51-53.67,13.12-79.67,6.87-22.87,16.12-45.1,25.12-67.22,38.01-92.28,96.68-174.54,165.66-246.22,16.76-15.35,33.67-30.78,51.99-44.29,11.27-10.82,35.21-17.95,41.86,1.17,1.59,7.74-5.64,11.9-11.86,13.8-5.64,3.83-11.11,7.9-16.54,12.02-24.25,19.64-46.66,41.23-67.18,64.76-65.61,74.14-117.61,159.76-150.1,253.45-6.89,17.21-10.73,35.21-13.52,53.46-.12.52-.23,1.05-.36,1.57-1.53,6.84-2.78,13.7-4.09,20.59-1.19,6.32-2.43,12.67-3.04,19.07-.7,7.34-1.18,14.68-1.43,22.04-.22,6.4-.36,12.79-.83,19.17-.78,8.07-1.82,16.09-2.92,24.13-1.29,9.37-2.27,18.77-2.93,28.21-.48,6.86-.97,13.85-.23,20.71.79,7.3,2.39,14.58,5.14,21.41-1.14.28-2.33.42-3.54.42-.65,0-1.31-.04-1.98-.13Z"/><path class="cls-1" d="M474.23,452.91c-7.89-1.91-15.8-7.35-24.37-4.1-19.88,1.81-38.41,14.9-44.99,34.21-4.81,18.88-4.36,45.26,9.55,59.63,3.06,4.73,7.67,8.48,14.31,10.56,4.54,1.69,9.07,2.46,13.56,2.46,2.52,0,5.03-.25,7.51-.71,25.73-.03,46.7-17.91,57.05-43.53,12.25-24.14-7.62-53.8-32.61-58.52Z"/><path class="cls-1" d="M695.89,421.47c-2.54-8.87-8.24-16.36-18.19-20.64-18.51-10.45-57.27-6.14-70.96,10.98-8.27,11.95-13.05,27.89-11.74,42.46,1.39,7.31,4.73,15.2,9.65,21.65,1.45,3.23,3.56,6.29,6.44,9.08,8.58,7.33,18.66,10.49,28.89,10.49,35.9,0,73.72-38.98,55.91-74.04Z"/><path class="cls-1" d="M690.37,1192.06c-21.2-2.32-11.45-25.06-2.96-35.94,7.86-12.91,15.18-26.13,23.01-39.05,15.31-21.89,26.67-47.12,39.22-69.89-35.05,22.55-69.7,45.83-104.21,69.21-13.06,6.48-25.93,13.32-39,19.7-5.79,1.64-11.98-.87-15.03-6.05-6.62-13.89,9.13-25.58,16.51-35.7,37.08-38.7,55.36-90.46,86.7-133.41,8.18-22.06,32.06-16.41,27.29,3.08-25.3,38.52-47.05,79.54-71.22,118.69,35.16-24.76,71.49-47.88,107.96-70.67,8.7-7,24.61-6.82,26.65,6.43.02,8.97-5.98,16.8-7.03,25.79-5.08,16.01-15.97,29.2-21.91,44.82-5.77,13.84-17.11,27.99-23.41,39.79,18.43-11.82,36.16-24.43,53.13-38.26,11.45-10.02,23.16-19.75,34.6-29.79,9.25-6.93,16.86-22.24,29.99-19.99,14.62,3.83,10.11,25.31-2.52,28.42-32.59,32.01-69.18,59.34-106.83,84.98-10.55,8.3-21,16.64-31.35,25.07-5.29,5.59-11.13,12.76-19.49,12.76h-.08Z"/><path class="cls-1" d="M540.44,669.84c-11.33-5.68-38.19-20.66-34.54-35.45,5.25-9.97,20.07-8.4,28.09-2.78,6.12,5.43,11.32,12.32,18.91,15.87,9.46-.32,20.2-2.51,27.22-9.33,14.62-18.39-16.66-69.52-24.05-90.66-13.2-2.51-17.23-16.96-11.7-28.02,7.63-10.37,24.49-7.43,32.18,1.43,12.31,16.38,19.23,36.27,26.75,55.16,9.26,20.33,20.22,43.1,15.04,65.95-8.01,21.33-32.48,31.36-55.41,31.36-7.92,0-15.66-1.2-22.47-3.54Z"/><path class="cls-1" d="M3091,1043.13c-23.52-8.41-48.24-13.46-70.79-24.54-17.44-8-30.63-22.53-45.64-34.23-17.8-14.87-39.65-27.1-49.42-49.72-7.87-19.14-8.33-40.7-11.77-61.11-5.47-42.7,20.32-80.26,34.99-118.55,13.37-27.78,39.7-44.38,62.42-63,50.31-44.16,127.25-66.97,191.57-70,107.31-2.97,218.48-.23,318.59,41.5,33.3,15.38,63.29,37.15,95.14,55.33,39.15,23.9,83.37,45.08,108.71,86.08,14.69,25.55,22.93,55.51,27.04,85.04,1.07,38.41-14.05,77.35-43.67,101.58-18.48,17.71-41.97,27.5-63.21,40.79-34.38,20.03-70.75,36.66-107.31,51.58-27.8,7.41-84.47,28.6-110.22,19.52-9.57-7.75-.65-22.74,10.38-19.57,24.27-.05,47.8-8.12,71.3-14.09,25.8-5.94,49.55-18.24,73.53-29.65,18.93-8.57,37.78-17.41,55.41-28.76,31.04-17.88,67.11-35.02,83.12-70.3,8.2-21.92,13.58-46.29,6.06-68.88-5.7-21.31-11.23-43.33-24.13-61.18-20.16-28.3-51.03-44.79-79.56-62.34-36.92-20.49-71.42-45.57-109.33-64.08-76.99-32.8-162.36-40.62-245.45-41.44-49.03,0-99.25-1.55-146.65,15.1-25.39,8.61-51.42,16.81-74.14,32.05-13.09,8.98-25,19.67-37.6,29.36-26.21,18.87-43.17,36.94-53.45,69.01-12.99,28.75-28.92,58.88-21.46,91.33,5.55,45.27,7.7,54.91,44.69,80.92,15.64,11.33,28.72,26.29,45.54,35.85,16.75,8.83,35.08,13.88,53.1,19.28,13.39,4.39,27.9,7.55,39.15,16.66,11.88,8.38,15.38,31.45-4.52,27.58-10.15-7.42-4.99-12.18-22.4-17.14Z"/><path class="cls-1" d="M3120.9,1643.58c-36.05-8.67-67.1-31.85-89.36-61.98-16-19.65-25.2-43.77-38.33-65.36-9.79-16.63-11.22-37.11-15.7-55.83-7.29-33.86-8.54-65.12,6.45-97.65,19.27-52.3,67.64-43.74,105.17-64.29-23.75-23.2-30.66-60.06-37.44-92.3-7.58-13.55-8-29.35-3.5-44.38,2.54-17.08,7.79-35.81,25.98-40.7,18.02-4.54,37.51.03,54.1,7.31,15.47,8.13,23.7,25.04,36.56,36.44,6.46,5.8,13.08,11.37,19.82,16.82,12.72,11.23,27.52,19.33,40.97,29.47,16.12,14.66,36.22,22.65,55.84,31,15.63,6.51,32,10.95,48.49,14.61,3.76,1.33,7.93,2.07,12.12,2.81,8.46,1.51,17.05,3.04,22.66,9.54,4.27,6.2,5.73,16.52-.09,22.41-3.5,3.61-16.63-.07-27.89-3.31-6.09-1.75-11.62-3.37-14.79-3.64-25.28-5.56-49.28-15.45-72.56-26.72-15.72-6.4-27.7-18.91-41.76-28.11-25.18-16.38-49.66-35.16-69.07-58.71-9.64-15.6-26.94-20.49-44-21.33-16.11-.07-23.52,2.76-25.16,20.95-6.58,19.21,2.84,20.64,4.34,38.74,5.8,25.66,11.7,54.33,32.72,70.86,20.79,21.12-.16,50.9-24.62,54.62-30.33,10.3-71.99,13.2-81.48,51.82-14.26,31.97-2.18,65.96,3.84,98.04,1.46,8.84,6.04,16.23,10.67,23.55,12.16,23.02,23.24,47.43,41.87,65.64,49.78,56.3,132.5,50.21,200.11,38.14,25.34-6.66,51.37-8.57,76.89-14.15,58.72-13.78,116.97-30.44,174.22-50.24,48.29-18.67,99.04-30.58,144.46-57.1,20.85-12.02,45.25-24.31,56.33-47.52,8.07-17.21,3.21-36.79-1.87-53.88-4.91-9.37-13.57-15.82-19.59-24.36-12.21-20.09-28.31-36.79-43.11-54.71-16.19-24.44-35.5-46.09-57.11-65.39-10.42-9.19-23-15.41-33.11-25.05-11.21-10.44-20.44-23.51-34.66-29.88-20.34-9.82-41.09-19.32-56.88-36.38-10.69-10.01-23.24-18.28-31.22-31.04-14.29-3.15-14.33-34.15,2.95-31.16,8.25,2.29,10.69,11.71,16.33,17.34,8.42,8.38,17.93,15.48,26.47,23.73,16.76,17.73,41.28,22.9,60.57,36.75,13.46,9.6,22.62,24.35,36.51,33.43,25.55,16.56,47.28,39.12,66.88,62.73,14.32,23.2,34.03,41.63,49.95,63.43,8.24,15.35,21.67,26.31,30.89,40.83,9.26,18.47,15.12,49.04,11.93,69.86-4.61,37.26-35.63,60.53-65.44,76.7-37.66,21.99-78.43,36.46-119.45,49.36-40.66,14.75-81.46,28.85-123.05,40.29-46.57,14.06-93.79,25.42-141.72,31.95-52.5,11.99-107.84,19.17-160.31,6.69-.95-.23-1.89-.45-2.84-.69Z"/><path class="cls-1" d="M2807.81,1736.97c-13.4-9.11-25.55-19.64-34.63-33.57-10.03-13.14-24.01-22.2-34.24-35.15-14.83-20.59-30.4-40.45-46.41-60.04-20.07-28.43-39.03-58.22-53.84-90.12-17.03-38.82-36.81-84.14-22.66-127.62,4.95-20.23,9.23-40.99,19.83-59.12,15.14-26.01,31.84-51.84,53.78-72.22,25.6-22.68,54.58-40.62,82.76-59.45,42.58-29.48,87.3-54.74,133.6-77.01,24.38-13.7,50.79-23.19,74.21-38.78,14.11-9.43,27.69-20,43.31-26.54,16.79-7.26,34.54-11.34,51.91-16.6,8.79-2.23,17.2-7.34,26.32-7.19,11.11-.18,18.37,11.28,20.33,21.48,2.34,12.17-2.86,22.55-18.04,9.21-23.6,8.82-48.64,12.88-71.57,23.75-20.08,9.97-37.04,25.7-57.23,35.5-72.75,34.61-143.29,71.51-209.71,118.59-50.21,31.57-81.9,60.08-110.55,114.47-9.01,16.75-11.91,35.83-16.77,54.05-6.36,16.49-1.92,33.02,1.71,49.34,17.51,65.05,57.4,120.18,98.49,170.72,13.08,23.07,35.09,37.38,50.9,57.94,9.81,16.27,28.18,22.83,39.38,37.8-3.82-42.64-18.05-82.61-28.85-123.51-1.5-13.42-23.88-65.91,5.03-57.08,19.29,10.06,28.27,33.32,46.33,45.62,16.67,13.06,32.81,27.98,52.58,35.71-19.59-32.78-41.05-67.53-40.36-108.09.73-12.91-1.19-27.04,2.94-39.33,4.91-6.94,14.13-2.16,17.84,3.45,4.65,6.33,4.44,15.09,9.05,21.54,7,11.9,17.13,21.22,26.36,31.16,12.96,12.94,23.94,28.3,38.43,39.42-14.38-40.69-38.27-77.7-46.54-120.9-6.06-32.11-14.86-65.43-10.51-98.44,9.82-14.48,25.79,6.6,22.91,18.76.54,40.12,8.14,80.9,22.14,117.97,11.25,29.8,28.23,57.09,36.35,88.14,2.12,9.95,8.55,19.58,5.91,30.12-6.42,16.56-22.01.73-29.65-5.87-25.96-17.43-44.53-43.98-66.67-66.04-1.11-.66-5.04-7.33-4.3-3.65.35,8.15,2.3,16.08,4.75,23.74,5.09,14.67,12.74,28.19,20.55,41.39,9.2,14.96,32.05,48.66,5.41,57.87-29.58-2.5-52.73-26.6-75.69-43.83-8-6.63-15.58-13.86-22.47-21.72.24,2.37,1.99,8.51,2.97,12.04,10.4,39.72,24.48,78.56,28.23,119.95.46,14.38,16.94,53.84-9.44,49.3-15.37-7.62-21.14-26.52-34.17-37.16Z"/><path class="cls-1" d="M3284.05,1008.66c-48.06-16.65-100.42-27.36-140.72-60.74-22.86-18.1-47.55-40.66-49.92-72.76-1.54-9.41,2.57-18.58,1.76-27.78-.22-9.94,11.4-18.85,18.85-10.52,12.15,11.32-.13,27.27,1.37,41.01,1.82,15.32,13.73,26.36,24.19,35.93,37.13,36.69,88.25,47.48,135.32,64.39,25.01,7.27,57.43,9.76,82.36,1.51,9.35-1.9,16.04,9.56,14.86,18.3.93,21.4-71.44,14.63-87.17,10.89-.33-.08-.62-.15-.9-.23Z"/><path class="cls-1" d="M3485.5,840.21c-12.8-14.44-32.51-4.36-47.34,1.64-42.44,15.22-21.54,51.1,6.59,67.23.53.19,1.08.36,1.63.49,2.62.62,5.42.46,7.72-1.43,1.96.18,4.05.68,6.23,1.2,4.12.98,8.51,2.02,12.73,1.12,42.19-9.41,42.68-44.99,12.44-70.25Z"/><path class="cls-1" d="M3238.65,707.48c-22.26-10.35-68.97,8.12-65.69,38.56,4.43,18.84,8.71,33.8,28.72,39.08.69.23,1.36.43,2.04.59,10.36,2.46,20.08-2.93,29.61-6.83,14.74-5.69,27.16-20.56,28.92-37,.69-15.44-12.53-26.63-23.61-34.4Z"/><path class="cls-1" d="M3239.22,863.48c6.89-13.57,20.15-21.23,31.24-30.58,13.43-11.63,27.82-21.76,43.09-30.5,5.72-2.83,9.45-10.76,16.55-9.06,8.88,1.76,12.02,13.08,8.01,20.97-1.39,2.83-4.08,5.12-7.15,5.49-5.58,4.24-11.69,7.6-17.63,11.24-11.51,6.76-21.64,15.63-32.02,24.08-9.23,7.7-20.37,13.99-25.33,25.77-9.46,14.33,42.64,1.63,48.43.59,12.06-3.8,20.6,15.61,9.52,22.53-18.24,4.26-37.85,10.3-56.46,6.86-.64-.12-1.27-.25-1.89-.4-21.29-5.06-30.59-27.6-16.36-47Z"/></g><g id="Image_3"><path class="cls-2" d="M1324.91,1408.11c-.2-14.52-1.26-33.29,13.3-41.5,13.08-7.97,32.33-14.27,43.74-.27,23.44,6.5,38.34,32.39,29.97,55.68-5.22,15.92-18.18,33-36.41,33.06-25.34.02-50.04-21-50.6-46.97ZM1357.62,1385.19c-6.34,5.8-4.58,15.79-5.05,23.58-.75,10.2,4.11,23.54,15.55,24.91,8.33-3.21,13.46-12.56,16.48-20.54,2.31-8.18,3.45-18.27-3.29-24.63-7.56,3.73-14.99-1.27-21.63-4.49-.69.14-1.52.79-2.06,1.18Z"/><path class="cls-2" d="M1362.54,1375.82c-11.48-2.19-7.66-14.98-7.83-23.34-.29-11.92,1.58-23.71,1.8-35.6,1.46-34.8.54-69.66,1.38-104.48.96-39.91,1.29-79.78.31-119.7.8-7.55-2.1-16.35,2.18-23.04,6.66-8.25,19.73-1.47,17.81,8.71,1.57,69.36-.84,138.63-.92,207.99.42,20.09-1.48,40.09-2.49,60.13-.88,9.95,3.32,29.37-11,29.37-.4,0-.82-.02-1.25-.05Z"/><path class="cls-2" d="M1370.82,1088.91c-23.19-1.03-31.5-46.12-3.14-43.96,14.14-.33,22.04,10.83,22.89,21.98.84,11-5.16,21.99-18.76,21.99-.33,0-.66,0-1-.02Z"/><path class="cls-2" d="M1380.62,1504.08l-4.38-1.02-4.32-.85-4.24-.7-4.16-.58-4.1-.48-3.75-.38c.15-14.11.26-28.21.28-42.32-1.11-15.73,21.12-14.32,25.96-2.57.3,16.22.11,32.67-.2,49.19l-1.09-.29Z"/><path class="cls-2" d="M1364.44,1452.14c-8.98-5.69-20.86-9.39-24.4-20.63-7.33-7.51-12.52-18.15-11.26-28.86,1.07-10.68,12.24-15.12,21.5-16.71,3.79-4.67,10.15-5.77,15.78-4.29,3.29-5.71,11.59-4.91,16.67-2.22,11.77-9.36,32.77,2.36,30.04,17.45-3.36,13.2-5.42,32.32-22.18,33.43-2.59,3.27-2,7.84-3.2,11.7-1.06,7.8-7.95,11.99-15.05,11.99-2.71,0-5.45-.61-7.91-1.85Z"/><path class="cls-2" d="M1369.01,1614.01c-15.11-1.19-15.09-8.14-14.31-15.79-.04-14.34.19-28.69-.29-43.03.41-32.77,1.68-65.51,2.26-98.27l3.75.23,4.1.3,4.16.36,4.24.43,4.32.53,4.38.63,1.09.18c-.48,15.92-1.25,31.96-.89,47.8-.62,21.48-2.14,42.94-1.13,64.43,0,10.29,0,20.58,0,30.87.66,5.09.11,11.41-9.72,11.41-.62,0-1.27-.02-1.96-.07Z"/><path class="cls-2" d="M1362.09,1633.07c-20.34-.49-25.55-19.46-9.5-25.77,5.04-2.3,9.95-5.51,17.1-4.71,14.75,1.04,18.43,9.15,17.12,17.06.41,8.08-12.29,13.43-24.3,13.43h-.42Z"/><path class="cls-2" d="M1365.88,1646.64c-28.11-.19-29.59-46.91-2.23-49.56,17.7-1.79,26.92,11.46,27,24.7.08,12.43-7.91,24.86-24.49,24.86-.09,0-.19,0-.28,0Z"/><path class="cls-2" d="M1777.26,940.31c-11.32-2.08-15.16-17.2-9.86-26.31,4.66-7.15,13.02-11.26,21.52-10.24,21.79,3.64,16.88,36.22-4.6,33.99-1.52,1.84-3.86,2.6-6.15,2.6-.31,0-.61-.01-.91-.04Z"/><path class="cls-2" d="M1984.36,895.25c-18.73-10.3-5.64-49.85,16.3-35.97,19.34,9.36,9.44,37.94-8.18,37.94-2.57,0-5.29-.61-8.12-1.96Z"/><path class="cls-2" d="M1533.73,969.94c2.54-3.77,7.3-3.73,11.34-4.33,21.24-6.82,43.45-8.96,64.98-14.6,47.95-12.8,96.61-23.04,144.17-37.3,16.74-7.93,26.4,1.52,27.89,10.96,1.21,7.67-2.97,15.34-13.11,13.71-74.12,19.18-149.61,39.37-224.96,54.41-9.76-1.3-15.56-14.7-10.3-22.87Z"/><path class="cls-2" d="M1528.84,1008.09c-13.05-8.83-19.94-32.46-5.42-43.08,4.64-3.82,10.33-6.97,16.51-4.67,29.12,8.32,25.86,49.99.03,50-3.34,0-7.05-.7-11.12-2.25Z"/><path class="cls-2" d="M1764.73,952.9c-1.72-.54-3.42-1.23-4.98-2.14-.25-.15-.49-.3-.73-.45-10.96,10.07-21.9-7.89-21.72-18.12-.85-20.78,23.96-45.97,43.51-49.84,25.89-5.06,52.6,21.93,36.78,46.67-8.3,14.56-24.8,25.56-41.68,25.56-3.73,0-7.48-.54-11.17-1.69ZM1777.46,927.45c2.86.05,5.71-.71,8.22-2.05-1.22-.75-1.82-2.93-2.79-3.38-2.43,1.05-4.32,3.05-5.43,5.43Z"/><path class="cls-2" d="M1981.06,910.95c-35.68-12.66-13.53-76.45,22.02-65.87,61.95,13.79,33.12,66.97-10.96,66.98-3.6,0-7.29-.35-11.06-1.11ZM1995.49,879.47c-8.21,4.02-11.12,6.93.45,4.37.02-.73.1-1.45.23-2.17.18-.95.48-1.87.9-2.74-.02,0-.03,0-.05,0-.52,0-1.07.34-1.53.54Z"/><path class="cls-2" d="M2015.53,863.58c9.3-5.5,21.11-5.89,31.41-9.02,20.85-4.1,41.72-8.19,62.34-13.36l-.08.27-.42,1.59-.39,1.66-.36,1.76-.32,1.86-.29,1.98-.24,2.11-.19,2.24-.14,2.39-.07,2.53.02,2.65.11,2.75v.06c-28.1,6.68-56.59,11.93-84.54,18.42-8.86-1.21-13.52-13.57-6.83-19.88Z"/><path class="cls-2" d="M1777.25,1779.17c-9.52-1.41-20.18-5.96-24.2-15.53-1.9-3.43-.76-7.62-2.65-10.93-5.78-14.05,2.54-42.84,15.93-50.56,8.07-4.23,17.66-1.47,24.14,4.37,7,.49,14.81,2.66,18.61,9.56,14.25,19.83.07,63.71-26.33,63.71-1.79,0-3.62-.2-5.52-.62Z"/><path class="cls-2" d="M1795.68,1748.92c-5.79-11.46,6.86-24.52,16.54-13.71.06.04,1.55-.2,1.99-.25,29.27-2.52,58.82-1.61,87.88-6.7,24.41-2.1,49.13-5.87,73.46-6.67,8.89,2.74,8.96,16.3,0,18.98-7.09,1.41-14.42,1.66-21.59,2.66-40.94,3.31-81.55,10.43-122.7,10.4-3.82-.5-8.32.34-12.86,1.17-3.6.66-7.22,1.32-10.55,1.32-5.16,0-9.61-1.59-12.18-7.22Z"/><path class="cls-2" d="M1978.28,1744.84c-23.1.98-23.44-30.02-1.37-33.01,12.08-1.94,18.38,7.23,18.43,16.39.04,8.33-5.07,16.66-15.69,16.66-.45,0-.91-.01-1.38-.05Z"/><path class="cls-2" d="M1748.54,1750.05c-42.07-1.35-84.15-1.43-126.19-3.67-10.7.53-21.28-1.18-31.96-1.38-6.61-.68-14.3.46-20.19-2.97-7.07-5.03-3.99-17.07,4.7-17.93,12.05.59,24.17,1.24,36.22,2.23,45.8,1.05,91.87,3.2,137.55,3.45,9.62-2.58,14.48,3.68,14.26,9.95-.19,5.27-3.99,10.54-11.58,10.54-.88,0-1.82-.07-2.8-.22Z"/><path class="cls-2" d="M1566.35,1758.55c-34.3-2.23-14.09-51.52,12.39-36.08,11.46,11.03,6.13,36.09-11.59,36.1-.27,0-.53,0-.81-.02Z"/><path class="cls-2" d="M2137.42,1517.91c-13.5-24.08,26.43-51.38,37.99-28.81,1.11,6.54,1.52,14.09-.98,20.44-3.25,9.3-13.52,16.52-22.97,16.52-5.44,0-10.61-2.39-14.03-8.14Z"/><path class="cls-2" d="M2068.72,1648.21c-18.79-4.96-2.11-22.47,3.88-31.51,12.53-18.05,25.08-36.14,36.5-54.93,7.85-10.21,25.33-51.65,36.72-50.7,9.22-1.26,15.36,10.45,8.57,17.06-8.55,6.99-12.18,18.82-18.66,27.81-11.49,19.86-23.61,39.32-37.04,57.94-4.84,7.63-10.21,14.89-15.26,22.39-3.38,4.97-6.76,12.02-13.46,12.02-.4,0-.81-.03-1.24-.08Z"/><path class="cls-2" d="M2054.06,1667.85c-15.72-6.67-9.81-33.75,4.68-38.1,2.81-.55,5.77-.67,8.33.87,4.31-.63,9.13.05,12.48,3.3,12.63,13.18-1.75,35.63-17.97,35.64-2.49,0-5.02-.53-7.51-1.7Z"/><path class="cls-2" d="M2140.82,1533.04c-2.12-.71-3.93-2.61-5.86-3.46-5.14-.2-10.36-1.52-14.73-4.29-22.92-16.12,6.53-48.2,25.28-53.07,15.79-3.8,43.21,2.75,40.61,23.34-.87,9.89-2.19,20.17-9.21,28.02-5.9,7.37-15.39,11.76-24.81,11.77-3.86,0-7.7-.74-11.28-2.3Z"/><path class="cls-2" d="M2139.19,1713.83c-2.57-8.59,5.64-15.45,13.51-16.2,2.84-.34,5.59.28,8.33.89,2.73.61,5.46,1.22,8.29.9,2.36.06,4.69-.74,6.99-1.54,4.19-1.45,8.28-2.9,12.22.84,6.68,6.73,5.02,17.61,6.94,26.27,12.15,29.46-22.01,27.3-41,30.37-13.62-2.45-11.78-30.61-15.27-41.54Z"/><path class="cls-2" d="M2160.74,1537.2c-5.22-1.94-10.9-1.82-16.55-1.7-2.85.06-5.7.12-8.46-.09-2.29-.08-4.88.25-7.53.58-7.45.93-15.38,1.86-18.33-6.38-3.05-9.59,2.62-19.74.87-29.76-.51-9.01,1.26-17.87,1.65-26.83-.48-4.84,1.61-8.98,5.1-12.23,10.63-7.44,31.56,2.1,43.98,3.49,7.84,3.13,19.25-1.3,24.1,7.26,2.6,3.99.09,8-.5,11.95.2,10.64,1.65,21.26,1.36,31.93-.1,15.82-.63,22.89-18.18,24.73-2.79-.17-5.19-1.5-7.51-2.93ZM2144.58,1515.53c5.76.08,11.64-.05,17.31,1.04.78.18.6.11.67-.54.36-9.29-.18-18.62-1.14-27.86.77-5.96-7.15-4.02-14.68-2.09-4.58,1.18-9.01,2.36-11.25,1.76-.14,9.33-3.34,18.36-4.61,27.45,2.13.29,4.74.23,7.39.18,1.05-.02,2.11-.04,3.15-.04s2.14.02,3.15.1Z"/><path class="cls-2" d="M2419.39,1758.65c-16.28-4.26-17.23-46.54-14.25-60.34.52-2.53,3.6-3.72,4.24-5.68,5.79-21.92,35.2-11.12,50.14-5.94,27.29-4.46,14.73,40.54,18.08,56.05-2.35,12.57-17.93,9.61-27.32,11.96-7.02,1.05-14.14,1.19-21.2,1.79-2.85.76-5.41,2.28-8.34,2.28-.45,0-.9-.04-1.36-.11Z"/><path class="cls-2" d="M1618.3,839.23c-11.7-1.99-11.92-14.57-10.84-23.99.52-12.16.3-24.51,2.25-36.54,3.27-9.35,13.15-8.87,22.31-8.4,3.47.18,6.84.36,9.7,0,2.75.21,5.71-.12,8.67-.45,7.18-.79,14.42-1.59,19,5.25,7.02,12.42,1.38,27.66,3.6,40.96,7.2,16.72-16.98,17.36-27.74,18.67-5.67.23-11.51,3.07-16.97.43-1.68,2.94-4.99,4.17-8.22,4.17-.6,0-1.19-.04-1.77-.12Z"/><path class="cls-2" d="M1339.06,807.98c2.26-10.21-2.18-25.82,8.64-31.76,3.77-13.29,19.07-5.8,28.57-5.2,4.31,1.7,8.99.81,13.5-.08,6.04-1.19,11.78-2.38,15.94,2.67,3.12,3.6,1.57,8.01.93,12-.52,14.25,2.67,44.37-17.21,45.45-14.27-5.98-52.98-.14-50.37-23.08Z"/><path class="cls-2" d="M1895.37,467.1c-13.11-.55-34.89-11.39-36.23-25.88.87-20.57,2.42-41.91,26.26-47.67,12.22-1.84,26.11-3.58,36.75,4.02,8.52,2.44,16.4,9.17,16.78,18.58-.48,23.21-18.03,50.95-43.36,50.95-.07,0-.13,0-.2,0Z"/><path class="cls-2" d="M1922.37,434.28c-5.55-6.25-1.48-17.31,7.23-17.25,9.52-.06,19.09.03,28.68.12,31.9.31,64,.62,95.36-4.7,14.88-.99,29.96-2.35,44.84-2.06,8.55,1.76,11.38,14.27,3.86,19.09-15.2,4.32-32.15,1.26-47.83,4.13-30.89,6.06-62.66,3.33-93.96,4.62-3.95-.54-8.67-.24-13.51.06-2.9.18-5.84.36-8.7.36-6.22,0-12.01-.85-15.98-4.38Z"/><path class="cls-2" d="M2098.28,435.29c-20.96-10.77-3.3-34.14,15.47-31.43,15.39-2.48,26.22,18.25,9.41,23.98-3.99,5.51-10.91,8.73-17.74,8.73-2.44,0-4.87-.41-7.15-1.28Z"/><path class="cls-2" d="M1719.12,449.22c8.51-5.2,19.93-4.16,29.38-7.67,31.38-6.61,63.14-11.5,94.88-16.02,5.14-.23,10.12-1.88,15.19-2.21,14.69,2.53,12.14,23.38-2.92,22.88-43.61,5-86.59,14.4-129.63,22.27-8.9-.81-13.27-12.98-6.9-19.25Z"/><path class="cls-2" d="M1708.76,475.94c-13.05-9.02-9.19-35.7,7.48-37.94,6.86-.74,14.8,3.13,16.7,10.12,12.6,11.8,2.64,32.27-12.19,32.27-3.78,0-7.87-1.33-11.98-4.46Z"/><path class="cls-2" d="M1641.55,785.29c-11.62-2.47-7.67-15.87-7.72-24.45.38-23.42,2.46-46.75,3.84-70.1-.38-17.93,1.84-35.72,1.31-53.65,0-8.59-.43-17.31,1.21-25.77,2.54-8.82,15.88-9.18,18.89-.47.42,37.11-.98,74.69-3.5,111.88-.91,14.28-1.47,28.57-1.9,42.88.19,7.94-.21,19.85-10.04,19.85-.65,0-1.34-.05-2.08-.16Z"/><path class="cls-2" d="M1636.17,625.74c-21.55-5.73-6.52-36.52,7.55-42.68,9.91-4.34,25.7,3.39,20.08,15.45.75,7.46-.33,17.14-7.83,20.85-2.14.81-2.91,2.53-4.95,3.44-4.36,1.35-8.93,2.99-13.57,2.99-.43,0-.85-.01-1.28-.04Z"/><path class="cls-2" d="M1374.21,800.69c-11.48-2.41-7.89-15.72-7.21-24.2,1.95-18.25,1.29-36.61,2.5-54.91,2.7-23.2.89-46.49,1.16-69.78-.28-32.25,1.48-64.49,3.67-96.64,3.43-18.58-.58-38.39,3.7-56.45,4.46-7.42,16.52-5.27,18.24,3.22.94,23.31-1.48,46.66-3.13,69.92-1.01,29.09-3.3,58.09-2.49,87.23.37,23.62.72,47.14-1.58,70.68-.56,17.12-.51,34.26-2.44,51.31-.28,7.91-.54,19.76-10.38,19.77-.63,0-1.31-.05-2.02-.15Z"/><path class="cls-2" d="M1375.41,516.54c-.32-.19-.62-.41-.89-.66-26.04-5.23-1.12-57.59,21.21-46.35,21.77,8.83,8.8,49.7-11.36,49.71-2.87,0-5.88-.83-8.96-2.69Z"/><path class="cls-2" d="M1871.25,197.22c-10.25-15.77-5-37.24,12.74-44.81,14.64-11.53,39.32-13.68,50.58,3.38,14.9,23.52-17.26,50.65-42.75,50.65-8.11,0-15.54-2.74-20.57-9.21Z"/><path class="cls-2" d="M1599.45,202.12c19.99-1.32,40-2.17,59.75-6.19,42.27-7.65,84.55-15.21,127.3-19.62,22.28-3.86,44.63-8.02,67.3-8.11,16.78-10.69,25.36,15.39,6.61,19.28-22.43,1.36-44.86,3.44-66.98,7.91-23.54,3.36-47.15,5.45-70.56,9.7-41.25,6.76-82.23,16.19-124.13,17.01-11.62-1.56-11.02-19.12.71-19.98Z"/><path class="cls-2" d="M1563.54,237.01c-17.28-11.5-3.58-34.47,12.07-39.78,11.09-6.18,27.22,3.45,20.82,16.46,3.21,16.93-5.28,27.58-18,27.58-4.54,0-9.62-1.35-14.89-4.26Z"/><path class="cls-2" d="M1927.39,160.65c34.45-5.19,69.26-5.37,103.95-7.88,70.43-1.88,140.82-3.04,211.07-8.77,9.55-2.64,16.48,4.43,17.74,11.5,1.11,6.26-2.24,12.52-12.18,12.04-106.73,9.01-214.27,4.85-320.74,16.78-12.52-1.96-14.57-24.2.16-23.67Z"/><path class="cls-2" d="M2232.5,167.56c-3.31-4.29-2.93-9.68-3.19-14.61-2.26-4.25-1.8-9.91,1.42-13.54,10.69-10.54,33.95-18.71,43.1-2.53,18.68,13.68-6.6,38.53-26.32,38.53-5.98,0-11.44-2.28-15.02-7.85Z"/><path class="cls-2" d="M2183.95,721.84c-10.87-.43-19.92-8.22-23.77-18.03-17.7-13.72-14.35-42.89,2.23-56.11,10.98-8.05,26.24-9.11,39.33-6.98,43.24,7.24,17.77,81.11-17.4,81.12-.13,0-.26,0-.39,0Z"/><path class="cls-2" d="M2180.18,631.7c.93-17.69.28-35.42.47-53.13-.2-15.59.46-31.19.54-46.77.77-9.21,13.92-12.09,18.5-4.03,3.81,15.26-.26,31.91.96,47.65-.12,21.83.54,43.71-.96,65.47,5.07,6.15.09,16.27-7.87,16.06-.38.03-.76.04-1.12.04-12.89,0-11.44-15.89-10.51-25.28Z"/><path class="cls-2" d="M2180.13,544.09c-23.82-12.27,4.37-59.16,22.43-35.58,1.27,2.42,1.56,5.39.53,7.95-.33.42-.18.79.45,1.11,8.4,11.95-2.38,28.77-15.38,28.77-2.63,0-5.35-.69-8.02-2.24Z"/><path class="cls-2" d="M2182.65,774.82c-10.84-1.41-8.96-13.14-8.89-21.18.04-12.41.41-24.85,1.05-37.23.19-18.92,27.6-15.47,20.15,2.41-.55,10.36-.78,20.84-.95,31.25-.11,8.95,2.37,24.78-10.2,24.78-.38,0-.77-.01-1.17-.04Z"/><path class="cls-2" d="M2184.05,792.35c-12.12.21-16.92-10.77-16.34-21.75.62-11.84,7.48-23.68,18.12-21.5,4.68,2.41,10.18,3.51,14.02,7.38,11.3,11.63,1.1,35.88-15.08,35.88-.24,0-.48,0-.73-.02Z"/><path class="cls-2" d="M2106.85,864.98l-.07-2.75v-2.65s.03-2.53.03-2.53l.08-2.39.11-2.24.14-2.11.17-1.98.19-1.86.22-1.76.23-1.66.25-1.59.05-.27c4.71-1.99,9.4-4.14,14.06-6.51,4.34-1.57,8.63-6.41,13.11-5.46,5.4,2.22,7.28,16.72,1.96,21.14-10,5.86-20.22,10.54-30.52,14.67v-.06Z"/><path class="cls-2" d="M2142.39,864c-23.33-1.58-12.5-54.34,5.59-53.94,2.64.05,4.85,2.66,6.47,5.77,3.86,2.33,7.26,7.5,8.06,14.53,1.4,17.53-9.91,33.64-19.82,33.64-.1,0-.2,0-.3,0Z"/><path class="cls-2" d="M2135.7,863.91c-13.16-6.06-11.58-23.09-7.99-34.73,2.03-5.79,4.67-12.88,11.09-14.85,4.89-1.31,10.58-1.32,14.33,2.61,7.86.32,10.73,7.4,13.02,13.77,1.36,4.74-.81,9.62-1.85,14.23-2.4,4.99-4.4,10.59-8.11,14.76-5.44,4.86-13.6,7.37-20.5,4.22ZM2147.67,852.4c1.4,2.28,3.96-4.61,4.64-5.74,2.65-4.51,4.34-9.38,5.11-14.56.33-2.25-1.52-4.17-2.05-6.3-2.92-.29-5.7-1.38-7.96-3.27-.82-.07-1.71.08-2.37.58-6.39,3.36-9.11,10.35-9.9,17.18-.19,2.86-.34,5.85.09,8.68.77,1.08,2,1.83,2.92,2.82,3.1-.79,6.88-1.77,9.52.63Z"/><path class="cls-2" d="M2134.54,864.14c-15.89-5.65-13.97-25.88-9.5-38.82,6.11-10.56,23.86-11.33,33.66-5.92,3.53,1.34,7.72,2.86,8.62,7.01,2.23,7.56-7.41,9.05-7.71,1.93.21-.75-1.1-.82-1.59-1.13-2.5-.83-4.77-2.27-7.29-2.99-5.46-.83-11.73-.41-16.5,2.57-4.2,2.69-4.81,17.46-4.03,22.23.98,5.38,4.93,7.23,9.36,9.27,4.06,3.7-.62,8.7-5.02,5.84Z"/><path class="cls-2" d="M2095.09,867.44c-3.42-.91-5.35-5.84-2.83-8.56,1.03-1,2.42-.85,3.74-.9,2.89-.11,5.78-.3,8.64-.74,7.72-.56,21.22-6.68,27.87-4.18,2.92,1.81,3.78,8.04-.43,8.73-12.42,1.06-24.33,6.4-36.99,5.65Z"/><path class="cls-2" d="M2093.65,863.44c-3.62-.8-5.47-5.92-3.29-8.89,4.09-2.59,9.55-2.92,14.11-4.71,7.54-2.07,14.79-5.43,22.71-5.69,1.19-.04,2.42-.22,3.62-.1,4.67.63,6.27,10.02.55,10.01-13.09.26-24.96,7.2-37.69,9.38Z"/><path class="cls-2" d="M2465.12,727.84c-25.14-3.35-47.41-21.12-39.17-48.62,2.49-23.79,21.67-33.11,43.62-32.86,12.65.04,28.64,6.19,32.02,19.6,1.1,7.36-.94,14.83-1.91,22.11-.86,4.49-2.28,8.9-4.33,12.99.32,3.52.56,7.76-2.61,10.54-8.01,6.75-16.31,16.51-27.61,16.25Z"/><path class="cls-2" d="M2462.8,673.8c-19.06-3.22-4.82-48.46-5.67-62.54-.29-11.63,1.51-23.26.33-34.84-1.12-6.04-2.01-12.12-1.96-18.28-1.06-26.51.66-52.91,1.4-79.38,2.55-21.23-1.98-42.49,1-63.57,1.25-13.41-1.55-27.84,2.06-40.8,4.1-7.48,16.19-6.08,18.29,2.28.76,11.56-.5,23.32-.23,34.95.07,8.63-2.71,17.08-.93,25.68,2.87,44.99-5.95,90.39-.01,135.21,2.25,23.97-.86,48.23-3.35,72.1-.52,4.78-.86,9.61-.61,14.42,3.15,7.08-2.21,15.89-10.31,14.76Z"/><path class="cls-2" d="M2471.85,397.72c-27.39-2.02-30.15-42.1-3.63-44.98,12.4-.26,24.36,11.07,23.33,23.7-.71,10.32-8.1,22.34-19.7,21.28Z"/><path class="cls-2" d="M1645.25,1373.94c-21.31-11.23-23.91-38.29-16.71-59.06,7.53-20.25,22.61-30.6,44.01-23.22,26.34,4.89,37.21,38.77,25.36,60.97-9.82,15.21-22.05,23.41-40.39,18.66-2.84,3.63-8.19,4.65-12.27,2.64Z"/><path class="cls-2" d="M2137.75,1028.63c-24.04,1.1-27.62-17.62-18.31-36-13.4-14.47,20.67-40.65,41.09-22.97,23.45,18.89,7.33,60.21-22.78,58.97Z"/><path class="cls-2" d="M2116.88,1035.46c-21.91-1.19-15.62-50.63-15.84-66.57,4.13-18.27,29.06-11.86,42.91-12.63,7.08.06,15.18-3.88,20.68,2.83,2.5,2.64,3.25,6.43,3.08,9.96.86,9.99,3.06,19.75,3.04,29.87.41,3.74,3.67,6.48,4.08,10.48,1.22,6.44,3.95,15.24-2.43,19.81-16.96,8.49-37.07,5.55-55.51,6.26ZM2128.15,976.31c5.37,4.49,4.62,14.06-2.03,16.9-.11.14,0,.86.01,1.05,1.87,11.56-3.46,14.54,10.96,14.45,7.49-.12,9.83,1.81,13.85-5.71-1.27-8.12-.32-16.44-2.64-24.43-.3-.64.15-2.03-.84-1.9-6.43.04-12.9-.66-19.32-.36Z"/><path class="cls-2" d="M1856.03,1145.32c-10.67.36-33.82-10.89-36.41-21.84-1.72-18.14,8.16-41.06,26.61-46.93,44.55-7.56,59.69,67.57,9.8,68.77Z"/><path class="cls-2" d="M1820.48,1551.07c-11.96-9.31-23.12-26.5-17.85-42.07,3.41-27.4,27.25-42.88,53.17-31.35,18.88,9.1,16.8,44.58,7.13,59.85-9.41,11.73-27.97,20.69-42.45,13.57Z"/><path class="cls-2" d="M1661.7,1434.16c-11.03-1.57-8.33-13.68-8.6-21.71-3.73-15.78-1.02-32.04-2.31-48.13,2.22-17.67,24.56-13.49,20.38,8.39.09,8.62-.3,17.24-.32,25.85,2.34,10.38,7.87,36.36-9.15,35.6Z"/><path class="cls-2" d="M1655.31,1455.69c-21.23-10.54-7.64-37.37,11.97-38.81,28.68,1.69,13,51.48-11.97,38.81Z"/><path class="cls-2" d="M1777.3,1533.8c-9.15,0-18.3,0-27.46,0-6.33.7-13.68-1.16-15.2-8.24-2.33-8.9,6.53-14.7,14.59-12.8,9.19,0,18.38,0,27.57,0,14.6,1.31,30.57-3.45,44.53.48,9.32,5.57,4.74,21.23-6.48,19.51-12.52.33-25.02,1.24-37.55,1.05Z"/><path class="cls-2" d="M1725.71,1540.48c-24.02-11.96,11.63-58.59,21.89-28.69,24.19,11.48,2.06,43.64-21.89,28.69Z"/><path class="cls-2" d="M1877.84,1524.17c-8.61-1.26-22.57,1.92-24.43-9.79-.75-5.42,3.03-10.72,8.52-11.45,25.36,1.52,50.92,2.16,76.07-2.3,10.94.02,21.98-1.27,32.68-1.55,8.5,2,10.28,14.65,2.66,18.94-10.6,4.12-22.8,1.84-34,2.99-20.28,3.33-40.98,4.36-61.5,3.17Z"/><path class="cls-2" d="M1975.77,1524.21c-14.9,1.1-26.64-15.69-14.18-26.93,1.57-6.08,7.59-10.21,13.9-8.07,7.24,1.61,16.14-1.12,21.86,5.03,11.45,13.68-7.22,30.86-21.57,29.97Z"/><path class="cls-2" d="M2138.89,1111.11c-11.74-1.26-9.86-13.63-8.47-22.12.55-8.82-.07-17.64-.88-26.42-.2-7.01-.07-14.04.02-21.05-.77-2.8-1.18-5.95.39-8.61,3.55-9.5,18.31-7.74,20.13,2.05.84,12.75-.6,25.62,1.2,38.35-1.17,11.15,4.65,38.33-12.39,37.81Z"/><path class="cls-2" d="M2127.18,1191.14c-1.84-1.95-2.89-4.59-2.8-7.29.2-5.62,5.28-9.73,10.77-9.39,5.52.34,10.26,5.04,10.06,10.68-.09,2.65-1.31,5.17-3.3,6.91-2.14,1.86-4.7,2.47-7.47,2.48-2.79-.36-5.29-1.3-7.26-3.39Z"/><path class="cls-2" d="M2131.4,1255.34c-11.33-1.79-8.81-13.82-8.21-22.16.72-15.3-.28-30.67,1.88-45.89,5.29-38.79,4.52-78.17,6.68-117.14,4.29-15.39,25.17-10.13,20.43,12.59-1.74,16.82-1,33.8-2.67,50.66-.28,11.54.67,23.17-1.46,34.59-2.24,19.71-4.61,39.37-3.99,59.27-1.04,9.97,2.64,29.3-12.64,28.1Z"/><path class="cls-2" d="M2123.74,1275.01c-17.55-9.18-14.14-50.57,9.86-33.98,23.38.16,10.79,45.68-9.86,33.98Z"/><path class="cls-2" d="M1662,1311.08c-7.82-.64-9.88-8.04-9.91-14.65-4.04-18.83-2.8-38.37-2.75-57.52,1.7-17.92,24.43-11.31,20.56,5.25-.87,12.4-.2,25,.31,37.45,1.08,10.13,8.4,29.43-8.21,29.48Z"/><path class="cls-2" d="M1640.89,1254.33c-4.91-7.98-.82-17.54,1.4-25.63-.1-5.33,4.09-9.71,8.36-12.3,7.42-6.28,17.33-1.57,21.95,5.72,19.16,23.1-11.47,55.57-31.71,32.21Z"/><path class="cls-2" d="M1764.67,1163.59c-8.69-.76-15.05-12.6-7.84-19.01,17.73-8.74,38.11-11.31,56.13-19.69,24.48-9.99,48.33-21.37,72.51-32.11,10.89-4.5,22.22-7.61,32.84-12.76,8.44-3.73,16.18-8.99,25.05-11.77,6.49-3.14,14.77-7.42,21.01-1.48,4.55,3.97,6.12,11.69,1.11,16-14.93,6.36-29.55,13.68-44.41,20.41-10.98,4.75-22.7,7.55-33.38,13.09-39.89,18.3-80.31,37.19-123.04,47.33Z"/><path class="cls-2" d="M1953.44,1089.86c-13.18-8.53-10.95-35.65,6.11-37.89,6.93-4.77,17.85-.26,21.86,6.53,9.39,16.59-9.62,42.58-27.97,31.36Z"/><path class="cls-2" d="M1754.06,1180.17c-34.09-3.12-16.05-67.16,9.37-41.97,18.83,7.9,11.66,43.44-9.37,41.97Z"/><path class="cls-2" d="M2079.53,1055.6c-6.92-.74-11.17-8.91-7.52-14.91,2.45-3.06,5.17-5.88,7.32-9.21,7-9.18,14.1-18.3,19.81-28.37,3.19-5.03,6.56-10.14,11.08-14.07,7.48-7.03,20.29.39,17.2,10.42-.82,3.05-3.04,5.76-6,6.94-2.49,2.38-4.19,5.66-6.08,8.57-5.79,10.11-12.99,19.25-20.01,28.52-3.96,5.29-8.18,12.87-15.8,12.12Z"/><path class="cls-2" d="M2062.58,1065.22c-11.3-9.28-1.15-39.25,14.68-29.74,34.78,1.68,8.74,50.21-14.68,29.74Z"/></g></svg>