<?xml version="1.0" encoding="UTF-8"?><svg xmlns="http://www.w3.org/2000/svg" width="3840" height="1920" viewBox="0 0 3840 1920"><defs><style>.cls-1{fill:#000;}.cls-1,.cls-2{stroke-width:0px;}.cls-2{fill:#5b5d63;}</style></defs><g id="Image_6"><path class="cls-1" d="M3103.34,951.26c-11.06-9.56-22.84-18.9-30.2-31.8-12.6-22.89-17.5-49.89-17.48-75.83,1.03-16.02,11.09-29.31,19.01-42.66,18.7-35.64,71.42-55.63,108.43-38.71,37.36,11.9,54.25,26.36,71.22,61.89,7.03,14.85,10.04,31.28,12.2,47.46,4.57,23.82-.8,48.22-16.33,67.05-8.96,14.25-22.96,22.97-37.95,29.78-15.9,10.77-35.48,15.29-54.47,15.7-24.23-4.32-37.22-16.68-54.44-32.88ZM3152.85,949.24h2.32c3.88,0,7.58,1.23,10.5,3.8,12.86-1.6,24.39-5.74,35.14-13.03,18.83-7.57,34.49-26.09,36.61-46.56-.19-40.13-14.97-89.89-58.82-100.18-20.82-11.79-45.2-5.83-64.35,6.59-11.69,10.68-18.92,25.65-26.48,39.37-4.93,18.89,2.79,45.43,10.64,63.04,8.59,15.09,24.25,24.07,36.25,36.17.38-.04.75-.06,1.12-.06,7.36,0,11.24,7.33,17.05,10.85Z"/><path class="cls-1" d="M3118.02,643.96c-28.14-10.54-27.61-58.6.58-68.61,13.53-16.49,42.17-10.16,49.68,9.11,8.92,25.61-11.7,61.46-39.14,61.46-3.61,0-7.33-.62-11.12-1.96Z"/><path class="cls-1" d="M3425.69,708.06c-19.04.3-29.59-17.97-31.02-36.24-1.68-21.58,9.38-43.17,34.24-34.12,17.65-7.6,38.16,7.95,37.46,26.69-.13,19.38-12.73,44.59-33.62,44.59-2.26,0-4.61-.29-7.06-.92Z"/><path class="cls-1" d="M3262.49,1387.02c-2.29-26.55,28.41-18.34,43.58-28.27,14.51-8.24,24.15-22.44,35.27-34.47,14.57-18.46,35.18-35.16,39.48-59.37,1.47-6.92.53-14.09,1.22-20.95,2.62-12.84,20.98-15.9,27.72-4.66,6.34,13.27,1.03,29.88-2.01,43.6-6.98,20.93-22.94,37.05-36.53,53.48-21.9,25.5-44.7,55.82-80.93,58.87-2.84,4.47-7.43,6.46-12.06,6.46-7.84,0-15.83-5.69-15.74-14.69Z"/><path class="cls-1" d="M2782.84,1691.54c-24.19-23.48-54-40.99-76.12-66.64-11.85-14.12-21.74-29.75-33.73-43.75-13.67-15.64-29.75-29.02-43-45.04-25.69-31.11-46.39-66.48-63.65-102.85-17.84-40.36-19.22-86.27-12.27-129.3,4.07-19.39,14.12-36.71,22.73-54.33,12.85-27.18,32.95-49.85,56.2-68.63,18.45-19.72,38.77-36.96,61.84-51.07,36.17-29.25,74.25-56.71,116.07-77.34,66.68-32.82,128.85-75.9,200.97-96.5,10.39-2.78,20.44-4.85,29.02-11.45,9.72-4.39,22.82,1.75,24.42,12.59,3.07,21.12-22.24,21.55-36.59,25.74-22.95,5.99-44.93,14.88-66.53,24.59-41.11,17.47-78.27,42.69-118.26,62.44-24.05,12.19-48.37,24.02-70.43,39.65-29.76,18.96-55.82,42.92-85.64,61.73-12.18,8.93-22,20.49-32.96,30.79-8.71,8.62-19.03,15.57-26.85,25.09-19.14,21.96-31.39,48.82-42.18,75.59-5.04,15.81-4.58,32.54-4.7,48.94-.45,14.44.3,28.87,4.18,42.85,10.48,39.15,33.65,73.64,56.1,106.91,16.49,23.61,39.48,41.42,57.73,63.49,12.84,15.39,23.37,32.63,37.14,47.25,9.82,10.18,21.41,18.36,32.46,27.11-21.59-63.92-34.7-130.46-41.57-197.5-.57-10.36,9.93-17.31,19.54-16,8.89.85,14.77,8.69,20.21,14.94,19.21,24.21,34.79,51.08,50.36,77.71,8.39,13.91,15.58,29.04,27.38,40.46-2.11-50.68-26.62-99.13-23.13-150.46,2.21-25.8,32.31-26.87,42.55-5.25,12.04,24.95,17.68,52.61,28.56,78.11,7.54,18.37,13.81,38.88,28.45,52.98-5.68-47.97-11.35-96.04-20.17-143.55-7.24-41.36-17.06-82.8-15.84-125.03,1.43-87.55,64.79-56.05,36.89-29.82-14.28,34.42-2.92,75.26,1.9,110.98,8.63,45.34,16.45,90.8,21.63,136.69,1.31,24.2,13.03,56.23,1.61,78.41-4.71,6.98-13.97,10.39-21.93,7.21-32.6-6.91-46.76-40.86-57.84-68.78-1.24-3.25-2.62-6.44-3.73-9.73,5.2,27.15,16.66,55.45,9.15,83.16-9.94,29.75-42.32,19.64-56.65-.79-20.01-25.85-33.47-56.09-51.69-83.18,4.89,33.45,10.99,66.76,20.84,99.15,6.78,27.95,19.95,54.61,22.4,83.44,1.64,10.77-7.14,21.13-17.22,21.13-2.52,0-5.13-.65-7.67-2.1Z"/><path class="cls-1" d="M2867.29,1500.17c-.04-.1-.07-.2-.11-.29.08.2.16.39.23.59.19.5.38,1.01.57,1.52-.23-.61-.46-1.21-.69-1.81Z"/><path class="cls-1" d="M3203.58,741.87c-34.6-13.14-34.55-49.18-17.42-76.94,14.75-23.55,42.46-33.09,66.31-44.74,16.11-8.85,36.01-16.22,43.27-34.59,6.3-15.84,11.75-32.08,16.19-48.55,3.06-10.39,3.15-23.84,12.57-30.78,16.83-11.58,34.93,15.89,19.44,27.75-22.82,93.57-33.45,91.56-115.53,131.89-13.51,6.54-35.42,37.81-14.95,47.04,5.1,2.41,11.06,1.46,16.87.47,9.37-1.6,18.36-3.29,22.76,8.87,5.34,23.19-27.52,25.42-45.13,20.95-1.6-.41-3.08-.87-4.39-1.38Z"/><path class="cls-1" d="M436.22,932.04c-7.93-2.76-12.01-11.53-9.39-19.42,7.11-20.46,15.59-40.88,28.35-58.51,8.22-10.71,19.9-18.34,32.65-22.55,9.01-3.8,17.43-9.24,27.02-11.45.06.04.13.08.19.11,2.87,1.71,5.92,3.02,9.13,3.95,5.43,1.57,11.16,1.9,16.72,1.04.93-.14,1.86-.32,2.78-.53,9.59,4.65,18.75,11.13,28.41,14.9,13.73,2.34,33.62,13.64,46.3,6.45,15.66-11.83,21.28-50.75,41.97-53.76,8.16-.56,15.75,6.27,16.01,14.46.2,4.01-1.23,7.58-3.65,10.69-5.87,8.33-10.87,17.26-15.52,26.32-15.72,34.77-43.17,41.99-77.55,29.38-20.45-2.95-37.07-15.77-55.6-23.47-6.28.22-11.59,4.44-17.2,6.85-7.12,3.52-15.12,5.21-21.44,10.24-13.07,11.16-18.42,28.62-25.49,43.77-2.43,9.18-6.95,20.93-16.31,22.38-2.18.34-4.63.12-7.37-.83Z"/><path class="cls-1" d="M331.62,657.45c-24.98-2.55-50.16-26.3-43.41-52.93,6.05-26.98,39.98-43.83,64.3-29.26,30.92,18.35,21.5,76.39-13.59,81.83-2.32.36-4.75.49-7.3.36Z"/><path class="cls-1" d="M610.73,561.24c-30.36-2.22-34.55-43.25-20.9-64.37,2.46-16.93,14.99-34.67,33.51-34.69,53.18,2.19,37.13,91.98-6.23,98.69-2.07.32-4.2.45-6.39.37Z"/><path class="cls-1" d="M1095.31,1229.51c-13.14-1.15-16.68-15.97-20.37-26.34-5.89-15.79-11.46-31.69-14.9-48.23-4.39-20.6-11.6-40.45-16.37-60.94-6.57,28.29-10.59,57.18-18.37,85.18-5.28,18.04-11.96,35.63-17.26,53.66-7.86,19.08-32.82,8.65-34-9.16-10.79-47.01-10.73-95.73-18.99-143.19-3.84,46.58,1.22,96.33-22.35,138.67-10.24,16.7-27.45,6.85-38.07-3.51-10.82-15.15-12.7-34.62-17.75-52.14-11.28-44.46-19.02-89.64-24.49-135.17-1.7-12.16-3.2-24.45-7.89-35.91-5.2-8.19-4.08-19.76,5.35-24.23,34.75-14.16,33.16,81.62,39.16,102.44,5.93,38.65,14.76,76.84,24.97,114.56,8.27-24.1,7.83-49.8,8.88-74.95,1.64-38.95,5.04-77.91,11.65-116.34,1.62-17.79,18.99-40.11,35.79-21.75,6.26,7.55,4.2,18.12,5.56,27.2,4.5,57.17,16.25,113.51,20.32,170.78,9.75-39.34,16.29-79.43,25.58-118.9,2.96-17.22,9.37-48.35,33.12-32.85,5.78,5.26,6.41,13.51,8.16,20.68,3.36,16.12,6.59,32.27,10.29,48.32,7.85,27.43,15.04,55,22.1,82.64,13.22-58.21,25.72-116.62,37.45-175.14,8.66-52.39,13.21-105.48,23.92-157.48,4.02-18.99,5.09-38.44,8.08-57.58,3.65-22.06,10.23-44.01,6.81-66.55-2.53-16.1-4-33.01-11.96-47.54-8.34-11.44-15.16-25.21-27.04-33.34-27.58-13.14-61.92-13.06-91.32-6.54-32.26,10.49-63.43,25.32-93.06,41.72-34.23,21.51-64.85,48.11-94.6,75.35-17.81,17.63-35.52,35.45-52.83,53.56-3.64,18.79-32.31,14.14-30.21-4.9,3.73-18.84,23.4-29.25,34.86-43.44,18.29-19.1,37.27-37.51,57.67-54.37,30.87-26.52,63.32-52.56,101.01-68.65,40.43-20.27,83.43-39.1,129.72-33.06,34.93,1.23,65.11,13.4,82.96,44.82,19.29,23.37,23.48,54.62,25.97,83.87,1.84,22.4-4.79,44.12-8.26,66.05-3.87,42.67-14.63,84.2-19.17,126.78-8.65,72.24-23.74,143.26-39.24,214.27-6.12,26.16-11.29,52.55-18.51,78.43-2.69,9.52-7.74,21.53-18.15,23.14-1.32.2-2.73.24-4.23.09Z"/><path class="cls-1" d="M439.65,1411c-1.23-16.96,12.29-39.17,19.54-54.65,14.45-23.25,40.35-36.58,65.71-44.81,43.54-11.3,61.51-.6,96.2,21.24,1.62-4.98,4.96-9.44,9.99-12.68,6.72-4.33,16.16-3.96,23.28.01-10.02-9.73-22.8-15.81-34.3-23.75-25.72-17.46-57.4-23.99-87.85-17.28-35.23,5.85-69.22,23.87-92.32,51.26-14,20.28-23.88,43.83-30.43,67.51-7.95,38.5,31.48,40,30.17,13.15Z"/><path class="cls-1" d="M448.2,1339.13c-10.2-7.54-23.66-12.88-32.38-22.37-18.06-17.98-34.31-38.35-45.97-61.09-10.86-23.64-18.31-48.81-25.81-73.67-2.85-12.74,12.97-23.05,23.51-15.41,9.61,8.35,9.96,25.82,15.36,37.32,9.16,34.43,27.73,65.4,53.29,90.16,9.55,11.93,29.36,12.88,35.03,27.35,3.43,9.59-3.93,18.84-12.68,20.19-3.42.53-7.06-.15-10.35-2.48Z"/><path class="cls-1" d="M359.91,1025.18c-57.53-1.76-105.48-39.46-137.37-85-19.72-27.27-39.53-55.58-51.17-87.39-12.3-42.85-23.56-87.52-17.26-132.34.97-9.9,2.23-19.76,3.77-29.59,3.97-19.48,13.36-37.44,17.85-56.85,8.13-39.59,27.87-74.79,48.55-109.06,13.17-21.37,22.54-45.42,39.55-64.2,24.09-26.22,48.06-52.65,75.02-75.99,12.74-11.57,28.16-19.62,43.95-26.21,24.23-11.16,49.94-21.67,75-30.23,48.04-24.99,100.2-39.57,153.64-47.28,28.29-6.34,56.9-.37,85.35,1.41,21.62,1.32,41.69,9.41,61.98,16.2,37.51,5.84,53.6,15.05,82.78,39.2,18.3,15.39,27.52,38.24,38.83,58.73,20.96,42.36,36.04,88.9,36.43,136.49.12,34.45-7.43,67.72-15.69,100.93-7.09,34.25-20.3,67.17-42.74,94.28-3.38,4.45-7.21,8.54-10.74,12.87-4.73,6.25-7.67,15.52-16.52,16.74-12.95,2.68-22.89-12.76-15.41-23.51,15.74-24.58,38.51-44.93,46.18-74.09,9.62-27.87,15.24-57.22,21.4-86.02,6.73-45.13,1.04-91.38-16.58-133.52-10.14-24.53-21.7-48.68-36.44-70.8-12.41-14.01-28.67-25.06-45.12-33.83-9.52-3.81-19.85-4.48-29.75-6.87-12.96-3.05-25.1-8.68-37.89-12.32-24.71-6.01-50.53-5.84-75.72-8.59-23.7,1.25-47.29,6-70.29,11.72-19.53,3.42-38.51,8.31-56.64,16.52-15.9,5.18-30.51,13.35-45.78,20.01-26.2,9.09-51.72,19.71-77.01,31.17-31.91,12.16-53.34,39.91-77.49,62.67-10.76,12.32-22.34,23.91-32.84,36.46-14.34,20.31-24.31,43.34-37.6,64.35-10.21,17.83-20.59,35.7-28.44,54.73-6.29,17.07-10,34.95-15.32,52.33-3.2,10.87-7.61,21.34-11.22,32.07-4.63,25.18-7.76,51.22-5.73,76.82,4.72,27.62,9.73,55.62,19.13,82.08,8.38,20.71,21.69,38.77,33.46,57.61,29.02,42.95,64.12,80.91,118.29,87.75,15.15-11.03,25.53-1.17,26.15,10.21.46,8.58-4.64,18.03-17.44,20.01-1,.15-2.04.26-3.12.32Z"/><path class="cls-1" d="M540.33,758.31c-19.83-2.67-59.31-16.87-61.05-39.94.52-12.96,18.52-19.07,26.68-8.85,9.76,10.77,23.82,16.34,37.95,18.54,24.73-.8-10.89-53.98-21.84-59.6-18.51-14.74-29.95-36-37.48-58.06-11.12-26.17-19.17-53.62-19.95-82.22-.84-28.43-2.68-57.39,1.68-85.58,2.75-15.13,25.82-16.01,30.08-1.36,1.33,8.05,3.05,17.98-1.87,25.13-2.19,62.38.7,100.07,28.67,157,7.25,13.03,19.08,21.83,29.67,31.88,9.41,10.41,16.38,22.98,22.98,35.27,13.57,25.67,6.12,63.41-22.78,67.89-3.86.6-8.11.6-12.74-.1Z"/><path class="cls-1" d="M3055.49,1429.68c-15.78,4.74-28.44,16.87-33.34,32.69-4.83,15.6-1.13,33.07,5.48,47.56,12.24,26.83,38.3,44.57,67.13,48.33,7.45.97,13.89-7.08,13.89-13.89,0-8.31-6.42-12.92-13.89-13.89,2.54.33-1.82-.41-1.89-.43-1.15-.24-2.29-.52-3.43-.83-2.49-.67-4.96-1.47-7.34-2.45,2.13.88-1.82-.91-1.82-.91-1.05-.52-2.09-1.08-3.11-1.66-2.26-1.27-4.42-2.69-6.55-4.17-6.37-4.42-12.83-12.13-17.15-20.33-3.68-6.98-6.93-17.74-5.33-26.82.77-4.38,2.3-7.28,4.68-9.91,3.38-3.71,6.06-5.31,10.05-6.51,7.18-2.16,11.72-9.74,9.7-17.09s-9.87-11.87-17.09-9.7h0Z"/><path class="cls-1" d="M3285.2,1484.93c16.37,10.47,28-9.18,25.97-23.93-4.91-39.97-18.32-88.83-58.48-106.38-27.81-14.3-59.03-11.67-89.25-11.16-19.9-.45-53.63,11.96-77.98,24.84-.83.09-1.66.27-2.47.57-24.82,9.06-35.41,36.02-30.09,60.87,5.61,26.24,29.93,44.09,52.66,55.09,6.75,3.27,15.01,1.84,19.01-4.98,3.56-6.09,1.8-15.72-4.98-19-4.6-2.22-9.12-4.6-13.48-7.26-4.27-2.61-7.95-5.19-10.8-7.67-1.9-1.65-3.72-3.38-5.44-5.21-.86-.91-1.68-1.84-2.49-2.79-.31-.37-.45-.52-.5-.54-.14-.21-.31-.45-.54-.77-1.43-2.04-2.75-4.15-3.91-6.36-.1-.2-.81-1.71-1.12-2.34-.2-.61-.69-1.98-.68-1.93-.55-1.77-.99-3.59-1.29-5.42.2.91-.13-3.58-.11-4.49.01-.84.1-1.68.11-2.51,0-.28,0-.5,0-.68.04-.16.09-.36.15-.6.42-1.82.85-3.62,1.39-5.41.16-.54.4-1.17.5-1.43.14-.29.28-.59.43-.88-.06.95-.16,1.9-.35,2.83,3.38-3.28,6.97-6.3,11.12-8.63,28.93-14.19,58.8-28.39,91.86-25.03,38.07-2.27,72.09,5.4,85.77,45.21,4.37,14.57,10.05,29.3,10.45,44.66-2.64,7.44-2.78,16.24,4.55,21.32Z"/><path class="cls-1" d="M3599.57,969.66c18-17.67,39.59-31.72,55.31-51.63,12.39-16.94,20.86-36.38,33.86-52.95,15.21-18.83,24.44-41.09,28.15-64.96,4.01-22.16,11.14-44,11.47-66.67-.51-23.18-1.87-46.5-6.37-69.28-10.44-40.21-28.39-78.67-48.28-115.02-15.18-23.06-37.2-40.28-55.98-60.21-22.44-26.13-53.58-40.53-82.93-57.2-29.38-20.24-64.45-27.62-97.22-40.44-22.94-9.09-46.52-16.53-70.79-21.08-25.96-6.35-52.87-3.48-79.27-2.36-28.49.85-56.85,3.13-85.17,6.3-42.85,6.88-85.89,21.65-121.52,46.8-26.18,17.38-53.93,33.12-74.96,56.97-59.21,61.88-80.3,120.38-85.5,204.77-5.77,43.8-1.57,88.06,7.93,131.04,8.23,44.52,19.08,82.44,50.19,116.75,11.47,18.43,27.55,34.14,50.12,36.13,26.61,10.56,35.53-28.67-.15-31.26-13.57-1.51-19.41-16.09-27.29-25.38-31.55-33.71-38.09-76.5-46.38-120.16-8.79-40.54-7.64-82.17-1.91-123.04,3.36-35.95,8.81-72.62,27.91-103.98,24.37-44.29,59.93-82.84,104.43-108.16,31.02-23.41,66.89-38.23,104.48-47.49,31.76-5.7,64.15-7.41,96.36-8.7,21.48-.84,43.19-3.31,64.61-.38,49.14,8.52,94.86,29.41,141.96,45.04,12.72,5.75,24.24,13.73,36.42,20.49,24.71,13.01,49.42,26.31,67.98,47.75,18.64,20.27,41.89,37.02,55.3,61.55,15.19,31.34,30.9,63.02,39.71,96.85,4.41,26.42,7.87,53.92,4.12,80.59-8.18,34.05-9.47,71.62-33.75,99.05-21.71,30.5-28.45,54.33-60.79,77.55-17.47,13.84-31.84,31.11-49.49,44.69-19.75,12.21-37.52,27.43-57.73,38.89-15.18,7.49-29.98,15.71-45.38,22.73-14.13,5.1-36.14,17.8-23.44,35.11,5.94,7.1,15.54,7.29,24.04,7.88,18.62,1.78,37.8,3.4,54.98,11.39,16.12,8.19,33.41,13.93,49.34,22.41,9.04,6.14,16.36,14.46,25.08,21.02,11.25,8.53,24.05,15.04,33.89,25.34,10.47,11.5,19.73,24.05,29.12,36.44,32.23,47.5,42.57,77.32,39.27,135.11-4.98,51.63-18.11,107.43-57.56,143.89-57.14,60.33-128.04,105.6-202.77,141.14-37.72,20.11-75.88,40.19-119.11,44.6-28.92,6.73-58.31,9.21-87.55,2.89-24.77-3.15-49.7-7.12-72.45-17.9-14.48-7.73-30.71-11.29-45.27-18.68-3.91-2.65-7.65-5.54-11.29-8.57.15.73-23.32-15.7-31.31-27.72-6.83-10.28-11.18-21.03-11.48-32.29-.15-5.57.01-9.95,3.22-14.32.58-.78,1.45-1.07,2.7-1.98.28-.21.51-.22.72-.23.7-.04,1.17,0,1.44.03,6.59,2.45,14.02,1.17,17.88-5.43,3.46-5.92,1.91-15.95-4.98-19.01-19.67-8.73-39.64,2.47-46.27,22.27-5.87,17.52-1.26,37.48,6.36,53.66,13.62,28.93,67.27,64.11,67.08,64.7,3.58,1.49,7.25,2.75,10.93,3.99.41.22.82.45,1.23.67,1.79.97,3.73,1.52,5.68,1.7,1.01.36,2.01.72,3.01,1.1,41.85,21.52,88.2,28.56,134.61,32.45.44,0,.87,0,1.31,0,33.13,0,65.85-8.45,98.19-14.97,37.24-9.58,69.65-31.18,104.24-47.24,57.86-28.86,114.05-63.55,162.14-106.93,21.99-22.3,47.21-42.21,63.43-69.42,36.55-65.45,52.49-167.33,18.13-236.16-23.59-44.27-52.41-87.81-96.52-113.74-16.12-15.29-33.59-28.38-55.02-35.21-18.89-8.19-37.11-18.75-57.88-21.38,23.68-10.77,45.33-24.66,66.03-40.32,18.32-10.96,34.77-24.39,49.4-39.93ZM3050.73,1538.89c.16.03.16.04,0,0h0ZM3050.26,1538.73c-.21-.08-.46-.17-.79-.32.26.12.52.21.79.32Z"/><path class="cls-1" d="M618.76,1328.51c3.38,2.28,4.46,2.99,7.53,6.26.38.4,1.51,1.61.47.57,2.51,2.52-.28-.6.66.98.77,1.3.23-1.25.14.29s.02.21.1-.06c-1.88,5.97-8.94,11.45-14.1,14.68-7.56,4.72-13.45,6.76-22.44,8.85-9.76,2.26-19.7,3.07-29.67,3.84-7.48.58-13.89,5.97-13.89,13.89,0,7.07,6.37,14.47,13.89,13.89,26.77-2.06,53.72-5.58,75.19-23.1,9.49-7.74,19.13-19.81,18.68-32.68-.49-14.25-11.6-24.02-22.56-31.4-6.23-4.19-15.39-1.2-19.01,4.98-4,6.83-1.26,14.8,4.98,19.01h0Z"/><path class="cls-1" d="M612.89,1383.77c9.42.65,18.62,2.3,27.71,4.87,8.22,2.32,14.75,4.09,21.33,8.89-.75-.67-.49-.44.78.67.75.68,1.46,1.4,2.14,2.15-1.44-1.73,2.1,3.76,1.18,1.73.35.97.65,1.95.88,2.95.36,1.72.42,2.02.17.9.06,1.04.07,2.08.03,3.12-.14,1.75-.15,2.09-.04.99-1.13,7.25-4.44,11.35-9.98,16.3-4.75,4.25-12.28,8.38-19.09,11.59-7.72,3.64-16.32,6.44-24.79,8.73-17.71,4.8-35.93,7.34-54.09,9.79-7.44,1-11.5,10.55-9.7,17.09,2.21,8.03,9.62,10.71,17.09,9.7,33.28-4.49,68.19-9.62,97.29-27.63,13.98-8.65,26.81-21.46,30.07-38.18,3.69-18.98-4.38-36.38-21.19-45.92-17.77-10.09-39.64-14.12-59.77-15.51-7.49-.52-13.89,6.75-13.89,13.89,0,7.95,6.38,13.37,13.89,13.89h0Z"/><path class="cls-1" d="M741.08,1503.16l-34.8.99c3-1.33,5.89-2.82,8.5-4.63,9.98-6.92,14.35-20.7,5.3-30.46-6.46-6.96-15.62-7.83-24.49-9.14-9.53-1.41-19.08-2.67-28.66-3.73-19.25-2.14-38.58-3.44-57.94-3.99-7.51-.21-13.89,6.54-13.89,13.89s6.36,13.68,13.89,13.89c15.49.44,30.96,1.35,46.38,2.8,7.88.74,15.88,1.46,23.83,2.44-2.49,1.05-4.98,2.09-7.47,3.14-14.62,6.13-29.24,12.27-43.86,18.4-6.38,2.68-11.07,7.82-9.95,15.24.99,6.6,6.61,12.24,13.64,12.04,29.16-.83,58.32-1.65,87.49-2.48-7.57,14.09-31.41,42.78-33.66,46.16-2.44,2.55-4.94,5.05-7.49,7.47-1.94,1.84-3.14,4.19-3.67,6.7-10.81,11.7-24.02,21.21-38.55,27.5-30.73,12.57-63.78,12.28-96.32,14.55-52.41,6.12-103.53-15.14-148.99-39.22-29.48-13.49-54.35-34.04-78.19-55.67-19.27-15.52-36.19-33.48-51.91-52.54-23.58-27.8-44.94-57.48-63.74-88.7-7.83-14.43-13.49-29.86-19.96-44.93-7.38-17.99-17.08-35.13-22.06-54.04-5.65-24.68-7.34-50.05-10.66-75.11-2.83-18.56-1.85-37.14,1.26-55.59,2.65-37.67,9.19-57.42,32.11-87.85,9.53-12.3,15.57-28.34,29.9-35.97,8.97-4.95,18.64-8.34,28.04-12.31,8.11-3.58,15.77-8.88,24.79-9.73,31.35,1.92,65.08-5.15,94.68,7.79,19.67,26.02,46.47-14.56,11.93-28.09-25.75-12.19-54.93-10.33-82.66-9.68-20.02-2.61-40.28-.22-57.81,10.28-18.73,8.47-39.82,14.4-53.42,30.87-14.65,20.13-29.01,40.63-41.27,62.34-11.16,18.73-13.53,40.59-15.67,61.85-5.11,27.64-5.08,55.51-.45,83.23,2.95,23.34,4.53,47.09,10.85,69.84,12.36,33.96,27.54,67.13,42.67,99.94,15.07,25.52,31.83,50.1,50.14,73.4,23.66,30.4,49.22,59.29,79.38,83.41,27.43,26.4,59.62,46.21,93.76,62.66,36.12,17.38,74,31.52,114.23,35.04,28.28,1.85,56.64-3.42,84.98-3.73,2.03-.28,4.07-.57,6.11-.89,33.45-5.18,67.36-15.79,91.46-40.61,5.85-6.19,12.14-12.18,17.64-18.74-1.24-.44,35.91-51.03,47.95-80.46,3.43-8.38-5.19-17.82-13.39-17.58Z"/></g><g id="Image_8"><path class="cls-1" d="M2437.09,620.31c-4.23-19.66-11.01-38.71-16.82-57.94-6.88-19.01-10.36-39.39-21.09-56.81-4.3-7.21-8.99-14.2-13.12-21.51-2.17-6.52-4.6-12.92-8.59-18.66-.05-.11-.11-.21-.16-.32-2.33-6.49-4.27-13.13-6.85-19.53-3.99-10.3-10.42-19.2-17.15-27.85-11.58-21.96-24.34-43.2-41.14-61.78-35.95-34.01-74.07-66.38-116.3-92.43-3.3-1.81-6.64-3.54-9.99-5.23-3.18-2.03-6.38-4.01-9.58-5.94-2.46-.7-4.91-1.43-7.36-2.16-27-12.2-55.06-22.15-81.96-34.52-12.21-4.22-25.26-5.12-37.37-9.84-11.57-4.04-24.16-2.6-35.51-7.5-17.49-3.83-35.75-5.46-53.92-5.53-8.2-6.42-31.99,2.36-39.14-1.23-6.28-.29-12.6-.18-18.95.22-5.71-.62-11.42-1.17-17.11-1.71-12.99-.95-26-1.42-39.02-1.62-.32-.01-.63-.03-.95-.04-83.32-4.78-169.11-.92-248.18,27.81-22.52,7.64-45.15,15.28-66.31,26.25-30.91,17.41-59.69,38.45-84.96,63.41-23.84,22.39-45.33,47.64-62.15,75.77-5.89,12.19-19.8,23.74-12.28,38.36,2.05,4.39,5.44,6.99,9.2,8.07,2.98,3.76,7.52,6.75,12.49,8.51,1.14.37,2.28.66,3.44.91,9.22,10.02,32.3,3.25,45.22,4.26,23.54-.7,46.68-1.52,70.68,1.63,58.1,6.5,116.68,6.2,175.07,5.43,2.6-.17,5.21-.34,7.81-.5,10.6.68,21.19,1.51,31.79,2.22,9.41.64,18.85.86,28.29,1.09,12.33.25,24.66.43,36.99.77,12.09.34,24.16,1.02,36.24,1.7,2.34.13,4.69.25,7.04.34.25-.05.51-.09.76-.14,7.8.39,15.55.25,21.26,1.11,5.01.42,8.89-1.09,11.63-3.62,6.92.64,13.84,1.22,20.77,1.69,19.26,2.45,38.81,1.02,58,4.38,18.58,2.82,36.53,8.02,54.51,13.18.38.13.77.26,1.15.39,3.4,1.17,6.66,2.79,9.91,4.32,1.98.86,3.97,1.69,6,2.49,2.36.93,4.67,2.04,6.89,3.28,1.57.88,3.1,1.84,4.63,2.78,3.72,2.3,7.37,4.72,10.95,7.23,3.52,2.47,7,5.01,10.41,7.62.58.45,1.16.91,1.72,1.37,2.6.83,5.2,1.68,7.75,2.64-.07,4.7,1.88,9.37,6.31,12.2,4.42,3.23,9.12,6.01,13.79,8.83,1.61,2.56,3.24,5.08,5.03,7.4,2.76,3.95,5.46,7.92,8.15,11.9.54.78,1.07,1.56,1.6,2.35,1.25,1.84,2.48,3.67,3.67,5.55,9.22,13.87,18.31,27.79,28.27,41.16.11.18.22.36.33.53.21,4.02.19,8.09-.12,12.2-.35,8.46,2.14,16.56,4.05,24.6-1.07,12.74-3.06,25.98-9.38,37.26-10.37,14.29-25.29,24.76-41.59,31.63-15.82,2.54-31.82,3.88-47.75,5.67-20.32,4.21-40.82,5.9-61.57,5.9-10.35-.57-20.6.43-30.79,2.02-.04-.02-.07-.03-.11-.05-.34.07-.67.15-1.01.22-8.41,1.34-16.77,3.06-25.12,4.6-27.67,5.79-55.83,10.29-82.57,19.61-23.35,5.38-45.08,15.32-67.08,24.64-25.4,8.13-48.51,21.16-71.29,34.76-16.01,7.29-31.65,15.18-46.72,24.27-20.32,9.88-40.64,19.77-57.85,34.7-18.74,13.41-39.63,24.02-56.67,39.83-13.32,11.75-27.27,22.83-40.04,35.19-14.67,15.01-27.13,32.11-40.64,48.16-10.57,12.96-21.67,25.58-30.58,39.78-6.47,9.76-10.26,21.06-17.25,30.5-15.04,16.2-18.39,38.43-26.96,58.05-14.89,25.15-30.44,50.65-36.36,79.71-1.5,6.12-3.81,12.21-4.18,18.36-1.19,4.92-2.37,9.84-3.59,14.75-1.96,7.88-3.48,15.91-4.64,23.96-1.04,10.61-2.23,21.17-3.7,31.73-1.05,9.04-1.57,18.09-1.73,27.19.08,1.99.18,3.97.3,5.95,0,0,0,0,0,0,0,.01,0,.02,0,.04.02.35.05.7.07,1.05.09,1.49.2,2.97.31,4.46.05.67.11,1.35.16,2.02.1,1.21.2,2.42.31,3.63.06.66.12,1.32.18,1.98.15,1.55.3,3.1.47,4.65.02.23.05.47.07.7.2,1.34.4,2.69.61,4.03.02.05.03.1.05.15.69,4.44,1.43,8.87,2.23,13.29,0,.02,0,.05-.01.07.25,1.41.51,2.81.77,4.22.02.12.04.24.07.36.43,2.3.84,4.61,1.25,6.91.59,3.33,1.16,6.66,1.68,10,.09.6.19,1.2.28,1.8.27,1.75.52,3.5.76,5.25.01.08.02.16.03.25.38,2.82.76,5.63,1.14,8.45,2.13,15.81,4.21,31.64,5.68,47.52.31,3.38.59,6.77.85,10.15,1.91,5.52,4.01,10.98,6.26,16.38,8.27,31.18,22.8,60.92,37.64,89.29,8.87,19.43,22.26,36.28,36.13,52.36,17.52,22.87,37.62,43.43,61.85,59.22,44.75,36.09,79.45,60.47,136.02,71.25,12.6,7.8,25,15.77,40.72,14.66,26.11,4.36,52.02,10.64,78.42,13.11,2.25.09,4.48.14,6.71.14,16.76,0,33.29-2.49,49.84-4.98,17.34-1.32,34.82-.52,52.09-2.44,17.35-1.25,32.82-8.49,48.72-14.69,6.92-1.73,14.05-2.73,20.59-5.72,6.16-3,12.74-4.77,19.38-6.34,12.27-3.63,22.51-11.68,33.91-17.25,19.73-12.97,37.17-29.45,59.37-38.62,20.82-6.29,37.6-19.93,55.15-32.24,13.6-9.48,27.08-20.03,39.65-30.34,1.04-.23,1.99-.72,2.79-1.41.32,6.92,1.27,13.8,1.8,20.71.79,26.87-1.64,53.91-4.56,80.61-1.73,9.27-3.77,18.95-8.64,27.1-2.92,6.71,6.18,13.6,12.45,12.36,6.98-4.37,8.04-4.4,16.56-3.05,7.7.91,12.62,8.65,20.73,8.45,12.29-1.09,23.43-7.88,35.71-9.52,13.07-1.86,26.09.05,39.12,1.97,10.18,1.5,20.37,3,30.58,2.7,21.46,1.94,42.56-1.5,63.89-2.82,9.08-.12,18.16-.11,27.25-.09,11.73.02,23.46.04,35.19-.24,19.05,2.91,14.99-16.32,17.37-28.68,6.14-30.02,6.32-60.45,4.68-90.9,4.07-70.66,8.43-141.31,11.92-212.03,1.57-105.22,2.23-210.51,8.55-315.6,5.83-66.41,2.81-133.17,4.31-199.77-.55-24.6,1.92-49.06,4.5-73.48.29-47.33,3.12-95.16-2.9-142.2-2.77-18.92-5.12-37.88-7.58-56.82ZM1369.23,1471.77c-1.63-3.47-3.2-6.94-4.71-10.4,1.72,3.4,3.31,6.86,4.71,10.4ZM1452.63,1614.97c1.87,1.52,3.75,3.03,5.65,4.52.95,1.15,1.85,2.34,2.65,3.6-2.87-2.61-5.63-5.32-8.3-8.12ZM1961.6,1451.9c-15.98,3.84-32.76,2.84-49.08,4.42-12.77,1.66-25.35,3.89-38.29,2.48-24.21.65-48-4.28-72-5.87-5.26-1.52-10.44-3.41-15.54-5.77-4.57-1.9-9.54-2.58-14.13-4.4-3.91-2.54-7.47-5.65-11.88-7.36-8.7-2.8-17.3-5.08-24.29-11.44-3.94-2.83-8.17-5.35-11.8-8.59-2.2-3.31-4.93-6.17-8.78-7.53-3.61-1.45-7.39-1.27-10.75.07-10.93-12.82-20.72-26.62-30.8-40.14-11.88-15.75-16.6-35.08-21.59-53.81-12.14-32.83-13.26-68.92-5.07-102.88,6.82-25.63,20.66-48.48,37.05-69.11,14.73-19.23,28.96-38.89,45.65-56.49,38.61-47.52,127.49-86.67,203.55-106.94,26.64-5.42,53.52-9.7,80.54-12.47,9.96,8.95,27,1.53,39.45,3,21.74.11,43.33-1.31,64.87-4.22,12.69-.56,25.4-.29,38.09-.7,0,5.72-.58,14.21-1.08,23.36-.67.29-1.34.58-2.01.88-.46,1.54-1.06,3.06-1.79,4.54-2.05,4.17-5.34,7.62-8.8,10.67,3.48-2.6,7.08-5.06,10.88-7.25.07-.04.15-.09.22-.14-1.36,11.6-2.86,23.2-3.66,34.86-.45,21.14-1.41,42.26-3.02,63.36.64,50.14,1.51,100.18-1.39,150.26-.63,30.13-1.75,60.24-2.84,90.35-3.04,16.22-6.73,32.29-10.92,48.32-2.06,8.66-6.6,16.46-10.39,24.45-3.17,6.81-6.06,13.85-12.59,18.16-21.72,21-25.14,10.3-47.66,19.11-.65.52-1.19,1.06-1.65,1.61-1.1,0-2.21,0-3.31,0-31.68.57-64.05-.85-95.22,5.21Z"/><path class="cls-1" d="M2070.76,1050.43c-.01.46-.04.92-.07,1.38,3.29-1.82,6.56-3.67,9.83-5.52-3.22,1.46-6.48,2.84-9.76,4.14Z"/><path class="cls-2" d="M2039.01,1668.36c-9.62-2.54-9.95-8.37-7.16-14.67,1.92,1.79,4.46,2.88,7.14,2.88.6,0,1.2-.05,1.81-.17,4.06-.76,7.93-2.18,11.54-4.2,3.21-1.8,6.11-4.12,8.85-6.6-2.5,3.59-5.03,7.18-7.48,10.82-3.38,4.97-6.75,12.02-13.46,12.02-.4,0-.81-.02-1.24-.08Z"/><path class="cls-2" d="M2051.77,1649.13c.18-.12.35-.23.53-.36-.27.18-.54.36-.8.55.09-.06.18-.12.27-.19Z"/><path class="cls-2" d="M2088.84,1602.44c.15-4.04.37-8.02.84-12.03.63-3.82,1.36-7.61,1.93-11.44-.01.09-.02.17-.04.25,0,.04-.01.07-.02.1v.02c.04-.26.08-.52.12-.79.03-.22.07-.44.1-.66l-.05.3c.04-.29.09-.58.13-.86.06-.42.12-.84.19-1.26.03-.19.05-.38.08-.57-.02.12-.04.24-.06.36.27-1.84.51-3.69.77-5.53.55-3.15,1.21-6.26,1.89-9.38,0,0,0-.02,0-.02.31.42.68.79,1.11,1.06,1.97,1.28,4.35.54,6.39-.11,2.08-.65,4.17-1.24,6.26-1.86,2.8-.84,5.6-1.68,8.4-2.53-3.81,6.03-6.77,12.88-10.88,18.59-5.56,9.61-11.27,19.12-17.2,28.49l.02-2.14Z"/><path class="cls-2" d="M2091.57,1579.29s0,.03,0,.05c0-.02,0-.03,0-.05Z"/><path class="cls-2" d="M2092.07,1575.88c0,.05-.02.11-.02.16,0-.05.01-.11.02-.16Z"/><path class="cls-2" d="M2091.62,1578.85s0-.02,0-.02c0,.01,0,.03,0,.04v-.02Z"/><path class="cls-2" d="M2091.64,1578.81s0,.01,0,.02c0,0,0-.01,0-.02Z"/><path class="cls-2" d="M2091.64,1578.77s0,.03,0,.04c0-.02,0-.03,0-.04Z"/><path class="cls-2" d="M2091.66,1578.64s-.01.07-.02.1c0-.03.01-.06.02-.1Z"/><path class="cls-2" d="M2091.91,1576.93h0s0,.02,0,.03c0,.01,0,.02,0,.04v-.07Z"/><path class="cls-2" d="M2091.92,1576.9s0,.02,0,.02c0,0,0-.02,0-.02Z"/><path class="cls-2" d="M2091.92,1576.84s0,.03,0,.04c0-.01,0-.03,0-.04Z"/><path class="cls-2" d="M2091.93,1576.8s0,.01,0,.02c0,0,0-.01,0-.02Z"/><path class="cls-2" d="M2091.93,1576.79s0-.02,0-.03h0s0,.02,0,.04h0Z"/><path class="cls-2" d="M2091.94,1576.77h0s0,0,0,0h0Z"/><path class="cls-2" d="M2091.94,1576.76h0s0,0,0,0t0,.01h0Z"/><path class="cls-2" d="M2091.94,1576.74s0-.03,0-.04c0,.01,0,.03,0,.04h0Z"/><path class="cls-2" d="M2091.96,1576.58h0s-.01.08-.02.12c0-.04.01-.08.02-.12Z"/><path class="cls-2" d="M2091.96,1576.59c0,.05-.02.1-.02.14,0-.05.01-.09.02-.14Z"/><path class="cls-2" d="M2092.02,1576.22c-.02.12-.04.24-.05.37,0,0,0,0,0,.01.02-.12.04-.25.06-.38Z"/><path class="cls-2" d="M2101.8,1558.84s0,.01,0,.02c-.04.05-.08.11-.12.17.04-.06.09-.12.13-.18Z"/><path class="cls-2" d="M2102.18,1558.39s0,0,0,0h0s0,0,0,0h0Z"/><path class="cls-2" d="M2102.97,1542.11c.22.28.47.53.75.74-.52.14-1.04.28-1.56.42.27-.39.54-.78.81-1.16Z"/><path class="cls-2" d="M2024.35,1688.01c-15.72-6.67-9.81-33.75,4.68-38.1.06-.01.11-.02.17-.03,1.62,3.94,5.53,6.69,9.79,6.69.6,0,1.2-.05,1.81-.16,2.99-.56,5.87-1.47,8.62-2.72.14.12.29.25.42.39,12.63,13.18-1.75,35.63-17.97,35.64-2.49,0-5.02-.53-7.51-1.7Z"/><path class="cls-2" d="M2100.52,1541.53c.54-.84,1.08-1.68,1.62-2.53-.11.84.05,1.74.42,2.46.28.54.68,1.01,1.16,1.38-1.66.43-3.31.9-4.95,1.42.59-.91,1.17-1.82,1.75-2.73Z"/><path class="cls-2" d="M2090.54,1524.66h0s0,0,0,0h0Z"/><path class="cls-2" d="M2109.48,1733.99c-2.57-8.59,5.64-15.45,13.52-16.2,2.84-.34,5.59.28,8.33.89,2.73.61,5.46,1.22,8.29.9,2.36.06,4.69-.74,6.99-1.54,4.19-1.45,8.28-2.9,12.22.84,6.68,6.73,5.02,17.61,6.94,26.27,12.15,29.46-22.01,27.3-41,30.37-13.62-2.45-11.78-30.61-15.28-41.54Z"/><path class="cls-2" d="M2131.67,1557.75c3.95.05,7.91-.02,11.85-.32-.15.73-.3,1.46-.45,2.2-1.36.27-2.87.49-4.52.66-2.53-.15-4.75-1.26-6.88-2.54Z"/><path class="cls-2" d="M2100.52,1541.53c.54-.84,1.08-1.68,1.62-2.53-.11.84.05,1.74.42,2.46.28.54.68,1.01,1.16,1.38-1.66.43-3.31.9-4.95,1.42.59-.91,1.17-1.82,1.75-2.73Z"/><path class="cls-2" d="M2090.54,1524.65h0s0,0,0,0h0Z"/><path class="cls-2" d="M2389.69,1778.81c-16.28-4.26-17.23-46.54-14.25-60.34.52-2.53,3.6-3.72,4.24-5.68,5.79-21.92,35.2-11.12,50.14-5.94,27.29-4.46,14.73,40.54,18.08,56.05-2.35,12.57-17.93,9.61-27.32,11.96-7.02,1.05-14.14,1.19-21.2,1.79-2.86.76-5.41,2.28-8.34,2.28-.45,0-.9-.04-1.36-.11Z"/><path class="cls-2" d="M1865.66,487.26c-13.11-.55-34.89-11.39-36.23-25.88.87-20.57,2.42-41.91,26.26-47.67,12.22-1.84,26.11-3.58,36.75,4.02,8.52,2.44,16.4,9.17,16.78,18.58-.48,23.21-18.03,50.95-43.36,50.95h-.2Z"/><path class="cls-2" d="M1892.66,454.44c-5.55-6.25-1.48-17.31,7.23-17.25,9.52-.06,19.09.03,28.68.12,31.9.31,64,.62,95.37-4.7,11.52-.77,23.18-1.75,34.76-2.03-1.55,2.9-2.94,5.88-4.19,8.9-1.1,2.66-2.16,5.33-3.08,8.06-.53,1.56-1.11,3.12-1.64,4.68-8.38.15-16.85.05-24.98,1.54-30.9,6.06-62.67,3.33-93.96,4.62-3.95-.54-8.67-.24-13.51.06-2.9.18-5.84.36-8.7.36-6.22,0-12.01-.84-15.98-4.38Z"/><path class="cls-2" d="M1723.52,480.58c2.79-5.98,5.86-11.84,8.49-17.89.55-1.27.93-2.57,1.12-3.88,26.71-5.19,53.63-9.29,80.55-13.12,5.14-.23,10.12-1.88,15.19-2.21,14.69,2.53,12.14,23.38-2.92,22.88-34.93,4.01-69.45,10.83-103.92,17.44.49-1.07.99-2.14,1.49-3.21Z"/><path class="cls-2" d="M1861.79,226.59l.1-.3.68-2.14.64-2.16.59-2.18.55-2.21.5-2.23.45-2.27.41-2.33.38-2.39.36-2.47.34-2.59.34-2.7.33-2.8.32-2.9.32-3,.32-3.07.31-3.11.29-3.13.25-3.14.2-3.11.13-3.04.05-2.92-.04-2.77-.12-2.6c13-3.54,27.5-1.03,35.39,10.94,14.9,23.52-17.26,50.65-42.75,50.65-.11,0-.21,0-.32,0Z"/><path class="cls-2" d="M1897.68,180.81c34.45-5.19,69.26-5.37,103.95-7.88,70.43-1.88,140.82-3.04,211.07-8.77,9.55-2.64,16.48,4.43,17.74,11.5,1.11,6.26-2.24,12.52-12.18,12.04-106.73,9.01-214.27,4.85-320.74,16.78-12.52-1.96-14.57-24.2.16-23.67Z"/><path class="cls-2" d="M2202.78,187.72c-3.31-4.29-2.93-9.68-3.19-14.61-2.26-4.25-1.8-9.91,1.42-13.54,10.69-10.54,33.95-18.71,43.1-2.53,18.68,13.68-6.6,38.53-26.32,38.53-5.98,0-11.44-2.28-15.02-7.85Z"/><path class="cls-2" d="M2435.42,747.99c-25.14-3.35-47.41-21.12-39.17-48.62,2.5-23.79,21.68-33.11,43.62-32.86,12.65.04,28.63,6.2,32.02,19.6,1.1,7.36-.94,14.83-1.91,22.11-.86,4.49-2.28,8.89-4.34,12.99.32,3.52.56,7.76-2.61,10.54-7.9,6.66-16.09,16.25-27.17,16.25-.14,0-.29,0-.44,0Z"/><path class="cls-2" d="M2433.1,693.96c-19.06-3.22-4.82-48.46-5.68-62.54-.29-11.62,1.5-23.25.33-34.84-1.12-6.04-2.02-12.12-1.96-18.28-1.05-26.51.66-52.91,1.4-79.38,2.55-21.23-1.98-42.49,1-63.57,1.25-13.41-1.55-27.84,2.06-40.8,4.1-7.48,16.2-6.08,18.29,2.28.76,11.55-.5,23.32-.23,34.95.07,8.63-2.71,17.08-.93,25.68,2.86,44.99-5.95,90.39-.02,135.21,2.25,23.97-.86,48.23-3.35,72.1-.52,4.79-.86,9.61-.61,14.42,2.96,6.66-1.61,14.86-8.92,14.86-.46,0-.92-.03-1.39-.1Z"/><path class="cls-2" d="M2442.15,417.87c-27.39-2.02-30.16-42.1-3.63-44.98,12.4-.26,24.36,11.07,23.33,23.7-.68,9.89-7.5,21.35-18.28,21.35-.46,0-.94-.02-1.42-.07Z"/><path class="cls-2" d="M2050.06,1674.1c-8-.46-17.54-8.7-12.95-17.09.12-.19.25-.38.38-.55.49.07.99.11,1.49.11.6,0,1.2-.05,1.81-.17,4.06-.76,7.93-2.18,11.54-4.2,5-2.81,9.21-6.85,13.32-10.8,3.02-2.91,6.01-5.82,9.12-8.63,1.86-1.64,3.73-3.26,5.64-4.84,2.75-2.29,6.11-4.48,7.82-7.68.49-.93.86-1.89,1.09-2.88,3.39-2.64,6.48-5.67,9.19-9.06,4.75-5.24,8.8-12.11,15.55-14.83,11.81-4.25,27.45,11.91,13.79,20.38-6.77,6.42-11.8,14.65-19.46,20.26-6.68,4.78-13.93,8.59-19.72,14.55-7.65,6.75-15.86,12.84-24.6,18.09-2.23,5-8.07,7.36-13.45,7.36-.19,0-.38,0-.57-.01Z"/><path class="cls-2" d="M2051.77,1649.13c.1-.07.2-.13.29-.2l-.66.45c.12-.09.25-.17.36-.25Z"/><path class="cls-2" d="M2136.54,1630.57c-8.64-.17-17.37-.12-25.92-1.5-8.55,2.17-19.53-3.34-21.14-12.42.3-1.79.18-3.61-.36-5.32-.11-1.93-.21-3.86-.3-5.79,0-1.03.02-2.06.03-3.09.15-4.04.38-8.02.84-12.03.6-3.59,1.28-7.16,1.84-10.76.02-.13.04-.26.05-.38,0-.01,0-.02,0-.04,0,.04-.01.08-.02.12.01-.07.02-.15.03-.22,0-.03,0-.06.01-.09,0-.02,0-.04.01-.06h0,0s0,0,0,0c0,0,0-.02,0-.03v.02s0-.02,0-.03h0c.02-.09.03-.2.04-.3-.01.07-.02.14-.03.21.02-.1.03-.2.04-.3.02-.15.05-.3.07-.45,0,0,0,0,0,.01,0-.02,0-.04,0-.05,0,.01,0,.02,0,.04,0-.03,0-.06.01-.09,0-.04.01-.06.02-.09,0,.01,0,.02,0,.04.05-.34.1-.68.15-1.01.33-2.2.62-4.4.92-6.6.23-1.31.48-2.62.74-3.92.96-.34,2.01-.52,3.13-.5,2.37-2.2,5.01-3.71,7.84-4.73,1.11-.33,2.21-.65,3.32-.98,7.7-1.77,16.32-.71,24.04-.23,3.62.21,7.49.71,11.16,1.76.37,1.36,1.44,2.51,2.8,2.94.41.13.82.19,1.22.19.78,0,1.52-.23,2.18-.63,3.54,1.94,6.5,4.71,8.31,8.62,4.21,12.22,2.46,25.81,2.14,38.54.84,16.57-8.71,19.14-23.11,19.14h-.07Z"/><path class="cls-2" d="M2091.56,1579.31s0,.05-.01.08c0-.03,0-.05.01-.08Z"/><path class="cls-2" d="M2091.59,1579.09s0,.03,0,.04c0,.04-.01.07-.02.11h0s0,.02,0,.04,0,.03,0,.04c.01-.07.02-.15.03-.22Z"/><path class="cls-2" d="M2091.59,1579.07s0-.01,0-.02c0,0,0,.01,0,.02,0,0,0,.01,0,.02,0,0,0-.02,0-.02Z"/><path class="cls-2" d="M2091.6,1579.02s0,.01,0,.02c0,0,0-.01,0-.02Z"/><path class="cls-2" d="M2091.6,1578.98v.02s0,.01,0,.02c0-.01,0-.02,0-.04Z"/><path class="cls-2" d="M2091.6,1579.01s0,0,0,0c0,0,0,0,0,0Z"/><path class="cls-2" d="M2091.74,1578.12s0,.05-.01.09c0-.03,0-.06.01-.09Z"/><path class="cls-2" d="M2091.75,1578.03s0,.02,0,.04c0-.01,0-.02,0-.04Z"/><path class="cls-2" d="M2091.75,1578.02s0,.01,0,.02c0,0,0-.01,0-.02Z"/><path class="cls-2" d="M2091.76,1577.97s0,.03,0,.04c0-.02,0-.03,0-.04Z"/><path class="cls-2" d="M2091.63,1578.85s0,.04,0,.06c0,.01,0,.02,0,.03,0-.03,0-.06.02-.09Z"/><path class="cls-2" d="M2091.61,1578.92s0,.01,0,.02c0,0,0-.01,0-.02Z"/><path class="cls-2" d="M2091.62,1578.92s0,0,0,0c0,0,0,.02,0,.02v-.02Z"/><path class="cls-2" d="M2091.63,1578.82s0,.05,0,.07c0-.03,0-.05,0-.07Z"/><path class="cls-2" d="M2032.76,1694.26c-23.14-1.24-23.32-27.34-10.02-40.95.12-9.48,11.48-10.34,18.57-8.51,8,1.19,13.46,8.18,14.02,16.05.84,8.44,1.17,18.15-4.77,24.93-4.44,4.28-10.02,8.55-16.41,8.55-.45,0-.91-.02-1.38-.07Z"/><path class="cls-2" d="M2043.44,1683.82c-8.31-1.07-14.11-12.07-6.6-17.91,6.11-7.11,12.21-14.19,19.92-19.64,7.3-5.7,13.71-12.38,20.77-18.37,7.62-5.48,14.31-11.98,20.96-18.57,18.79-21.31,37.89,1.68,22.77,10.29-6.41,3.82-10.96,10.17-16.6,15-12.22,9.3-22.9,20.38-35.02,29.77-8.86,5.21-13.18,19.57-24.24,19.57-.63,0-1.28-.04-1.96-.14Z"/><path class="cls-2" d="M2090.72,1631.81c-14.07-3.27-7.64-23-6.31-33.09,1.54-7.25.83-14.87,3.19-21.95,1.14-3.02.57-6.34,1.57-9.44,1.57-10.9,13.04-11.93,21.98-11.67,2.7.22,5.42.17,8.13.12,4.36-.08,8.7-.16,12.96.89,6.84,1.2,14.07-.14,20.65,2.5,7,2.52,7.95,10.51,6.04,16.79-.8,5.88-1.95,11.71-2.36,17.63-.27,6.65.81,15.82-6.81,18.73-9.19,3.14-15.4-5.04-13.34-13.72-.04-7.09.98-14.1,2.07-21.09.05-.37.14-.3-.24-.35-3.18.1-6.36-.2-9.49-.8-4.17-.74-8.44-.67-12.71-.6-2.48.04-4.96.08-7.42-.04-.32-.13-.47-.07-.47.16-.06,3.07-1.23,5.92-2.08,8.82-.39,9.73-2.46,19.27-3.84,28.88-.88,4.53,1.24,9.45-1.42,13.56-1.79,3.05-5.22,4.76-8.67,4.76-.47,0-.95-.03-1.41-.1Z"/><path class="cls-2" d="M2126.91,1777.01c-3-.13-5.8-.96-8.53-2.19-8.36.94-15.89-5.91-15.46-14.36-.48-10.21-.07-20.43-.28-30.64-.42-6.23,2-13.7,8.11-16.3,4.79-1.84,10-.91,14.96-1.83,2.62-.41,5.33-.32,8.02-.23,3.19.1,6.35.2,9.3-.51,8.59-2.68,19.39-2.76,24.2,6.27,2.29,3.46,2.32,7.75,2.35,11.76.13,8.89,1.66,17.67,2.16,26.52.64,8.58-6.3,18.19-15.5,17.6-8.61,2.73-17.44,3.96-26.45,3.96-.96,0-1.92-.01-2.89-.04ZM2127.39,1733.39c-.34.37-.71.68-1.13.94.35,7.16-.48,15.16.35,22.03,7.46.51,14.45-1.38,21.55-3.35-.49-6.54-1.52-13.03-1.76-19.6-.06-.89.18-.84-.97-.86-3.18,0-6.19-.9-9.4-.52-.51.04-1.22.02-2.02,0-.41,0-.84-.02-1.28-.02-2.24,0-4.68.17-5.33,1.38Z"/><path class="cls-2" d="M1830.14,1495.25c-11.96-9.31-23.12-26.5-17.85-42.07,3.41-27.4,27.25-42.88,53.17-31.35,18.88,9.1,16.79,44.58,7.12,59.85-7.08,8.84-19.37,16.11-31.19,16.11-3.87,0-7.69-.78-11.26-2.54Z"/><path class="cls-2" d="M1744.3,1469.72c-2.33-8.9,6.53-14.7,14.58-12.8,9.2,0,18.38,0,27.57,0,6.01.54,12.25.05,18.48-.44,8.92-.7,17.83-1.39,26.05.92,9.32,5.57,4.74,21.23-6.48,19.51-12.52.33-25.02,1.24-37.55,1.05-9.15,0-18.3,0-27.45,0-.81.09-1.64.14-2.47.14-5.65,0-11.4-2.21-12.72-8.38Z"/><path class="cls-2" d="M1735.37,1484.64c-24.02-11.96,11.64-58.59,21.89-28.69,19.77,9.39,8.6,32.58-9.22,32.59-3.98,0-8.29-1.16-12.67-3.89Z"/><path class="cls-2" d="M1887.51,1468.34c-8.61-1.26-22.57,1.92-24.43-9.79-.75-5.42,3.03-10.72,8.52-11.45,25.36,1.52,50.91,2.16,76.07-2.3,5.38.01,10.78-.3,16.15-.64-.05.2-.1.4-.14.6-.93,4.02-1.63,8.12-2.22,12.21-.38,2.6-.75,5.22-1.03,7.84-3.85-.01-7.69-.01-11.41.38-14.87,2.45-29.96,3.65-45.05,3.65-5.49,0-10.98-.16-16.46-.48Z"/><path class="cls-2" d="M1981.52,1467.46c-3.21.03-6.38-.31-9.53-.64-3.11-.33-6.21-.66-9.33-.64-10.24-1.31-15.47-17.4-4.08-21.21,3.57-1.16,7.03-.18,10.52.81,2.42.69,4.86,1.38,7.36,1.34,1.79-.02,3.57.12,5.34.28,3.2.27,6.38.54,9.56-.2,14.18.45,27.23-5,41.29-5.31,10.65-1.79,21.38-1.66,32.14-1.94,5.74-.17,11.92-3.02,17.23.29,5.25,2.84,7.35,10.38,3.18,15.02-7.78,5.4-17.42,5.23-27.07,5.07-6.34-.11-12.68-.22-18.5,1.25-8.55.65-16.93,1.27-25.1,4.11-8.6.87-17.35,2.07-26.02,2.07-2.34,0-4.68-.09-7-.29Z"/><path class="cls-2" d="M2084.71,1471.82c-9.95-.3-19.81-8.46-19.41-18.9-14.47-18.16,23.6-39.66,35.88-17.44,5.24,12.76.97,36.34-15.99,36.34-.16,0-.32,0-.48,0Z"/><path class="cls-2" d="M1728.27,489.49c-24.06,1.63-23.28-36.66-1.99-39.84,13.82-8.77,39.5,16.72,19.55,24.66-1.46,7.68-7.24,15.36-15.38,15.36-.71,0-1.44-.06-2.18-.18Z"/><path class="cls-2" d="M1748.45,1790.29c-9.52-1.41-20.18-5.96-24.2-15.53-1.9-3.43-.76-7.62-2.65-10.93-5.78-14.05,2.54-42.84,15.93-50.56,8.07-4.23,17.66-1.47,24.14,4.37,7,.49,14.81,2.66,18.61,9.56,14.25,19.83.07,63.71-26.33,63.71-1.79,0-3.62-.2-5.52-.62Z"/><path class="cls-2" d="M1766.88,1760.03c-5.79-11.46,6.86-24.52,16.54-13.71.06.04,1.55-.2,1.99-.25,29.27-2.52,58.82-1.61,87.88-6.7,24.41-2.1,49.13-5.87,73.46-6.67,8.89,2.74,8.96,16.3,0,18.98-7.09,1.41-14.42,1.66-21.59,2.66-40.94,3.31-81.55,10.43-122.7,10.4-3.82-.5-8.32.34-12.86,1.17-3.59.66-7.22,1.32-10.55,1.32-5.16,0-9.61-1.59-12.18-7.21Z"/><path class="cls-2" d="M1949.48,1755.95c-23.1.98-23.44-30.02-1.37-33.01,12.08-1.94,18.38,7.23,18.43,16.39.04,8.33-5.07,16.66-15.69,16.66-.45,0-.91-.02-1.38-.05Z"/><path class="cls-2" d="M1719.75,1761.16c-42.07-1.35-84.15-1.43-126.19-3.67-10.7.53-21.28-1.18-31.96-1.38-6.61-.68-14.3.46-20.19-2.97-7.07-5.03-3.99-17.07,4.7-17.93,12.05.59,24.17,1.24,36.22,2.23,45.8,1.05,91.87,3.2,137.55,3.45,9.62-2.58,14.48,3.68,14.26,9.95-.19,5.27-3.99,10.54-11.58,10.54-.88,0-1.82-.07-2.8-.22Z"/><path class="cls-2" d="M1537.55,1769.67c-34.3-2.23-14.09-51.52,12.39-36.08,11.46,11.03,6.13,36.09-11.59,36.1-.27,0-.54,0-.81-.02Z"/><path class="cls-2" d="M1606.06,428.16c-5.41-1.15-7.45-4.68-8.08-8.98,5.84-.64,11.67-1.5,17.39-2.81.41-.09.81-.19,1.21-.29.45.07.91.14,1.36.21-.68,6.21-2.94,12.02-9.8,12.02-.65,0-1.34-.05-2.08-.16Z"/><path class="cls-2" d="M1612.42,480.37c-6.13-.13-12.14-.79-18.1-2.19-9.77.67-23.75.95-27.19-10.5-1.11-4.6-1.68-9.87.05-14.34-.14-6.03-.04-11.99-.07-18.01-.8-23.12,14.7-22.52,32.67-23.46,3.53.31,7.12.22,10.63.14,11.8-.29,22.65-.58,27.11,14.28,2.79,9.6.45,20.93-.72,30.45-.78,15.82-6.4,23.69-21.95,23.69-.78,0-1.59-.02-2.42-.06ZM1622.09,452.1c.3.03.6.06.91.1-.23-.04-.45-.07-.67-.11-.08,0-.15,0-.23,0Z"/><path class="cls-2" d="M1340.01,429.81c2.26-10.21-2.18-25.82,8.64-31.76,3.77-13.29,19.07-5.8,28.57-5.2,4.31,1.7,8.99.81,13.5-.08,6.04-1.19,11.78-2.38,15.94,2.67,3.12,3.6,1.57,8.01.93,12-.52,14.25,2.67,44.37-17.21,45.45-14.27-5.98-52.98-.14-50.37-23.08Z"/><path class="cls-2" d="M1373.93,422.56c-13.75-1.73-9.46-11.25-8.64-17.31,2.34-13.05,1.54-26.19,3-39.27,3.24-16.59,1.07-33.25,1.39-49.91-.34-23.06,1.77-46.13,4.4-69.12,1.27-4.12,1.69-8.33,1.81-12.57.8,1.42,2.1,2.73,3.97,3.84,2.62,1.56,5.77,2.35,9.3,2.77-.24-.03-.48-.05-.72-.08,2.03.28,3.99.46,6,.46,1,0,2.01-.05,3.05-.15.46-.04.92-.1,1.37-.17-.72,5.95-1.54,11.89-2.25,17.83-1.21,20.81-3.95,41.55-2.99,62.39.44,16.89.87,33.72-1.9,50.55-.67,12.25-.61,24.5-2.93,36.7-.33,5.65-.64,14.13-12.44,14.14-.76,0-1.56-.04-2.42-.11Z"/><path class="cls-2" d="M1376.94,224.72c38.25-3.33,45.54,41.75,10.16,43.1-20.66-.39-36.17-39.37-10.16-43.1Z"/><path class="cls-2" d="M1841.55,214.51c-10.25-16.81-5-37.75,12.74-43.52,4.38-3,9.64-5.07,15.19-6.02l.12,2.61.04,2.77-.05,2.91-.13,3.03-.2,3.09-.25,3.12-.29,3.11-.31,3.08-.32,3.04-.32,2.96-.32,2.87-.33,2.77-.34,2.66-.34,2.56-.36,2.44-.38,2.35-.41,2.29-.45,2.23-.5,2.19-.55,2.15-.59,2.12-.64,2.1-.68,2.07-.1.29c-7.98-.88-15.28-4.38-20.24-11.27Z"/><path class="cls-2" d="M1595.25,212.74c.29-.64.58-1.27.87-1.91.05-.11.11-.23.16-.34.91-1.9,1.82-3.8,2.74-5.71,1.73-3.61,3.42-7.23,5.13-10.84.2-.41.4-.82.61-1.23,8.28,0,16.53-.28,24.74-1.11,42.27-3.34,84.55-6.59,127.3-6.64,22.28-1.59,44.63-3.48,67.3-1.25,16.78-8.98,25.36,17.98,6.61,19.96-22.43-.93-44.86-1.14-66.98,1.08-23.54.96-47.15.64-70.56,2.51-31.61,1.96-63.05,5.5-94.87,5.5-1.02,0-2.03,0-3.05-.01Z"/><path class="cls-2" d="M1603.99,227.9c-7.73-1.53-15.07-8.61-14.57-16.75-1.82-9.27-2.11-19.9,5.77-25.83,10.2-7.95,24.93,3.14,31.93,12.54,8.88,13.82-9.34,30.07-22.19,30.07-.31,0-.62-.01-.93-.03Z"/><path class="cls-2" d="M1621.48,1286.06c-21.3-11.23-23.9-38.29-16.71-59.05,7.53-20.25,22.61-30.6,44.01-23.22,26.34,4.89,37.21,38.77,25.36,60.97-9.82,15.21-22.05,23.41-40.39,18.66-1.88,2.4-4.85,3.66-7.83,3.66-1.53,0-3.06-.33-4.45-1.01Z"/><path class="cls-2" d="M1637.92,1346.29c-11.03-1.57-8.32-13.68-8.6-21.71-3.73-15.79-1.02-32.04-2.31-48.13,2.22-17.67,24.55-13.49,20.38,8.39.09,8.62-.29,17.24-.32,25.85,2.3,10.23,7.71,35.62-8.44,35.62-.23,0-.47,0-.71-.02Z"/><path class="cls-2" d="M1639.54,1369.87c-2.52,0-5.21-.64-8.02-2.06-21.23-10.54-7.64-37.37,11.97-38.81,25.45,1.5,15.97,40.87-3.93,40.87h-.02Z"/><path class="cls-2" d="M1628.32,1208.56c-4.04-18.84-2.8-38.37-2.75-57.52,1.7-17.92,24.43-11.31,20.56,5.25-.88,12.4-.2,25,.31,37.45,1.08,10.13,8.4,29.43-8.21,29.48-7.82-.64-9.88-8.04-9.91-14.65Z"/><path class="cls-2" d="M1617.11,1166.45c-4.91-7.98-.82-17.54,1.4-25.63-.1-5.33,4.09-9.71,8.36-12.3,7.42-6.28,17.33-1.57,21.95,5.72,14.49,17.46.51,40.29-15.91,40.29-5.3,0-10.86-2.38-15.8-8.07Z"/><path class="cls-2" d="M1747.55,789.51c-11.32-2.08-15.16-17.2-9.86-26.31,4.66-7.15,13.02-11.26,21.52-10.24,21.79,3.64,16.88,36.22-4.6,33.99-1.52,1.84-3.86,2.6-6.16,2.6-.3,0-.61-.01-.91-.04Z"/><path class="cls-2" d="M1504.02,819.14c2.54-3.77,7.3-3.73,11.34-4.33,21.24-6.82,43.45-8.96,64.98-14.6,47.95-12.8,96.61-23.04,144.17-37.3,16.74-7.93,26.4,1.52,27.89,10.96,1.21,7.67-2.97,15.34-13.11,13.71-74.12,19.18-149.61,39.37-224.96,54.41-9.76-1.3-15.56-14.7-10.3-22.87Z"/><path class="cls-2" d="M1499.14,857.3c-13.05-8.83-19.94-32.46-5.42-43.08,4.64-3.82,10.33-6.97,16.51-4.67,29.12,8.32,25.86,49.99.04,50-3.34,0-7.05-.7-11.12-2.25Z"/><path class="cls-2" d="M1735.02,802.1c-1.72-.54-3.42-1.23-4.98-2.14-.25-.15-.49-.3-.73-.45-10.96,10.07-21.9-7.89-21.72-18.12-.85-20.78,23.96-45.97,43.51-49.84,25.89-5.06,52.6,21.93,36.78,46.67-8.3,14.56-24.8,25.56-41.68,25.56-3.73,0-7.48-.54-11.17-1.69ZM1747.75,776.66c2.86.05,5.71-.71,8.22-2.05-1.22-.75-1.82-2.93-2.79-3.38-2.43,1.05-4.32,3.05-5.43,5.43Z"/><path class="cls-2" d="M2130.85,963.65c-13.4-14.47,20.67-40.65,41.09-22.97,23.45,18.89,7.33,60.21-22.79,58.97-.68.03-1.34.05-1.98.05-22.25,0-25.38-18.18-16.33-36.04Z"/><path class="cls-2" d="M2124.17,1005.59c.13-1.57.25-3.15.34-4.74.27-4.45.29-8.91.3-13.36,0-4.27-.14-8.54-.3-12.8-.11-2.91-.27-5.81-.44-8.72-.06-1.04-.12-2.08-.18-3.12.16-1.11.25-2.22.26-3.34.04-3.33-.7-6.31-1.74-9.45-1.28-3.87-3.93-7.29-7.05-9.98-.01-.55-.04-1.09-.07-1.64-.08-1.21-.42-2.36-.97-3.39,5.41-9.11,18.75-8.55,30.34-7.98,3.88.19,7.57.38,10.69.21,1.93.02,3.95-.27,5.96-.55,5.36-.75,10.72-1.5,14.72,3.38,2.5,2.64,3.25,6.43,3.08,9.96.86,9.99,3.06,19.75,3.04,29.87.41,3.74,3.67,6.48,4.07,10.47,1.22,6.45,3.95,15.25-2.43,19.81-12.86,6.43-27.53,6.3-41.91,6.17-4.58-.04-9.14-.08-13.6.09-1.5-.08-2.86-.39-4.11-.89ZM2152.04,979.79c4.83.2,7,.41,10.3-5.77-1.27-8.12-.32-16.45-2.64-24.43-.3-.64.15-2.03-.84-1.9-2.72.02-5.45-.1-8.18-.22-3.72-.16-7.44-.32-11.14-.14,5.37,4.49,4.62,14.06-2.03,16.89-.11.14,0,.86.01,1.05,1.87,11.56-3.46,14.54,10.96,14.45.26,0,.51,0,.76,0,1.03,0,1.95.04,2.79.07Z"/><path class="cls-2" d="M2150.29,1082.13c-11.74-1.26-9.87-13.62-8.47-22.12.55-8.82-.07-17.63-.88-26.42-.2-7.01-.07-14.04.02-21.05-.77-2.8-1.18-5.95.39-8.61,3.55-9.5,18.31-7.74,20.13,2.04.84,12.75-.61,25.62,1.2,38.35-1.16,11.04,4.54,37.81-11.92,37.81-.16,0-.32,0-.48,0Z"/><path class="cls-2" d="M2138.59,1162.16c-1.84-1.95-2.89-4.59-2.8-7.29.2-5.62,5.28-9.73,10.77-9.39,5.52.34,10.26,5.04,10.06,10.68-.09,2.65-1.31,5.17-3.3,6.91-2.14,1.86-4.7,2.47-7.47,2.48-2.79-.36-5.29-1.3-7.26-3.39Z"/><path class="cls-2" d="M2141.25,1209c-.94-.79-2.01-1.36-3.14-1.69-.82-1.79-1.96-3.46-3.44-4.75.58-14.75-.28-29.57,1.8-44.25,5.29-38.79,4.52-78.16,6.68-117.14,4.29-15.38,25.17-10.12,20.43,12.59-1.74,16.82-1,33.8-2.68,50.66-.28,11.55.67,23.17-1.46,34.59-2.17,19.08-4.45,38.1-4.04,57.34-.18.04-.36.08-.54.13-2.4.64-4.58,1.51-6.48,3.16-1.29,1.12-2.4,2.42-3.35,3.84-1,1.49-1.76,3.11-2.71,4.62-.25.39-.5.78-.74,1.18-.11-.1-.21-.19-.32-.28Z"/><path class="cls-2" d="M2124.83,987.49c0-4.27-.14-8.54-.3-12.8-.11-2.91-.27-5.81-.44-8.72-.06-1.04-.12-2.09-.18-3.13.16-1.11.25-2.22.26-3.34,0-.41,0-.81-.02-1.21,7.48-3.67,17.44,3.21,14.67,12.18-.82,3.05-3.04,5.76-6,6.94-2.49,2.38-4.19,5.66-6.08,8.57-.62,1.09-1.26,2.16-1.91,3.23,0-.57,0-1.14,0-1.71Z"/><path class="cls-2" d="M2137.05,1328.86c-12.11-1.5-12.29-12.93-11.32-22.58.88-15.99,2.45-31.95,3.72-47.93,1.75-30.82,3.78-61.71,5.68-92.5-2.75-14.5,19.23-14.59,22.25-2.5,1.86,22.32-3.1,44.96-3.43,67.39-.34,21.39-2.64,42.62-4.24,63.94-3.33,10.82,4.95,34.21-11.63,34.21-.34,0-.68-.01-1.03-.03Z"/><path class="cls-2" d="M2140.18,1344.34c-6.57-.7-14.01-.82-17.55-7.54-8.82-10.04-8.27-31.08,7.14-34.27,12.31-2.54,27.24,4.21,31.03,16.7,2.67,11.65-6.62,25.2-18.82,25.2-.59,0-1.2-.03-1.8-.1Z"/><path class="cls-2" d="M2124.53,974.69c-.11-2.91-.27-5.81-.44-8.72-.06-1.04-.12-2.09-.18-3.13.16-1.11.25-2.22.26-3.34,0-.39,0-.77-.02-1.15,11.18-.64,23.43,16.29,9.29,21.64-2.33.03-3.82,1.27-5.55,2.72-1.03.71-2.06,1.43-3.08,2.15-.04-3.39-.16-6.79-.29-10.18Z"/><path class="cls-2" d="M2124.14,1006.02c.15-1.71.27-3.44.38-5.16.27-4.45.29-8.91.3-13.36,0-4.27-.14-8.54-.3-12.8-.11-2.91-.27-5.81-.44-8.72-.06-1.04-.12-2.09-.18-3.13.16-1.11.25-2.22.26-3.34.04-3.33-.7-6.31-1.74-9.45-.98-2.98-2.79-5.7-4.99-8.02,5.78-3.28,14.76-.66,15.21,8.21-.29,10.26.84,20.65-.14,30.84,9.65-6.39,20.77,6.48,12.92,15.11-4.68,5.63-11.94,9.91-19.34,9.91-.65,0-1.29-.03-1.94-.1Z"/><path class="cls-2" d="M2141.07,1033.19c.4-17.38-3.46-34.71-2.1-52.1,1.27-8.33,12.68-12.25,18.18-5.41,2.47,2.96,2.91,7.05,1.47,10.43.02,3.51.29,7.03.45,10.53.17,12.05,2.4,23.93,1.99,36,0,6.7-5.05,10.12-10.08,10.12-4.82,0-9.61-3.14-9.92-9.57Z"/><path class="cls-2" d="M2129.57,1008.29c-1.65,0-3.42-.34-5.27-1.11-12.63-6.62-12.07-14.49-12.78-27.07-1.09-14.54-4.84-29.17-1.78-43.71,2.8-11.59,19.85-9.09,20.07,2.52-3.34,16.16,2.12,32.52,2.26,48.88,14.75,3.53,9.21,20.48-2.47,20.48h-.03Z"/><path class="cls-2" d="M1982.85,969.62c-.05-11.51,13.66-11.29,22.05-11.32,12.61-1.04,25.47-1.14,38.07.01,22.79.66,45.57-.28,68.23-1.48,4.72.2,9.22.97,13.84-.18,11.75-.26,14,16.63,3.01,20.17-5.84,1.5-12.06.09-18-.04-3.62-.19-7.12.47-10.66,1.08-3.85.31-7.71.22-11.57.13-3.25-.07-6.51-.15-9.75.02-11.6.98-23.2.54-34.79.1-7.02-.27-14.04-.53-21.05-.48-4.35-.18-8.68.09-13,.36-3.58.22-7.16.45-10.75.42-1.61.61-3.29.9-4.92.9-5.47,0-10.44-3.34-10.7-9.68Z"/><path class="cls-2" d="M1983.87,989.2c-4.53-.99-8.97-3.81-11.12-8-7.45-3.57-7.06-14.09-.25-18.22,2.76-7.38,9.16-13.81,17.31-14.47,9.59-.37,18.41,7.73,21.03,16.61,3.47,13.12-9.68,24.65-22.25,24.65-1.59,0-3.17-.18-4.71-.57Z"/><path class="cls-2" d="M1782.73,1031.84c-1.72-18.14,8.16-41.07,26.61-46.93,44.55-7.56,59.69,67.56,9.8,68.77-.17,0-.34,0-.51,0-10.88,0-33.34-11.07-35.9-21.85Z"/><path class="cls-2" d="M1719.95,1052.95c17.73-8.74,38.11-11.3,56.13-19.69,24.48-9.99,48.33-21.38,72.51-32.11,10.89-4.5,22.22-7.62,32.84-12.76,8.44-3.73,16.18-9,25.05-11.77,6.49-3.14,14.77-7.42,21.01-1.48,4.55,3.97,6.12,11.69,1.11,16-14.93,6.36-29.55,13.68-44.41,20.41-10.98,4.75-22.7,7.55-33.38,13.09-39.89,18.3-80.31,37.19-123.04,47.33-8.7-.77-15.05-12.6-7.84-19.02Z"/><path class="cls-2" d="M1916.55,998.23c-13.18-8.52-10.95-35.65,6.11-37.89,6.93-4.77,17.85-.27,21.86,6.53,7.81,13.8-4.02,34.09-18.78,34.09-2.99,0-6.1-.84-9.2-2.73Z"/><path class="cls-2" d="M1717.17,1088.54c-34.09-3.12-16.05-67.16,9.37-41.97,18.45,7.74,11.93,42.01-8.11,42.02-.41,0-.83-.02-1.25-.04Z"/><path class="cls-2" d="M1911.88,739.56c-18.73-10.3-5.64-49.85,16.3-35.97,19.34,9.36,9.44,37.94-8.18,37.94-2.57,0-5.3-.61-8.12-1.96Z"/><path class="cls-2" d="M1908.58,755.26c-35.68-12.66-13.53-76.45,22.02-65.87,61.95,13.79,33.12,66.97-10.96,66.98-3.6,0-7.29-.35-11.06-1.11ZM1923.01,723.77c-8.21,4.02-11.12,6.93.45,4.37.02-.73.1-1.45.23-2.17.18-.95.48-1.87.9-2.74h-.05c-.52,0-1.07.34-1.54.54Z"/><path class="cls-2" d="M1943.05,707.88c9.3-5.5,21.11-5.89,31.41-9.02,20.84-4.11,41.71-8.19,62.33-13.36l-.08.27-.42,1.59-.39,1.66-.36,1.76-.32,1.86-.29,1.98-.24,2.11-.19,2.24-.14,2.39-.07,2.53.02,2.65.11,2.75v.06c-28.1,6.68-56.59,11.93-84.54,18.42-8.86-1.21-13.52-13.57-6.83-19.88Z"/><path class="cls-2" d="M2034.37,709.28l-.07-2.75v-2.65s.03-2.53.03-2.53l.08-2.39.11-2.24.14-2.11.17-1.98.19-1.86.22-1.76.23-1.66.25-1.59.05-.27c4.71-1.99,9.4-4.14,14.05-6.52,4.34-1.57,8.62-6.41,13.11-5.46,5.4,2.22,7.28,16.72,1.96,21.14-10,5.86-20.21,10.54-30.52,14.68v-.06Z"/><path class="cls-2" d="M2069.91,708.29c-23.34-1.58-12.5-54.34,5.59-53.94,2.64.05,4.85,2.66,6.47,5.77,3.87,2.33,7.26,7.5,8.06,14.53,1.39,17.54-9.91,33.64-19.82,33.64-.1,0-.2,0-.3,0Z"/><path class="cls-2" d="M2063.2,708.21c-13.16-6.06-11.57-23.09-7.99-34.73,2.03-5.79,4.67-12.88,11.09-14.85,4.89-1.3,10.58-1.32,14.33,2.61,7.86.32,10.73,7.4,13.02,13.77,1.36,4.74-.81,9.62-1.84,14.23-2.4,4.99-4.4,10.59-8.11,14.76-3.78,3.37-8.87,5.61-13.94,5.61-2.23,0-4.45-.43-6.56-1.39ZM2075.18,696.7c1.4,2.28,3.96-4.61,4.64-5.74,2.65-4.51,4.34-9.38,5.11-14.56.33-2.25-1.52-4.17-2.05-6.3-2.92-.29-5.7-1.38-7.96-3.27-.82-.07-1.71.08-2.38.58-6.39,3.36-9.11,10.34-9.89,17.18-.19,2.86-.34,5.85.09,8.68.77,1.08,2,1.83,2.92,2.82,1.64-.41,3.46-.89,5.21-.89,1.57,0,3.07.38,4.32,1.52Z"/><path class="cls-2" d="M2062.07,708.44c-15.89-5.64-13.97-25.88-9.5-38.82,6.11-10.56,23.86-11.33,33.66-5.92,3.53,1.34,7.72,2.86,8.62,7.01,2.23,7.56-7.41,9.05-7.71,1.93.21-.75-1.1-.82-1.59-1.13-2.5-.83-4.77-2.27-7.29-2.99-5.46-.84-11.72-.41-16.5,2.57-4.2,2.69-4.81,17.46-4.04,22.23.98,5.38,4.93,7.23,9.36,9.27,3.22,2.93.94,6.69-2.33,6.69-.85,0-1.77-.26-2.68-.85Z"/><path class="cls-2" d="M2022.61,711.74c-3.42-.91-5.35-5.84-2.83-8.56,1.03-1,2.42-.85,3.74-.9,2.89-.11,5.78-.3,8.64-.73,7.72-.56,21.22-6.68,27.87-4.18,2.92,1.81,3.78,8.04-.43,8.73-11.61.99-22.77,5.72-34.52,5.72-.82,0-1.65-.02-2.48-.07Z"/><path class="cls-2" d="M2017.87,698.85c4.09-2.59,9.55-2.92,14.11-4.71,7.54-2.07,14.79-5.43,22.71-5.69,1.2-.04,2.43-.23,3.62-.1,4.67.63,6.27,10.02.55,10.01-13.09.26-24.96,7.2-37.69,9.38-3.62-.8-5.47-5.92-3.29-8.89Z"/><path class="cls-2" d="M2131.69,638.41c-10.87-.43-19.92-8.22-23.77-18.03-17.7-13.72-14.35-42.89,2.23-56.11,10.98-8.05,26.24-9.11,39.33-6.98,43.23,7.24,17.77,81.11-17.4,81.12-.13,0-.26,0-.39,0Z"/><path class="cls-2" d="M2127.92,548.27c.93-17.69.28-35.42.47-53.13-.07-5.39-.04-10.77.04-16.16,2.52,1.5,5.55,1.9,8.47,1.21,1.2-.29,2.37-.61,3.51-.99,1.76,1.32,3.9,2.13,6.17,2.13.11,0,.23,0,.35,0,.43-.02.86-.04,1.29-.06-.11,3.6-.11,7.19.17,10.73-.12,21.83.54,43.71-.96,65.47,5.07,6.15.09,16.27-7.87,16.06-.38.02-.76.04-1.12.04-12.89,0-11.44-15.89-10.51-25.29Z"/><path class="cls-2" d="M2130.38,691.4c-10.84-1.41-8.96-13.14-8.89-21.18.04-12.41.41-24.85,1.05-37.23.19-18.92,27.6-15.47,20.15,2.41-.55,10.36-.78,20.84-.95,31.25-.11,8.95,2.37,24.78-10.2,24.78-.38,0-.77-.02-1.17-.04Z"/><path class="cls-2" d="M2131.78,708.92c-12.12.21-16.92-10.77-16.34-21.75.62-11.84,7.48-23.68,18.12-21.5,4.68,2.41,10.18,3.51,14.02,7.38,11.3,11.62,1.1,35.88-15.08,35.88-.24,0-.48,0-.73-.02Z"/><path class="cls-2" d="M2049.79,460.29c-22.16-6.71-3.27-45.17,15.64-40.94,22.25,8.48,8.32,41.32-11.87,41.32-1.24,0-2.5-.12-3.78-.38Z"/><path class="cls-2" d="M2120.61,500.6c-12.55-9.53.32-44.19,17.27-39.63,16.19-10.92,29.91,9.81,18.11,23.23-7.1,7-16.95,18.64-27.59,18.64-2.56,0-5.17-.67-7.79-2.25Z"/><path class="cls-2" d="M1862.61,228.85c-7.76-1.75-7.64-9.57-8.49-15.88.02-4.62,2.47-8.83,3.59-13.24,1.01-4,1.07-8.03,1.14-12.12.61-5.12,1.47-10.21,1.77-15.37-.36-2.93.58-5.97,2.62-8.16,4.95-6.55,16.59-3.51,17.53,4.77.21,7.07-1.34,14.11-2.04,21.12.38,7.9-1.67,15.62-4.34,23,2.5,7.18-1.69,16.18-9.32,16.18-.79,0-1.61-.1-2.47-.3Z"/><path class="cls-2" d="M1867.93,231.31c-9.88.75-23.56-5.91-29.29-14.02-5.89-9.78-6.68-28.12-1.32-37.94,8.8-14.41,22.88-24.21,40.16-19.48,4.46,1.7,8.62,3.88,13.11,5.48,4.86,3,8.89,7.43,12.61,11.72,7.35,13.27,1.7,29.4-6.22,41.1-5.98,7.13-15.34,13.54-24.95,13.54-1.36,0-2.73-.13-4.1-.4ZM1873.15,211.6c4.35-2.14,8.5-4.84,10.21-9.61,2.04-4.53,4.06-8.99,2.86-14.04-1.8-1.48-3.52-3.05-4.99-4.87-3.1-.96-6.1-2.2-8.89-3.86-.87.02-1.74-.1-2.61-.22-1.94-.26-3.86-.52-5.54.71-4.04,2.66-7.96,6.25-9.99,10.69-.73,3.93-.13,9.15.32,12.78.13,5.45,7.03,6.51,11.12,8.16,1.1-.39,2.26-.59,3.42-.59,1.39,0,2.79.29,4.09.85Z"/><path class="cls-2" d="M1314.93,1155.93c.96-39.91,1.29-79.78.31-119.7.8-7.55-2.1-16.35,2.18-23.04,6.66-8.25,19.73-1.47,17.81,8.71,1.57,69.36-.84,138.63-.92,207.99.12,6.09.04,12.16-.17,18.24l-1.91.16-2.06.18-2.01.21-1.95.24-1.9.29-1.87.35-1.85.42-1.84.49-1.83.57-1.82.66-1.25.52c1.03-32.09.3-64.21,1.08-96.31Z"/><path class="cls-2" d="M1327.85,1032.44c-23.19-1.03-31.5-46.12-3.14-43.96,14.14-.33,22.04,10.83,22.89,21.98.84,11-5.16,21.99-18.76,21.99-.33,0-.66,0-1-.02Z"/><path class="cls-2" d="M1337.65,1447.61l-4.38-1.02-4.32-.85-4.24-.7-4.16-.58-4.1-.48-3.75-.38c.12-11.43.21-22.86.26-34.3l.34.17,2.12,1.11,2.1,1.13,2.07,1.14,2.03,1.15,2,1.16,1.97,1.16,1.94,1.16,1.92,1.15,1.92,1.14,1.93,1.13,1.98,1.13,2.03,1.13,1.74.92c-.05,7.91-.18,15.84-.32,23.8l-1.09-.29Z"/><path class="cls-2" d="M1326.04,1557.54c-15.11-1.19-15.09-8.14-14.31-15.79-.04-14.34.19-28.69-.29-43.03.37-29.72,1.45-59.42,2.08-89.12l1.91,1,2.1,1.13,2.07,1.14,2.03,1.15,2,1.16,1.97,1.16,1.94,1.16,1.92,1.15,1.92,1.14,1.93,1.13,1.98,1.13,2.03,1.13,1.73.92c-.26,8.96-.41,17.92-.2,26.81-.62,21.48-2.14,42.94-1.13,64.43,0,10.29,0,20.58,0,30.87.66,5.09.11,11.41-9.72,11.41-.62,0-1.27-.02-1.96-.07Z"/><path class="cls-2" d="M1319.13,1576.59c-20.34-.49-25.55-19.46-9.5-25.77,5.04-2.3,9.95-5.51,17.1-4.71,14.75,1.04,18.43,9.15,17.12,17.06.41,8.08-12.29,13.43-24.3,13.43h-.42Z"/><path class="cls-2" d="M1322.91,1590.16c-28.11-.19-29.59-46.91-2.23-49.56,17.7-1.79,26.92,11.46,27,24.7.08,12.43-7.91,24.86-24.49,24.86h-.28Z"/><path class="cls-2" d="M1281.94,1283.94c-.2-14.52-1.26-33.29,13.3-41.5,13.08-7.97,32.33-14.27,43.74-.27,23.44,6.5,38.34,32.39,29.97,55.68-5.22,15.92-18.18,33-36.41,33.06-25.34.02-50.04-21-50.6-46.97ZM1314.65,1261.01c-6.34,5.8-4.58,15.79-5.05,23.58-.75,10.2,4.11,23.54,15.55,24.91,8.33-3.21,13.46-12.56,16.48-20.54,2.31-8.18,3.45-18.27-3.29-24.63-7.56,3.73-14.99-1.27-21.63-4.49-.69.14-1.52.79-2.06,1.18Z"/><path class="cls-2" d="M1319.57,1251.64c-11.48-2.19-7.66-14.98-7.83-23.34-.29-11.92,1.58-23.71,1.8-35.6.12-2.72.21-5.45.3-8.17l1.25-.52,1.82-.66,1.83-.57,1.84-.49,1.85-.42,1.87-.35,1.9-.29,1.95-.24,2.01-.21,2.06-.18,1.91-.16c-.48,13.98-1.62,27.93-2.32,41.89-.88,9.95,3.32,29.37-11,29.37-.4,0-.82-.02-1.25-.05Z"/><path class="cls-2" d="M1337.31,1355.48l-2.03-1.13-1.98-1.13-1.93-1.13-1.92-1.14-1.92-1.15-1.94-1.16-1.97-1.16-2-1.16-2.03-1.15-2.07-1.14-2.1-1.13-2.12-1.11-.34-.18c.01-2.68.02-5.35.02-8.02-1.11-15.73,21.12-14.32,25.96-2.57.16,8.41.18,16.88.12,25.39l-1.74-.92Z"/><path class="cls-2" d="M1321.47,1327.96c-8.98-5.69-20.86-9.39-24.4-20.63-7.33-7.51-12.52-18.15-11.26-28.86,1.07-10.68,12.24-15.12,21.5-16.71,3.79-4.67,10.15-5.77,15.78-4.29,3.29-5.71,11.59-4.91,16.67-2.22,11.77-9.36,32.77,2.36,30.04,17.45-3.36,13.2-5.42,32.32-22.18,33.43-2.59,3.27-2,7.84-3.2,11.7-1.06,7.8-7.95,11.99-15.05,11.99-2.71,0-5.45-.61-7.91-1.85Z"/><path class="cls-2" d="M1337.32,1355.47l-2.03-1.13-1.98-1.13-1.93-1.13-1.92-1.14-1.92-1.15-1.94-1.16-1.97-1.16-2-1.16-2.03-1.15-2.07-1.14-2.1-1.13-1.91-1c.06-3.05.12-6.1.18-9.14l3.75.23,4.1.3,4.16.36,4.24.43,4.32.53,4.38.63,1.09.18c-.21,6.98-.48,13.99-.68,20.99l-1.73-.92Z"/><path class="cls-2" d="M1321.73,1453.58c-18.34-2.94-12.19-28.55-11.67-41.8.34-8.99.25-18.05,2.24-26.88,4.49-17.03.96-35.81,4.72-52.46,6.36-8.4,22.79-4.86,24.24,5.89,1.09,21.65-2.74,43.58-5.28,65.12.13,9.64-1.29,19.17-1.78,28.77,2.93,10.24,2.3,21.55-9.69,21.55-.86,0-1.79-.06-2.77-.18Z"/><path class="cls-2" d="M1322.38,1484.41c-22.11-2.07-8.37-48.05-11.11-63.89-.33-35.22-6.84-70.52-2.54-105.62.59-7.29-.01-14.57-.65-21.8,2.03-10.51,18.04-10.5,23.59-2.93,5.57,12.08,2.39,26.71,1.34,39.57-.27,44.38,6.37,88.62,2.59,133.05,1.3,10.71,2.28,21.75-10.59,21.75-.82,0-1.69-.04-2.62-.14Z"/></g></svg>